Kawkab Mono-Regular.ufo
<glyph name="exclam" format="1">
  <advance width="700"/>
  <unicode hex="0021"/>
  <note>
	exclam
  </note>
  <outline>
    <contour>
      <point x="302" y="816" type="line"/>
      <point x="399" y="816" type="line"/>
      <point x="399" y="412" type="line"/>
      <point x="379" y="206" type="line"/>
      <point x="322" y="206" type="line"/>
      <point x="302" y="412" type="line"/>
    </contour>
    <contour>
      <point x="282" y="96"/>
      <point x="308" y="121"/>
      <point x="349" y="121" type="curve" smooth="yes"/>
      <point x="391" y="121"/>
      <point x="417" y="96"/>
      <point x="417" y="54" type="curve" smooth="yes"/>
      <point x="417" y="13"/>
      <point x="391" y="-14"/>
      <point x="349" y="-14" type="curve" smooth="yes"/>
      <point x="308" y="-14"/>
      <point x="282" y="13"/>
      <point x="282" y="54" type="curve" smooth="yes"/>
    </contour>
  </outline>
</glyph>
<glyph name="quotedbl" format="1">
  <advance width="700"/>
  <unicode hex="0022"/>
  <note>
	quotedbl
  </note>
  <outline>
    <contour>
      <point x="419" y="816" type="line"/>
      <point x="521" y="816" type="line"/>
      <point x="485" y="463" type="line"/>
      <point x="419" y="463" type="line"/>
    </contour>
    <contour>
      <point x="177" y="816" type="line"/>
      <point x="280" y="816" type="line"/>
      <point x="244" y="463" type="line"/>
      <point x="177" y="463" type="line"/>
    </contour>
  </outline>
</glyph>
<glyph name="numbersign" format="1">
  <advance width="700"/>
  <unicode hex="0023"/>
  <note>
	numbersign
  </note>
  <outline>
    <contour>
      <point x="399" y="262" type="line"/>
      <point x="230" y="262" type="line"/>
      <point x="184" y="68" type="line"/>
      <point x="104" y="68" type="line"/>
      <point x="149" y="262" type="line"/>
      <point x="35" y="262" type="line"/>
      <point x="51" y="337" type="line"/>
      <point x="167" y="337" type="line"/>
      <point x="203" y="490" type="line"/>
      <point x="93" y="490" type="line"/>
      <point x="110" y="564" type="line"/>
      <point x="220" y="564" type="line"/>
      <point x="265" y="749" type="line"/>
      <point x="345" y="749" type="line"/>
      <point x="301" y="564" type="line"/>
      <point x="470" y="564" type="line"/>
      <point x="514" y="749" type="line"/>
      <point x="595" y="749" type="line"/>
      <point x="550" y="564" type="line"/>
      <point x="663" y="564" type="line"/>
      <point x="645" y="490" type="line"/>
      <point x="533" y="490" type="line"/>
      <point x="497" y="337" type="line"/>
      <point x="605" y="337" type="line"/>
      <point x="586" y="262" type="line"/>
      <point x="479" y="262" type="line"/>
      <point x="434" y="68" type="line"/>
      <point x="353" y="68" type="line"/>
    </contour>
    <contour>
      <point x="247" y="337" type="line"/>
      <point x="416" y="337" type="line"/>
      <point x="452" y="490" type="line"/>
      <point x="283" y="490" type="line"/>
    </contour>
  </outline>
</glyph>
<glyph name="dollar" format="1">
  <advance width="700"/>
  <unicode hex="0024"/>
  <note>
	dollar
  </note>
  <outline>
    <contour>
      <point x="307" y="-14" type="line"/>
      <point x="222" y="-13"/>
      <point x="154" y="1"/>
      <point x="113" y="23" type="curve"/>
      <point x="145" y="108" type="line"/>
      <point x="176" y="90"/>
      <point x="229" y="73"/>
      <point x="307" y="70" type="curve"/>
      <point x="307" y="385" type="line"/>
      <point x="260" y="408"/>
      <point x="212" y="433"/>
      <point x="176" y="470" type="curve" smooth="yes"/>
      <point x="140" y="506"/>
      <point x="117" y="554"/>
      <point x="117" y="623" type="curve" smooth="yes"/>
      <point x="117" y="735"/>
      <point x="180" y="809"/>
      <point x="307" y="827" type="curve"/>
      <point x="307" y="933" type="line"/>
      <point x="386" y="933" type="line"/>
      <point x="386" y="830" type="line"/>
      <point x="465" y="827"/>
      <point x="511" y="815"/>
      <point x="552" y="796" type="curve"/>
      <point x="524" y="715" type="line"/>
      <point x="492" y="730"/>
      <point x="451" y="743"/>
      <point x="386" y="746" type="curve"/>
      <point x="386" y="458" type="line"/>
      <point x="434" y="434"/>
      <point x="485" y="406"/>
      <point x="524" y="368" type="curve" smooth="yes"/>
      <point x="561" y="331"/>
      <point x="586" y="282"/>
      <point x="586" y="216" type="curve" smooth="yes"/>
      <point x="586" y="94"/>
      <point x="518" y="13"/>
      <point x="386" y="-9" type="curve"/>
      <point x="386" y="-117" type="line"/>
      <point x="307" y="-117" type="line"/>
    </contour>
    <contour>
      <point x="490" y="245"/>
      <point x="476" y="274"/>
      <point x="454" y="297" type="curve" smooth="yes"/>
      <point x="431" y="321"/>
      <point x="401" y="338"/>
      <point x="367" y="356" type="curve"/>
      <point x="367" y="72" type="line"/>
      <point x="438" y="85"/>
      <point x="490" y="127"/>
      <point x="490" y="208" type="curve" smooth="yes"/>
    </contour>
    <contour>
      <point x="213" y="562"/>
      <point x="261" y="524"/>
      <point x="325" y="490" type="curve"/>
      <point x="325" y="745" type="line"/>
      <point x="243" y="736"/>
      <point x="213" y="684"/>
      <point x="213" y="628" type="curve" smooth="yes"/>
    </contour>
  </outline>
</glyph>
<glyph name="percent" format="1">
  <advance width="700"/>
  <unicode hex="0025"/>
  <note>
	percent
  </note>
  <outline>
    <contour>
      <point x="33" y="705"/>
      <point x="52" y="754"/>
      <point x="80" y="786" type="curve" smooth="yes"/>
      <point x="108" y="817"/>
      <point x="146" y="830"/>
      <point x="182" y="830" type="curve" smooth="yes"/>
      <point x="218" y="830"/>
      <point x="255" y="820"/>
      <point x="283" y="789" type="curve" smooth="yes"/>
      <point x="311" y="759"/>
      <point x="331" y="710"/>
      <point x="331" y="632" type="curve" smooth="yes"/>
      <point x="331" y="556"/>
      <point x="311" y="507"/>
      <point x="283" y="477" type="curve" smooth="yes"/>
      <point x="255" y="447"/>
      <point x="218" y="435"/>
      <point x="182" y="435" type="curve" smooth="yes"/>
      <point x="146" y="435"/>
      <point x="108" y="447"/>
      <point x="80" y="477" type="curve" smooth="yes"/>
      <point x="52" y="507"/>
      <point x="33" y="556"/>
      <point x="33" y="632" type="curve" smooth="yes"/>
    </contour>
    <contour>
      <point x="114" y="586"/>
      <point x="121" y="554"/>
      <point x="136" y="536" type="curve"/>
      <point x="150" y="518"/>
      <point x="166" y="508"/>
      <point x="182" y="508" type="curve" smooth="yes"/>
      <point x="199" y="508"/>
      <point x="216" y="514"/>
      <point x="229" y="533" type="curve" smooth="yes"/>
      <point x="241" y="552"/>
      <point x="250" y="582"/>
      <point x="250" y="632" type="curve" smooth="yes"/>
      <point x="250" y="680"/>
      <point x="241" y="711"/>
      <point x="229" y="731" type="curve" smooth="yes"/>
      <point x="216" y="750"/>
      <point x="199" y="757"/>
      <point x="182" y="757" type="curve" smooth="yes"/>
      <point x="164" y="757"/>
      <point x="148" y="747"/>
      <point x="135" y="730" type="curve" smooth="yes"/>
      <point x="121" y="711"/>
      <point x="114" y="679"/>
      <point x="114" y="632" type="curve" smooth="yes"/>
    </contour>
    <contour>
      <point x="367" y="271"/>
      <point x="387" y="319"/>
      <point x="415" y="351" type="curve" smooth="yes"/>
      <point x="443" y="382"/>
      <point x="480" y="395"/>
      <point x="517" y="395" type="curve" smooth="yes"/>
      <point x="553" y="395"/>
      <point x="590" y="385"/>
      <point x="618" y="354" type="curve" smooth="yes"/>
      <point x="646" y="324"/>
      <point x="666" y="275"/>
      <point x="666" y="197" type="curve" smooth="yes"/>
      <point x="666" y="121"/>
      <point x="646" y="72"/>
      <point x="618" y="42" type="curve" smooth="yes"/>
      <point x="590" y="12"/>
      <point x="553" y="0"/>
      <point x="517" y="0" type="curve" smooth="yes"/>
      <point x="480" y="0"/>
      <point x="443" y="12"/>
      <point x="415" y="42" type="curve" smooth="yes"/>
      <point x="387" y="72"/>
      <point x="367" y="121"/>
      <point x="367" y="197" type="curve" smooth="yes"/>
    </contour>
    <contour>
      <point x="449" y="152"/>
      <point x="456" y="119"/>
      <point x="471" y="101" type="curve"/>
      <point x="485" y="83"/>
      <point x="500" y="73"/>
      <point x="517" y="73" type="curve" smooth="yes"/>
      <point x="534" y="73"/>
      <point x="550" y="78"/>
      <point x="563" y="97" type="curve" smooth="yes"/>
      <point x="576" y="114"/>
      <point x="584" y="146"/>
      <point x="584" y="197" type="curve" smooth="yes"/>
      <point x="584" y="245"/>
      <point x="576" y="276"/>
      <point x="563" y="296" type="curve" smooth="yes"/>
      <point x="550" y="315"/>
      <point x="534" y="322"/>
      <point x="517" y="322" type="curve" smooth="yes"/>
      <point x="499" y="322"/>
      <point x="483" y="315"/>
      <point x="470" y="296" type="curve" smooth="yes"/>
      <point x="457" y="278"/>
      <point x="449" y="247"/>
      <point x="449" y="197" type="curve" smooth="yes"/>
    </contour>
    <contour>
      <point x="515" y="837" type="line"/>
      <point x="582" y="803" type="line"/>
      <point x="176" y="-16" type="line"/>
      <point x="110" y="14" type="line"/>
    </contour>
  </outline>
</glyph>
<glyph name="ampersand" format="1">
  <advance width="700"/>
  <unicode hex="0026"/>
  <note>
	ampersand
  </note>
  <outline>
    <contour>
      <point x="35" y="344"/>
      <point x="96" y="442"/>
      <point x="198" y="506" type="curve"/>
      <point x="161" y="562"/>
      <point x="129" y="616"/>
      <point x="129" y="681" type="curve" smooth="yes"/>
      <point x="129" y="718"/>
      <point x="141" y="756"/>
      <point x="169" y="784" type="curve" smooth="yes"/>
      <point x="196" y="812"/>
      <point x="238" y="830"/>
      <point x="298" y="830" type="curve" smooth="yes"/>
      <point x="363" y="830"/>
      <point x="405" y="813"/>
      <point x="431" y="786" type="curve" smooth="yes"/>
      <point x="458" y="759"/>
      <point x="469" y="725"/>
      <point x="469" y="691" type="curve" smooth="yes"/>
      <point x="469" y="626"/>
      <point x="420" y="555"/>
      <point x="311" y="491" type="curve"/>
      <point x="336" y="445"/>
      <point x="371" y="398"/>
      <point x="408" y="351" type="curve" smooth="yes"/>
      <point x="445" y="304"/>
      <point x="485" y="257"/>
      <point x="524" y="218" type="curve"/>
      <point x="541" y="243"/>
      <point x="554" y="281"/>
      <point x="563" y="319" type="curve" smooth="yes"/>
      <point x="571" y="358"/>
      <point x="575" y="399"/>
      <point x="575" y="431" type="curve"/>
      <point x="658" y="431" type="line"/>
      <point x="653" y="333"/>
      <point x="627" y="229"/>
      <point x="576" y="162" type="curve"/>
      <point x="598" y="135"/>
      <point x="625" y="110"/>
      <point x="663" y="85" type="curve"/>
      <point x="663" y="-14" type="line"/>
      <point x="623" y="6"/>
      <point x="575" y="42"/>
      <point x="522" y="94" type="curve"/>
      <point x="494" y="66"/>
      <point x="468" y="40"/>
      <point x="431" y="20" type="curve" smooth="yes"/>
      <point x="395" y="0"/>
      <point x="351" y="-14"/>
      <point x="290" y="-14" type="curve" smooth="yes"/>
      <point x="226" y="-14"/>
      <point x="163" y="7"/>
      <point x="115" y="49" type="curve" smooth="yes"/>
      <point x="68" y="91"/>
      <point x="35" y="154"/>
      <point x="35" y="241" type="curve" smooth="yes"/>
    </contour>
    <contour>
      <point x="422" y="198"/>
      <point x="379" y="253"/>
      <point x="339" y="305" type="curve" smooth="yes"/>
      <point x="300" y="358"/>
      <point x="265" y="409"/>
      <point x="241" y="447" type="curve"/>
      <point x="157" y="382"/>
      <point x="128" y="319"/>
      <point x="128" y="245" type="curve" smooth="yes"/>
      <point x="128" y="184"/>
      <point x="154" y="140"/>
      <point x="188" y="111" type="curve" smooth="yes"/>
      <point x="222" y="82"/>
      <point x="266" y="68"/>
      <point x="304" y="68" type="curve" smooth="yes"/>
      <point x="382" y="68"/>
      <point x="431" y="110"/>
      <point x="468" y="153" type="curve"/>
    </contour>
    <contour>
      <point x="220" y="634"/>
      <point x="241" y="589"/>
      <point x="273" y="543" type="curve"/>
      <point x="314" y="570"/>
      <point x="343" y="593"/>
      <point x="359" y="616" type="curve"/>
      <point x="374" y="638"/>
      <point x="382" y="656"/>
      <point x="382" y="673" type="curve" smooth="yes"/>
      <point x="382" y="723"/>
      <point x="361" y="757"/>
      <point x="302" y="757" type="curve" smooth="yes"/>
      <point x="246" y="757"/>
      <point x="220" y="726"/>
      <point x="220" y="681" type="curve" smooth="yes"/>
    </contour>
  </outline>
</glyph>
<glyph name="quotesingle" format="1">
  <advance width="700"/>
  <unicode hex="0027"/>
  <note>
	quotesingle
  </note>
  <outline>
    <contour>
      <point x="304" y="816" type="line"/>
      <point x="407" y="816" type="line"/>
      <point x="371" y="463" type="line"/>
      <point x="304" y="463" type="line"/>
    </contour>
  </outline>
</glyph>
<glyph name="parenleft" format="1">
  <advance width="700"/>
  <unicode hex="0028"/>
  <note>
	parenleft
  </note>
  <outline>
    <contour>
      <point x="504" y="-247" type="line"/>
      <point x="400" y="-220"/>
      <point x="307" y="-170"/>
      <point x="239" y="-86" type="curve" smooth="yes"/>
      <point x="171" y="-2"/>
      <point x="128" y="117"/>
      <point x="128" y="283" type="curve" smooth="yes"/>
      <point x="128" y="448"/>
      <point x="171" y="571"/>
      <point x="240" y="658" type="curve" smooth="yes"/>
      <point x="309" y="744"/>
      <point x="402" y="794"/>
      <point x="504" y="816" type="curve"/>
      <point x="533" y="743" type="line"/>
      <point x="441" y="716"/>
      <point x="364" y="676"/>
      <point x="309" y="606" type="curve" smooth="yes"/>
      <point x="253" y="535"/>
      <point x="222" y="433"/>
      <point x="222" y="283" type="curve" smooth="yes"/>
      <point x="222" y="133"/>
      <point x="261" y="28"/>
      <point x="322" y="-42" type="curve" smooth="yes"/>
      <point x="381" y="-113"/>
      <point x="458" y="-152"/>
      <point x="533" y="-167" type="curve"/>
    </contour>
  </outline>
</glyph>
<glyph name="parenright" format="1">
  <advance width="700"/>
  <unicode hex="0029"/>
  <note>
	parenright
  </note>
  <outline>
    <contour>
      <point x="167" y="-167" type="line"/>
      <point x="241" y="-152"/>
      <point x="318" y="-113"/>
      <point x="379" y="-42" type="curve" smooth="yes"/>
      <point x="438" y="28"/>
      <point x="478" y="133"/>
      <point x="478" y="283" type="curve" smooth="yes"/>
      <point x="478" y="433"/>
      <point x="447" y="535"/>
      <point x="392" y="606" type="curve" smooth="yes"/>
      <point x="336" y="676"/>
      <point x="259" y="716"/>
      <point x="167" y="743" type="curve"/>
      <point x="196" y="816" type="line"/>
      <point x="297" y="794"/>
      <point x="391" y="744"/>
      <point x="459" y="658" type="curve" smooth="yes"/>
      <point x="528" y="571"/>
      <point x="571" y="448"/>
      <point x="571" y="283" type="curve" smooth="yes"/>
      <point x="571" y="117"/>
      <point x="529" y="-2"/>
      <point x="462" y="-86" type="curve" smooth="yes"/>
      <point x="394" y="-170"/>
      <point x="300" y="-220"/>
      <point x="196" y="-247" type="curve"/>
    </contour>
  </outline>
</glyph>
<glyph name="asterisk" format="1">
  <advance width="700"/>
  <unicode hex="002A"/>
  <note>
	asterisk
  </note>
  <outline>
    <contour>
      <point x="248" y="833" type="line"/>
      <point x="352" y="628" type="line"/>
      <point x="452" y="834" type="line"/>
      <point x="533" y="791" type="line"/>
      <point x="392" y="593" type="line"/>
      <point x="628" y="611" type="line"/>
      <point x="628" y="517" type="line"/>
      <point x="399" y="535" type="line"/>
      <point x="534" y="347" type="line"/>
      <point x="456" y="302" type="line"/>
      <point x="347" y="511" type="line"/>
      <point x="245" y="302" type="line"/>
      <point x="161" y="347" type="line"/>
      <point x="302" y="535" type="line"/>
      <point x="71" y="517" type="line"/>
      <point x="71" y="611" type="line"/>
      <point x="302" y="591" type="line"/>
      <point x="168" y="787" type="line"/>
    </contour>
  </outline>
</glyph>
<glyph name="plus" format="1">
  <advance width="700"/>
  <unicode hex="002B"/>
  <note>
	plus
  </note>
  <outline>
    <contour>
      <point x="56" y="436" type="line"/>
      <point x="308" y="436" type="line"/>
      <point x="308" y="694" type="line"/>
      <point x="392" y="694" type="line"/>
      <point x="392" y="436" type="line"/>
      <point x="644" y="436" type="line"/>
      <point x="644" y="352" type="line"/>
      <point x="392" y="352" type="line"/>
      <point x="392" y="94" type="line"/>
      <point x="308" y="94" type="line"/>
      <point x="308" y="352" type="line"/>
      <point x="56" y="352" type="line"/>
    </contour>
  </outline>
</glyph>
<glyph name="comma" format="1">
  <advance width="700"/>
  <unicode hex="002C"/>
  <note>
	comma
  </note>
  <outline>
    <contour>
      <point x="267" y="111"/>
      <point x="301" y="142"/>
      <point x="349" y="142" type="curve" smooth="yes"/>
      <point x="408" y="142"/>
      <point x="442" y="99"/>
      <point x="442" y="24" type="curve" smooth="yes"/>
      <point x="442" y="-36"/>
      <point x="420" y="-82"/>
      <point x="389" y="-113" type="curve" smooth="yes"/>
      <point x="359" y="-146"/>
      <point x="321" y="-164"/>
      <point x="291" y="-174" type="curve"/>
      <point x="262" y="-128" type="line"/>
      <point x="318" y="-106"/>
      <point x="365" y="-65"/>
      <point x="365" y="-8" type="curve"/>
      <point x="354" y="-10"/>
      <point x="345" y="-12"/>
      <point x="339" y="-12" type="curve" smooth="yes"/>
      <point x="294" y="-12"/>
      <point x="267" y="14"/>
      <point x="267" y="64" type="curve" smooth="yes"/>
    </contour>
  </outline>
</glyph>
<glyph name="hyphen" format="1">
  <advance width="700"/>
  <unicode hex="002D"/>
  <note>
	hyphen
  </note>
  <outline>
    <contour>
      <point x="150" y="379" type="line"/>
      <point x="549" y="379" type="line"/>
      <point x="549" y="293" type="line"/>
      <point x="150" y="293" type="line"/>
    </contour>
  </outline>
</glyph>
<glyph name="period" format="1">
  <advance width="700"/>
  <unicode hex="002E"/>
  <outline>
    <contour>
      <point x="487" y="90" type="line"/>
      <point x="382" y="204" type="line"/>
      <point x="276" y="90" type="line"/>
      <point x="382" y="-20" type="line"/>
    </contour>
  </outline>
</glyph>
<glyph name="slash" format="1">
  <advance width="700"/>
  <unicode hex="002F"/>
  <note>
	slash
  </note>
  <outline>
    <contour>
      <point x="526" y="830" type="line"/>
      <point x="599" y="798" type="line"/>
      <point x="174" y="-163" type="line"/>
      <point x="100" y="-131" type="line"/>
    </contour>
  </outline>
</glyph>
<glyph name="zero" format="1">
  <advance width="700"/>
  <unicode hex="0030"/>
  <note>
	zero
  </note>
  <outline>
    <contour>
      <point x="64" y="540"/>
      <point x="87" y="647"/>
      <point x="134" y="719" type="curve" smooth="yes"/>
      <point x="181" y="792"/>
      <point x="252" y="830"/>
      <point x="350" y="830" type="curve" smooth="yes"/>
      <point x="454" y="830"/>
      <point x="525" y="792"/>
      <point x="570" y="721" type="curve" smooth="yes"/>
      <point x="616" y="649"/>
      <point x="634" y="543"/>
      <point x="634" y="408" type="curve" smooth="yes"/>
      <point x="634" y="276"/>
      <point x="611" y="170"/>
      <point x="564" y="98" type="curve" smooth="yes"/>
      <point x="518" y="26"/>
      <point x="447" y="-14"/>
      <point x="349" y="-14" type="curve" smooth="yes"/>
      <point x="246" y="-14"/>
      <point x="175" y="29"/>
      <point x="129" y="104" type="curve" smooth="yes"/>
      <point x="83" y="178"/>
      <point x="64" y="283"/>
      <point x="64" y="408" type="curve" smooth="yes"/>
    </contour>
    <contour>
      <point x="539" y="449"/>
      <point x="536" y="489"/>
      <point x="532" y="526" type="curve"/>
      <point x="185" y="210" type="line"/>
      <point x="212" y="121"/>
      <point x="264" y="64"/>
      <point x="349" y="64" type="curve" smooth="yes"/>
      <point x="485" y="64"/>
      <point x="539" y="176"/>
      <point x="539" y="408" type="curve" smooth="yes"/>
    </contour>
    <contour>
      <point x="161" y="370"/>
      <point x="163" y="333"/>
      <point x="167" y="300" type="curve"/>
      <point x="514" y="614" type="line"/>
      <point x="487" y="698"/>
      <point x="438" y="752"/>
      <point x="350" y="752" type="curve" smooth="yes"/>
      <point x="211" y="752"/>
      <point x="161" y="638"/>
      <point x="161" y="408" type="curve" smooth="yes"/>
    </contour>
  </outline>
</glyph>
<glyph name="one" format="1">
  <advance width="700"/>
  <unicode hex="0031"/>
  <note>
	one
  </note>
  <outline>
    <contour>
      <point x="148" y="84" type="line"/>
      <point x="331" y="84" type="line"/>
      <point x="331" y="697" type="line"/>
      <point x="145" y="567" type="line"/>
      <point x="99" y="633" type="line"/>
      <point x="356" y="816" type="line"/>
      <point x="421" y="816" type="line"/>
      <point x="421" y="84" type="line"/>
      <point x="600" y="84" type="line"/>
      <point x="600" y="0" type="line"/>
      <point x="148" y="0" type="line"/>
    </contour>
  </outline>
</glyph>
<glyph name="two" format="1">
  <advance width="700"/>
  <unicode hex="0032"/>
  <note>
	two
  </note>
  <outline>
    <contour>
      <point x="583" y="466"/>
      <point x="441" y="290"/>
      <point x="198" y="84" type="curve"/>
      <point x="609" y="84" type="line"/>
      <point x="609" y="0" type="line"/>
      <point x="91" y="0" type="line"/>
      <point x="91" y="84" type="line"/>
      <point x="106" y="98"/>
      <point x="126" y="117"/>
      <point x="152" y="139" type="curve" smooth="yes"/>
      <point x="203" y="184"/>
      <point x="264" y="239"/>
      <point x="325" y="303" type="curve" smooth="yes"/>
      <point x="386" y="367"/>
      <point x="437" y="435"/>
      <point x="469" y="501" type="curve" smooth="yes"/>
      <point x="484" y="535"/>
      <point x="492" y="567"/>
      <point x="492" y="598" type="curve" smooth="yes"/>
      <point x="492" y="691"/>
      <point x="443" y="749"/>
      <point x="345" y="749" type="curve" smooth="yes"/>
      <point x="261" y="749"/>
      <point x="208" y="730"/>
      <point x="161" y="694" type="curve"/>
      <point x="121" y="758" type="line"/>
      <point x="191" y="808"/>
      <point x="268" y="830"/>
      <point x="361" y="830" type="curve" smooth="yes"/>
      <point x="507" y="830"/>
      <point x="583" y="745"/>
      <point x="583" y="610" type="curve" smooth="yes"/>
    </contour>
  </outline>
</glyph>
<glyph name="three" format="1">
  <advance width="700"/>
  <unicode hex="0033"/>
  <note>
	three
  </note>
  <outline>
    <contour>
      <point x="351" y="66"/>
      <point x="405" y="84"/>
      <point x="443" y="113" type="curve" smooth="yes"/>
      <point x="482" y="142"/>
      <point x="505" y="185"/>
      <point x="505" y="237" type="curve" smooth="yes"/>
      <point x="505" y="344"/>
      <point x="423" y="386"/>
      <point x="296" y="386" type="curve" smooth="yes"/>
      <point x="222" y="386" type="line"/>
      <point x="222" y="442" type="line"/>
      <point x="451" y="732" type="line"/>
      <point x="103" y="732" type="line"/>
      <point x="103" y="816" type="line"/>
      <point x="563" y="816" type="line"/>
      <point x="563" y="732" type="line"/>
      <point x="333" y="463" type="line"/>
      <point x="352" y="463" type="line" smooth="yes"/>
      <point x="423" y="463"/>
      <point x="484" y="442"/>
      <point x="527" y="405" type="curve" smooth="yes"/>
      <point x="570" y="367"/>
      <point x="596" y="314"/>
      <point x="596" y="247" type="curve" smooth="yes"/>
      <point x="596" y="163"/>
      <point x="561" y="98"/>
      <point x="505" y="54" type="curve" smooth="yes"/>
      <point x="449" y="9"/>
      <point x="371" y="-14"/>
      <point x="286" y="-14" type="curve" smooth="yes"/>
      <point x="206" y="-14"/>
      <point x="150" y="-1"/>
      <point x="103" y="16" type="curve"/>
      <point x="126" y="98" type="line"/>
      <point x="167" y="79"/>
      <point x="220" y="66"/>
      <point x="289" y="66" type="curve" smooth="yes"/>
    </contour>
  </outline>
</glyph>
<glyph name="four" format="1">
  <advance width="700"/>
  <unicode hex="0034"/>
  <note>
	four
  </note>
  <outline>
    <contour>
      <point x="676" y="254" type="line"/>
      <point x="519" y="254" type="line"/>
      <point x="519" y="0" type="line"/>
      <point x="428" y="0" type="line"/>
      <point x="428" y="254" type="line"/>
      <point x="51" y="254" type="line"/>
      <point x="51" y="322" type="line"/>
      <point x="442" y="816" type="line"/>
      <point x="519" y="816" type="line"/>
      <point x="519" y="331" type="line"/>
      <point x="676" y="331" type="line"/>
    </contour>
    <contour>
      <point x="428" y="670" type="line"/>
      <point x="159" y="331" type="line"/>
      <point x="428" y="331" type="line"/>
    </contour>
  </outline>
</glyph>
<glyph name="five" format="1">
  <advance width="700"/>
  <unicode hex="0035"/>
  <note>
	five
  </note>
  <outline>
    <contour>
      <point x="358" y="68"/>
      <point x="409" y="83"/>
      <point x="444" y="113" type="curve" smooth="yes"/>
      <point x="479" y="143"/>
      <point x="499" y="188"/>
      <point x="499" y="248" type="curve" smooth="yes"/>
      <point x="499" y="360"/>
      <point x="414" y="420"/>
      <point x="275" y="420" type="curve"/>
      <point x="166" y="414" type="line"/>
      <point x="166" y="816" type="line"/>
      <point x="566" y="816" type="line"/>
      <point x="566" y="732" type="line"/>
      <point x="253" y="732" type="line"/>
      <point x="253" y="496" type="line"/>
      <point x="311" y="498" type="line"/>
      <point x="484" y="498"/>
      <point x="590" y="410"/>
      <point x="590" y="255" type="curve" smooth="yes"/>
      <point x="590" y="168"/>
      <point x="557" y="101"/>
      <point x="505" y="56" type="curve" smooth="yes"/>
      <point x="452" y="9"/>
      <point x="378" y="-14"/>
      <point x="293" y="-14" type="curve" smooth="yes"/>
      <point x="246" y="-14"/>
      <point x="203" y="-6"/>
      <point x="169" y="5" type="curve" smooth="yes"/>
      <point x="135" y="14"/>
      <point x="107" y="27"/>
      <point x="97" y="36" type="curve"/>
      <point x="134" y="112" type="line"/>
      <point x="161" y="97"/>
      <point x="215" y="68"/>
      <point x="298" y="68" type="curve" smooth="yes"/>
    </contour>
  </outline>
</glyph>
<glyph name="six" format="1">
  <advance width="700"/>
  <unicode hex="0036"/>
  <note>
	six
  </note>
  <outline>
    <contour>
      <point x="628" y="180"/>
      <point x="604" y="114"/>
      <point x="557" y="66" type="curve" smooth="yes"/>
      <point x="511" y="19"/>
      <point x="442" y="-14"/>
      <point x="352" y="-14" type="curve" smooth="yes"/>
      <point x="268" y="-14"/>
      <point x="199" y="14"/>
      <point x="149" y="63" type="curve" smooth="yes"/>
      <point x="99" y="112"/>
      <point x="71" y="184"/>
      <point x="71" y="273" type="curve" smooth="yes"/>
      <point x="71" y="419"/>
      <point x="117" y="554"/>
      <point x="194" y="653" type="curve" smooth="yes"/>
      <point x="271" y="752"/>
      <point x="379" y="817"/>
      <point x="506" y="830" type="curve"/>
      <point x="522" y="756" type="line"/>
      <point x="424" y="743"/>
      <point x="342" y="695"/>
      <point x="281" y="628" type="curve" smooth="yes"/>
      <point x="220" y="562"/>
      <point x="181" y="478"/>
      <point x="170" y="394" type="curve"/>
      <point x="183" y="414"/>
      <point x="208" y="438"/>
      <point x="241" y="455" type="curve" smooth="yes"/>
      <point x="274" y="471"/>
      <point x="316" y="483"/>
      <point x="364" y="483" type="curve" smooth="yes"/>
      <point x="447" y="483"/>
      <point x="512" y="459"/>
      <point x="559" y="419" type="curve" smooth="yes"/>
      <point x="604" y="377"/>
      <point x="628" y="317"/>
      <point x="628" y="246" type="curve" smooth="yes"/>
    </contour>
    <contour>
      <point x="533" y="345"/>
      <point x="473" y="405"/>
      <point x="347" y="405" type="curve" smooth="yes"/>
      <point x="302" y="405"/>
      <point x="264" y="393"/>
      <point x="232" y="375" type="curve" smooth="yes"/>
      <point x="201" y="357"/>
      <point x="177" y="332"/>
      <point x="164" y="309" type="curve"/>
      <point x="163" y="298"/>
      <point x="162" y="289"/>
      <point x="162" y="283" type="curve" smooth="yes"/>
      <point x="162" y="278"/>
      <point x="162" y="269"/>
      <point x="162" y="261" type="curve" smooth="yes"/>
      <point x="162" y="215"/>
      <point x="177" y="164"/>
      <point x="210" y="127" type="curve" smooth="yes"/>
      <point x="241" y="90"/>
      <point x="289" y="64"/>
      <point x="354" y="64" type="curve" smooth="yes"/>
      <point x="407" y="64"/>
      <point x="451" y="84"/>
      <point x="484" y="115" type="curve" smooth="yes"/>
      <point x="515" y="147"/>
      <point x="533" y="190"/>
      <point x="533" y="237" type="curve" smooth="yes"/>
    </contour>
  </outline>
</glyph>
<glyph name="seven" format="1">
  <advance width="700"/>
  <unicode hex="0037"/>
  <note>
	seven
  </note>
  <outline>
    <contour>
      <point x="145" y="0" type="line"/>
      <point x="501" y="732" type="line"/>
      <point x="80" y="732" type="line"/>
      <point x="80" y="816" type="line"/>
      <point x="596" y="816" type="line"/>
      <point x="596" y="740" type="line"/>
      <point x="240" y="0" type="line"/>
    </contour>
  </outline>
</glyph>
<glyph name="eight" format="1">
  <advance width="700"/>
  <unicode hex="0038"/>
  <note>
	eight
  </note>
  <outline>
    <contour>
      <point x="87" y="293"/>
      <point x="145" y="368"/>
      <point x="259" y="426" type="curve"/>
      <point x="216" y="449"/>
      <point x="177" y="472"/>
      <point x="150" y="504" type="curve" smooth="yes"/>
      <point x="122" y="535"/>
      <point x="106" y="575"/>
      <point x="106" y="627" type="curve" smooth="yes"/>
      <point x="106" y="684"/>
      <point x="131" y="736"/>
      <point x="174" y="772" type="curve" smooth="yes"/>
      <point x="217" y="808"/>
      <point x="281" y="830"/>
      <point x="357" y="830" type="curve" smooth="yes"/>
      <point x="428" y="830"/>
      <point x="487" y="810"/>
      <point x="529" y="778" type="curve" smooth="yes"/>
      <point x="570" y="744"/>
      <point x="592" y="697"/>
      <point x="592" y="646" type="curve" smooth="yes"/>
      <point x="592" y="557"/>
      <point x="550" y="484"/>
      <point x="452" y="423" type="curve"/>
      <point x="498" y="400"/>
      <point x="538" y="374"/>
      <point x="567" y="342" type="curve" smooth="yes"/>
      <point x="595" y="309"/>
      <point x="612" y="268"/>
      <point x="612" y="216" type="curve" smooth="yes"/>
      <point x="612" y="150"/>
      <point x="589" y="92"/>
      <point x="543" y="51" type="curve" smooth="yes"/>
      <point x="497" y="10"/>
      <point x="430" y="-14"/>
      <point x="342" y="-14" type="curve" smooth="yes"/>
      <point x="259" y="-14"/>
      <point x="195" y="12"/>
      <point x="153" y="50" type="curve" smooth="yes"/>
      <point x="110" y="89"/>
      <point x="87" y="142"/>
      <point x="87" y="198" type="curve" smooth="yes"/>
    </contour>
    <contour>
      <point x="520" y="255"/>
      <point x="498" y="289"/>
      <point x="463" y="317" type="curve" smooth="yes"/>
      <point x="428" y="345"/>
      <point x="380" y="367"/>
      <point x="332" y="391" type="curve"/>
      <point x="220" y="336"/>
      <point x="177" y="266"/>
      <point x="177" y="209" type="curve" smooth="yes"/>
      <point x="177" y="170"/>
      <point x="192" y="134"/>
      <point x="222" y="107" type="curve" smooth="yes"/>
      <point x="250" y="80"/>
      <point x="293" y="64"/>
      <point x="349" y="64" type="curve" smooth="yes"/>
      <point x="394" y="64"/>
      <point x="436" y="77"/>
      <point x="469" y="101" type="curve" smooth="yes"/>
      <point x="500" y="125"/>
      <point x="520" y="162"/>
      <point x="520" y="210" type="curve" smooth="yes"/>
    </contour>
    <contour>
      <point x="197" y="588"/>
      <point x="219" y="554"/>
      <point x="253" y="527" type="curve"/>
      <point x="286" y="499"/>
      <point x="331" y="478"/>
      <point x="379" y="456" type="curve"/>
      <point x="462" y="511"/>
      <point x="503" y="562"/>
      <point x="503" y="627" type="curve" smooth="yes"/>
      <point x="503" y="666"/>
      <point x="485" y="696"/>
      <point x="458" y="718" type="curve" smooth="yes"/>
      <point x="430" y="740"/>
      <point x="393" y="752"/>
      <point x="354" y="752" type="curve" smooth="yes"/>
      <point x="304" y="752"/>
      <point x="266" y="737"/>
      <point x="239" y="714" type="curve" smooth="yes"/>
      <point x="212" y="690"/>
      <point x="197" y="660"/>
      <point x="197" y="631" type="curve" smooth="yes"/>
    </contour>
  </outline>
</glyph>
<glyph name="nine" format="1">
  <advance width="700"/>
  <unicode hex="0039"/>
  <note>
	nine
  </note>
  <outline>
    <contour>
      <point x="71" y="641"/>
      <point x="94" y="707"/>
      <point x="142" y="754" type="curve" smooth="yes"/>
      <point x="189" y="801"/>
      <point x="259" y="830"/>
      <point x="352" y="830" type="curve" smooth="yes"/>
      <point x="440" y="830"/>
      <point x="508" y="801"/>
      <point x="556" y="751" type="curve" smooth="yes"/>
      <point x="603" y="700"/>
      <point x="628" y="626"/>
      <point x="628" y="538" type="curve" smooth="yes"/>
      <point x="628" y="364"/>
      <point x="583" y="232"/>
      <point x="505" y="140" type="curve" smooth="yes"/>
      <point x="427" y="48"/>
      <point x="318" y="-3"/>
      <point x="194" y="-14" type="curve"/>
      <point x="176" y="59" type="line"/>
      <point x="279" y="70"/>
      <point x="359" y="111"/>
      <point x="419" y="171" type="curve" smooth="yes"/>
      <point x="478" y="232"/>
      <point x="515" y="314"/>
      <point x="529" y="403" type="curve"/>
      <point x="505" y="377"/>
      <point x="480" y="359"/>
      <point x="449" y="349" type="curve" smooth="yes"/>
      <point x="417" y="338"/>
      <point x="381" y="333"/>
      <point x="333" y="333" type="curve" smooth="yes"/>
      <point x="262" y="333"/>
      <point x="196" y="356"/>
      <point x="149" y="398" type="curve" smooth="yes"/>
      <point x="101" y="438"/>
      <point x="71" y="497"/>
      <point x="71" y="570" type="curve" smooth="yes"/>
    </contour>
    <contour>
      <point x="167" y="468"/>
      <point x="240" y="412"/>
      <point x="352" y="412" type="curve" smooth="yes"/>
      <point x="441" y="412"/>
      <point x="508" y="442"/>
      <point x="535" y="483" type="curve"/>
      <point x="536" y="493"/>
      <point x="538" y="503"/>
      <point x="538" y="510" type="curve" smooth="yes"/>
      <point x="538" y="515"/>
      <point x="538" y="524"/>
      <point x="538" y="532" type="curve" smooth="yes"/>
      <point x="538" y="586"/>
      <point x="524" y="641"/>
      <point x="492" y="683" type="curve" smooth="yes"/>
      <point x="461" y="725"/>
      <point x="413" y="753"/>
      <point x="344" y="753" type="curve" smooth="yes"/>
      <point x="232" y="753"/>
      <point x="167" y="690"/>
      <point x="167" y="580" type="curve" smooth="yes"/>
    </contour>
  </outline>
</glyph>
<glyph name="colon" format="1">
  <advance width="700"/>
  <unicode hex="003A"/>
  <note>
	colon
  </note>
  <outline>
    <contour>
      <point x="272" y="573"/>
      <point x="302" y="600"/>
      <point x="349" y="600" type="curve" smooth="yes"/>
      <point x="399" y="600"/>
      <point x="428" y="573"/>
      <point x="428" y="522" type="curve" smooth="yes"/>
      <point x="428" y="477"/>
      <point x="399" y="444"/>
      <point x="349" y="444" type="curve" smooth="yes"/>
      <point x="302" y="444"/>
      <point x="272" y="477"/>
      <point x="272" y="522" type="curve" smooth="yes"/>
    </contour>
    <contour>
      <point x="272" y="114"/>
      <point x="302" y="142"/>
      <point x="349" y="142" type="curve" smooth="yes"/>
      <point x="399" y="142"/>
      <point x="428" y="114"/>
      <point x="428" y="64" type="curve" smooth="yes"/>
      <point x="428" y="19"/>
      <point x="399" y="-14"/>
      <point x="349" y="-14" type="curve" smooth="yes"/>
      <point x="302" y="-14"/>
      <point x="272" y="19"/>
      <point x="272" y="64" type="curve" smooth="yes"/>
    </contour>
  </outline>
</glyph>
<glyph name="less" format="1">
  <advance width="700"/>
  <unicode hex="003C"/>
  <note>
	less
  </note>
  <outline>
    <contour>
      <point x="52" y="356" type="line"/>
      <point x="52" y="389" type="line"/>
      <point x="602" y="724" type="line"/>
      <point x="646" y="652" type="line"/>
      <point x="183" y="378" type="line"/>
      <point x="647" y="108" type="line"/>
      <point x="603" y="38" type="line"/>
    </contour>
  </outline>
</glyph>
<glyph name="equal" format="1">
  <advance width="700"/>
  <unicode hex="003D"/>
  <note>
	equal
  </note>
  <outline>
    <contour>
      <point x="79" y="533" type="line"/>
      <point x="620" y="533" type="line"/>
      <point x="620" y="449" type="line"/>
      <point x="79" y="449" type="line"/>
    </contour>
    <contour>
      <point x="79" y="340" type="line"/>
      <point x="620" y="340" type="line"/>
      <point x="620" y="257" type="line"/>
      <point x="79" y="257" type="line"/>
    </contour>
  </outline>
</glyph>
<glyph name="greater" format="1">
  <advance width="700"/>
  <unicode hex="003E"/>
  <note>
	greater
  </note>
  <outline>
    <contour>
      <point x="97" y="38" type="line"/>
      <point x="52" y="108" type="line"/>
      <point x="517" y="378" type="line"/>
      <point x="54" y="652" type="line"/>
      <point x="98" y="724" type="line"/>
      <point x="647" y="389" type="line"/>
      <point x="647" y="356" type="line"/>
    </contour>
  </outline>
</glyph>
<glyph name="question" format="1">
  <advance width="700"/>
  <unicode hex="003F"/>
  <note>
	question
  </note>
  <outline>
    <contour>
      <point x="271" y="206" type="line"/>
      <point x="269" y="210"/>
      <point x="269" y="215"/>
      <point x="269" y="219" type="curve" smooth="yes"/>
      <point x="269" y="224"/>
      <point x="269" y="229"/>
      <point x="269" y="232" type="curve" smooth="yes"/>
      <point x="269" y="297"/>
      <point x="296" y="342"/>
      <point x="332" y="379" type="curve" smooth="yes"/>
      <point x="350" y="396"/>
      <point x="370" y="413"/>
      <point x="391" y="428" type="curve" smooth="yes"/>
      <point x="431" y="457"/>
      <point x="469" y="490"/>
      <point x="493" y="531" type="curve" smooth="yes"/>
      <point x="505" y="550"/>
      <point x="511" y="575"/>
      <point x="511" y="603" type="curve" smooth="yes"/>
      <point x="511" y="632"/>
      <point x="497" y="669"/>
      <point x="469" y="698" type="curve" smooth="yes"/>
      <point x="440" y="728"/>
      <point x="394" y="749"/>
      <point x="330" y="749" type="curve" smooth="yes"/>
      <point x="279" y="749"/>
      <point x="238" y="735"/>
      <point x="205" y="716" type="curve" smooth="yes"/>
      <point x="171" y="697"/>
      <point x="145" y="673"/>
      <point x="122" y="653" type="curve"/>
      <point x="63" y="707" type="line"/>
      <point x="128" y="789"/>
      <point x="233" y="830"/>
      <point x="367" y="830" type="curve" smooth="yes"/>
      <point x="448" y="830"/>
      <point x="510" y="801"/>
      <point x="549" y="760" type="curve" smooth="yes"/>
      <point x="589" y="718"/>
      <point x="607" y="665"/>
      <point x="607" y="617" type="curve" smooth="yes"/>
      <point x="607" y="542"/>
      <point x="578" y="496"/>
      <point x="540" y="456" type="curve" smooth="yes"/>
      <point x="520" y="436"/>
      <point x="500" y="417"/>
      <point x="478" y="402" type="curve"/>
      <point x="434" y="370"/>
      <point x="393" y="335"/>
      <point x="367" y="289" type="curve" smooth="yes"/>
      <point x="354" y="267"/>
      <point x="347" y="239"/>
      <point x="347" y="206" type="curve"/>
    </contour>
    <contour>
      <point x="247" y="96"/>
      <point x="273" y="121"/>
      <point x="314" y="121" type="curve" smooth="yes"/>
      <point x="356" y="121"/>
      <point x="382" y="96"/>
      <point x="382" y="54" type="curve" smooth="yes"/>
      <point x="382" y="13"/>
      <point x="356" y="-14"/>
      <point x="314" y="-14" type="curve" smooth="yes"/>
      <point x="273" y="-14"/>
      <point x="247" y="13"/>
      <point x="247" y="54" type="curve" smooth="yes"/>
    </contour>
  </outline>
</glyph>
<glyph name="at" format="1">
  <advance width="700"/>
  <unicode hex="0040"/>
  <note>
	at
  </note>
  <outline>
    <contour>
      <point x="614" y="352"/>
      <point x="613" y="321"/>
      <point x="612" y="287" type="curve" smooth="yes"/>
      <point x="609" y="220"/>
      <point x="606" y="146"/>
      <point x="616" y="76" type="curve"/>
      <point x="694" y="76" type="line"/>
      <point x="694" y="0" type="line"/>
      <point x="539" y="0" type="line"/>
      <point x="528" y="87" type="line"/>
      <point x="522" y="87" type="line"/>
      <point x="518" y="80"/>
      <point x="512" y="71"/>
      <point x="505" y="61" type="curve" smooth="yes"/>
      <point x="491" y="38"/>
      <point x="468" y="16"/>
      <point x="429" y="1" type="curve" smooth="yes"/>
      <point x="409" y="-7"/>
      <point x="385" y="-10"/>
      <point x="356" y="-10" type="curve" smooth="yes"/>
      <point x="305" y="-10"/>
      <point x="262" y="6"/>
      <point x="231" y="35" type="curve" smooth="yes"/>
      <point x="199" y="63"/>
      <point x="181" y="104"/>
      <point x="181" y="155" type="curve" smooth="yes"/>
      <point x="181" y="234"/>
      <point x="217" y="287"/>
      <point x="278" y="315" type="curve" smooth="yes"/>
      <point x="338" y="343"/>
      <point x="423" y="347"/>
      <point x="521" y="330" type="curve"/>
      <point x="526" y="408"/>
      <point x="521" y="464"/>
      <point x="499" y="501" type="curve" smooth="yes"/>
      <point x="477" y="538"/>
      <point x="438" y="555"/>
      <point x="377" y="555" type="curve" smooth="yes"/>
      <point x="311" y="555"/>
      <point x="244" y="522"/>
      <point x="194" y="459" type="curve" smooth="yes"/>
      <point x="143" y="396"/>
      <point x="110" y="304"/>
      <point x="110" y="189" type="curve" smooth="yes"/>
      <point x="110" y="66"/>
      <point x="146" y="-23"/>
      <point x="202" y="-83" type="curve" smooth="yes"/>
      <point x="258" y="-142"/>
      <point x="333" y="-170"/>
      <point x="416" y="-170" type="curve" smooth="yes"/>
      <point x="450" y="-170"/>
      <point x="492" y="-161"/>
      <point x="531" y="-146" type="curve" smooth="yes"/>
      <point x="568" y="-131"/>
      <point x="603" y="-107"/>
      <point x="627" y="-79" type="curve"/>
      <point x="675" y="-141" type="line"/>
      <point x="610" y="-211"/>
      <point x="514" y="-248"/>
      <point x="407" y="-248" type="curve" smooth="yes"/>
      <point x="317" y="-248"/>
      <point x="223" y="-219"/>
      <point x="149" y="-152" type="curve" smooth="yes"/>
      <point x="76" y="-84"/>
      <point x="26" y="23"/>
      <point x="26" y="182" type="curve" smooth="yes"/>
      <point x="26" y="336"/>
      <point x="73" y="448"/>
      <point x="143" y="522" type="curve" smooth="yes"/>
      <point x="213" y="597"/>
      <point x="307" y="633"/>
      <point x="396" y="633" type="curve" smooth="yes"/>
      <point x="477" y="633"/>
      <point x="533" y="613"/>
      <point x="567" y="573" type="curve" smooth="yes"/>
      <point x="600" y="531"/>
      <point x="614" y="469"/>
      <point x="614" y="381" type="curve" smooth="yes"/>
    </contour>
    <contour>
      <point x="422" y="68"/>
      <point x="455" y="83"/>
      <point x="477" y="105" type="curve" smooth="yes"/>
      <point x="499" y="127"/>
      <point x="512" y="154"/>
      <point x="521" y="177" type="curve"/>
      <point x="521" y="259" type="line"/>
      <point x="485" y="266"/>
      <point x="451" y="269"/>
      <point x="422" y="269" type="curve" smooth="yes"/>
      <point x="361" y="269"/>
      <point x="317" y="255"/>
      <point x="294" y="224" type="curve" smooth="yes"/>
      <point x="282" y="209"/>
      <point x="276" y="188"/>
      <point x="276" y="163" type="curve" smooth="yes"/>
      <point x="276" y="112"/>
      <point x="309" y="68"/>
      <point x="379" y="68" type="curve" smooth="yes"/>
    </contour>
  </outline>
</glyph>
<glyph name="A" format="1">
  <advance width="700"/>
  <unicode hex="0041"/>
  <note>
	A
  </note>
  <outline>
    <contour>
      <point x="503" y="226" type="line"/>
      <point x="189" y="226" type="line"/>
      <point x="114" y="0" type="line"/>
      <point x="19" y="0" type="line"/>
      <point x="291" y="816" type="line"/>
      <point x="406" y="816" type="line"/>
      <point x="681" y="0" type="line"/>
      <point x="580" y="0" type="line"/>
    </contour>
    <contour>
      <point x="219" y="310" type="line"/>
      <point x="476" y="310" type="line"/>
      <point x="356" y="694" type="line"/>
      <point x="342" y="694" type="line"/>
    </contour>
  </outline>
</glyph>
<glyph name="B" format="1">
  <advance width="700"/>
  <unicode hex="0042"/>
  <note>
	B
  </note>
  <outline>
    <contour>
      <point x="609" y="591"/>
      <point x="596" y="549"/>
      <point x="571" y="514" type="curve" smooth="yes"/>
      <point x="547" y="479"/>
      <point x="507" y="451"/>
      <point x="455" y="437" type="curve"/>
      <point x="455" y="433" type="line"/>
      <point x="501" y="424"/>
      <point x="546" y="407"/>
      <point x="578" y="374" type="curve" smooth="yes"/>
      <point x="611" y="342"/>
      <point x="633" y="296"/>
      <point x="633" y="232" type="curve" smooth="yes"/>
      <point x="633" y="148"/>
      <point x="595" y="86"/>
      <point x="539" y="48" type="curve" smooth="yes"/>
      <point x="482" y="9"/>
      <point x="405" y="-9"/>
      <point x="329" y="-9" type="curve" smooth="yes"/>
      <point x="316" y="-9"/>
      <point x="300" y="-9"/>
      <point x="282" y="-9" type="curve" smooth="yes"/>
      <point x="246" y="-9"/>
      <point x="206" y="-7"/>
      <point x="168" y="-2" type="curve"/>
      <point x="148" y="-1"/>
      <point x="132" y="2"/>
      <point x="117" y="6" type="curve"/>
      <point x="117" y="809" type="line"/>
      <point x="174" y="819"/>
      <point x="252" y="826"/>
      <point x="342" y="826" type="curve" smooth="yes"/>
      <point x="402" y="826"/>
      <point x="469" y="817"/>
      <point x="520" y="789" type="curve" smooth="yes"/>
      <point x="571" y="760"/>
      <point x="609" y="710"/>
      <point x="609" y="630" type="curve" smooth="yes"/>
    </contour>
    <contour>
      <point x="388" y="75"/>
      <point x="436" y="87"/>
      <point x="472" y="112" type="curve" smooth="yes"/>
      <point x="508" y="136"/>
      <point x="531" y="174"/>
      <point x="531" y="225" type="curve" smooth="yes"/>
      <point x="531" y="289"/>
      <point x="503" y="325"/>
      <point x="462" y="347" type="curve" smooth="yes"/>
      <point x="420" y="370"/>
      <point x="366" y="375"/>
      <point x="315" y="375" type="curve" smooth="yes"/>
      <point x="213" y="375" type="line"/>
      <point x="213" y="83" type="line"/>
      <point x="224" y="79"/>
      <point x="246" y="78"/>
      <point x="269" y="77" type="curve" smooth="yes"/>
      <point x="293" y="76"/>
      <point x="319" y="75"/>
      <point x="338" y="75" type="curve" smooth="yes"/>
    </contour>
    <contour>
      <point x="274" y="457" type="line" smooth="yes"/>
      <point x="301" y="457"/>
      <point x="344" y="458"/>
      <point x="368" y="462" type="curve"/>
      <point x="406" y="475"/>
      <point x="440" y="492"/>
      <point x="465" y="517" type="curve" smooth="yes"/>
      <point x="491" y="541"/>
      <point x="506" y="573"/>
      <point x="506" y="610" type="curve" smooth="yes"/>
      <point x="506" y="661"/>
      <point x="485" y="695"/>
      <point x="452" y="715" type="curve" smooth="yes"/>
      <point x="420" y="735"/>
      <point x="375" y="742"/>
      <point x="332" y="742" type="curve" smooth="yes"/>
      <point x="281" y="742"/>
      <point x="236" y="739"/>
      <point x="213" y="735" type="curve"/>
      <point x="213" y="457" type="line"/>
    </contour>
  </outline>
</glyph>
<glyph name="F" format="1">
  <advance width="700"/>
  <unicode hex="0046"/>
  <note>
	F
  </note>
  <outline>
    <contour>
      <point x="136" y="816" type="line"/>
      <point x="604" y="816" type="line"/>
      <point x="604" y="730" type="line"/>
      <point x="233" y="730" type="line"/>
      <point x="233" y="451" type="line"/>
      <point x="581" y="451" type="line"/>
      <point x="581" y="365" type="line"/>
      <point x="233" y="365" type="line"/>
      <point x="233" y="0" type="line"/>
      <point x="136" y="0" type="line"/>
    </contour>
  </outline>
</glyph>
<glyph name="H" format="1">
  <advance width="700"/>
  <unicode hex="0048"/>
  <note>
	H
  </note>
  <outline>
    <contour>
      <point x="533" y="374" type="line"/>
      <point x="167" y="374" type="line"/>
      <point x="167" y="0" type="line"/>
      <point x="70" y="0" type="line"/>
      <point x="70" y="816" type="line"/>
      <point x="167" y="816" type="line"/>
      <point x="167" y="461" type="line"/>
      <point x="533" y="461" type="line"/>
      <point x="533" y="816" type="line"/>
      <point x="630" y="816" type="line"/>
      <point x="630" y="0" type="line"/>
      <point x="533" y="0" type="line"/>
    </contour>
  </outline>
</glyph>
<glyph name="K" format="1">
  <advance width="700"/>
  <unicode hex="004B"/>
  <note>
	K
  </note>
  <outline>
    <contour>
      <point x="286" y="378" type="line"/>
      <point x="196" y="378" type="line"/>
      <point x="196" y="0" type="line"/>
      <point x="99" y="0" type="line"/>
      <point x="99" y="816" type="line"/>
      <point x="196" y="816" type="line"/>
      <point x="196" y="452" type="line"/>
      <point x="283" y="452" type="line"/>
      <point x="546" y="816" type="line"/>
      <point x="658" y="816" type="line"/>
      <point x="370" y="428" type="line"/>
      <point x="694" y="0" type="line"/>
      <point x="571" y="0" type="line"/>
    </contour>
  </outline>
</glyph>
<glyph name="L" format="1">
  <advance width="700"/>
  <unicode hex="004C"/>
  <note>
	L
  </note>
  <outline>
    <contour>
      <point x="105" y="816" type="line"/>
      <point x="202" y="816" type="line"/>
      <point x="202" y="86" type="line"/>
      <point x="532" y="86" type="line"/>
      <point x="532" y="289" type="line"/>
      <point x="618" y="289" type="line"/>
      <point x="618" y="0" type="line"/>
      <point x="105" y="0" type="line"/>
    </contour>
  </outline>
</glyph>
<glyph name="M" format="1">
  <advance width="700"/>
  <unicode hex="004D"/>
  <note>
	M
  </note>
  <outline>
    <contour>
      <point x="533" y="542" type="line"/>
      <point x="545" y="653" type="line"/>
      <point x="539" y="653" type="line"/>
      <point x="483" y="553" type="line"/>
      <point x="364" y="353" type="line"/>
      <point x="335" y="353" type="line"/>
      <point x="210" y="554" type="line"/>
      <point x="156" y="653" type="line"/>
      <point x="150" y="653" type="line"/>
      <point x="164" y="543" type="line"/>
      <point x="164" y="0" type="line"/>
      <point x="70" y="0" type="line"/>
      <point x="70" y="816" type="line"/>
      <point x="160" y="816" type="line"/>
      <point x="353" y="506" type="line"/>
      <point x="356" y="506" type="line"/>
      <point x="542" y="816" type="line"/>
      <point x="630" y="816" type="line"/>
      <point x="630" y="0" type="line"/>
      <point x="533" y="0" type="line"/>
    </contour>
  </outline>
</glyph>
<glyph name="N" format="1">
  <advance width="700"/>
  <unicode hex="004E"/>
  <note>
	N
  </note>
  <outline>
    <contour>
      <point x="229" y="511" type="line"/>
      <point x="166" y="628" type="line"/>
      <point x="161" y="628" type="line"/>
      <point x="173" y="511" type="line"/>
      <point x="173" y="0" type="line"/>
      <point x="82" y="0" type="line"/>
      <point x="82" y="816" type="line"/>
      <point x="145" y="816" type="line"/>
      <point x="473" y="308" type="line"/>
      <point x="534" y="196" type="line"/>
      <point x="540" y="196" type="line"/>
      <point x="527" y="308" type="line"/>
      <point x="527" y="816" type="line"/>
      <point x="618" y="816" type="line"/>
      <point x="618" y="0" type="line"/>
      <point x="555" y="0" type="line"/>
    </contour>
  </outline>
</glyph>
<glyph name="P" format="1">
  <advance width="700"/>
  <unicode hex="0050"/>
  <note>
	P
  </note>
  <outline>
    <contour>
      <point x="117" y="808" type="line"/>
      <point x="176" y="822"/>
      <point x="247" y="826"/>
      <point x="314" y="826" type="curve" smooth="yes"/>
      <point x="385" y="826"/>
      <point x="463" y="814"/>
      <point x="524" y="777" type="curve" smooth="yes"/>
      <point x="584" y="739"/>
      <point x="626" y="676"/>
      <point x="626" y="575" type="curve" smooth="yes"/>
      <point x="626" y="476"/>
      <point x="588" y="408"/>
      <point x="528" y="366" type="curve" smooth="yes"/>
      <point x="469" y="323"/>
      <point x="389" y="305"/>
      <point x="309" y="305" type="curve" smooth="yes"/>
      <point x="305" y="305"/>
      <point x="298" y="305"/>
      <point x="290" y="305" type="curve" smooth="yes"/>
      <point x="272" y="305"/>
      <point x="252" y="307"/>
      <point x="233" y="308" type="curve"/>
      <point x="224" y="309"/>
      <point x="217" y="309"/>
      <point x="213" y="310" type="curve"/>
      <point x="213" y="0" type="line"/>
      <point x="117" y="0" type="line"/>
    </contour>
    <contour>
      <point x="275" y="742"/>
      <point x="236" y="740"/>
      <point x="213" y="735" type="curve"/>
      <point x="213" y="396" type="line"/>
      <point x="222" y="393"/>
      <point x="240" y="393"/>
      <point x="259" y="393" type="curve"/>
      <point x="268" y="392"/>
      <point x="278" y="392"/>
      <point x="286" y="392" type="curve" smooth="yes"/>
      <point x="294" y="392"/>
      <point x="301" y="392"/>
      <point x="304" y="392" type="curve" smooth="yes"/>
      <point x="357" y="392"/>
      <point x="412" y="400"/>
      <point x="454" y="427" type="curve" smooth="yes"/>
      <point x="496" y="454"/>
      <point x="524" y="500"/>
      <point x="524" y="575" type="curve" smooth="yes"/>
      <point x="524" y="639"/>
      <point x="498" y="681"/>
      <point x="458" y="707" type="curve" smooth="yes"/>
      <point x="419" y="732"/>
      <point x="366" y="742"/>
      <point x="316" y="742" type="curve" smooth="yes"/>
    </contour>
  </outline>
</glyph>
<glyph name="Q" format="1">
  <advance width="700"/>
  <unicode hex="0051"/>
  <note>
	Q
  </note>
  <outline>
    <contour>
      <point x="56" y="679"/>
      <point x="149" y="830"/>
      <point x="349" y="830" type="curve" smooth="yes"/>
      <point x="457" y="830"/>
      <point x="532" y="788"/>
      <point x="578" y="715" type="curve" smooth="yes"/>
      <point x="625" y="640"/>
      <point x="644" y="535"/>
      <point x="644" y="408" type="curve" smooth="yes"/>
      <point x="644" y="157"/>
      <point x="567" y="13"/>
      <point x="398" y="-10" type="curve"/>
      <point x="412" y="-65"/>
      <point x="450" y="-92"/>
      <point x="510" y="-92" type="curve" smooth="yes"/>
      <point x="543" y="-92"/>
      <point x="573" y="-84"/>
      <point x="599" y="-66" type="curve"/>
      <point x="625" y="-138" type="line"/>
      <point x="603" y="-162"/>
      <point x="553" y="-178"/>
      <point x="503" y="-178" type="curve" smooth="yes"/>
      <point x="461" y="-178"/>
      <point x="414" y="-168"/>
      <point x="375" y="-141" type="curve" smooth="yes"/>
      <point x="337" y="-114"/>
      <point x="305" y="-73"/>
      <point x="296" y="-9" type="curve"/>
      <point x="208" y="3"/>
      <point x="148" y="49"/>
      <point x="111" y="121" type="curve" smooth="yes"/>
      <point x="72" y="194"/>
      <point x="56" y="291"/>
      <point x="56" y="408" type="curve" smooth="yes"/>
    </contour>
    <contour>
      <point x="159" y="318"/>
      <point x="169" y="234"/>
      <point x="198" y="174" type="curve" smooth="yes"/>
      <point x="227" y="112"/>
      <point x="274" y="72"/>
      <point x="349" y="72" type="curve" smooth="yes"/>
      <point x="483" y="72"/>
      <point x="541" y="178"/>
      <point x="541" y="408" type="curve" smooth="yes"/>
      <point x="541" y="497"/>
      <point x="531" y="582"/>
      <point x="501" y="644" type="curve" smooth="yes"/>
      <point x="472" y="704"/>
      <point x="423" y="744"/>
      <point x="349" y="744" type="curve" smooth="yes"/>
      <point x="217" y="744"/>
      <point x="159" y="637"/>
      <point x="159" y="408" type="curve" smooth="yes"/>
    </contour>
  </outline>
</glyph>
<glyph name="T" format="1">
  <advance width="700"/>
  <unicode hex="0054"/>
  <note>
	T
  </note>
  <outline>
    <contour>
      <point x="47" y="816" type="line"/>
      <point x="653" y="816" type="line"/>
      <point x="653" y="603" type="line"/>
      <point x="567" y="603" type="line"/>
      <point x="567" y="730" type="line"/>
      <point x="398" y="730" type="line"/>
      <point x="398" y="86" type="line"/>
      <point x="526" y="86" type="line"/>
      <point x="526" y="0" type="line"/>
      <point x="173" y="0" type="line"/>
      <point x="173" y="86" type="line"/>
      <point x="301" y="86" type="line"/>
      <point x="301" y="730" type="line"/>
      <point x="133" y="730" type="line"/>
      <point x="133" y="603" type="line"/>
      <point x="47" y="603" type="line"/>
    </contour>
  </outline>
</glyph>
<glyph name="U" format="1">
  <advance width="700"/>
  <unicode hex="0055"/>
  <note>
	U
  </note>
  <outline>
    <contour>
      <point x="536" y="816" type="line"/>
      <point x="630" y="816" type="line"/>
      <point x="630" y="272" type="line" smooth="yes"/>
      <point x="630" y="174"/>
      <point x="603" y="103"/>
      <point x="556" y="57" type="curve" smooth="yes"/>
      <point x="510" y="10"/>
      <point x="441" y="-10"/>
      <point x="360" y="-10" type="curve" smooth="yes"/>
      <point x="168" y="-10"/>
      <point x="70" y="76"/>
      <point x="70" y="253" type="curve" smooth="yes"/>
      <point x="70" y="816" type="line"/>
      <point x="167" y="816" type="line"/>
      <point x="167" y="298" type="line" smooth="yes"/>
      <point x="167" y="216"/>
      <point x="183" y="161"/>
      <point x="216" y="126" type="curve" smooth="yes"/>
      <point x="247" y="91"/>
      <point x="296" y="76"/>
      <point x="361" y="76" type="curve" smooth="yes"/>
      <point x="487" y="76"/>
      <point x="536" y="140"/>
      <point x="536" y="298" type="curve" smooth="yes"/>
    </contour>
  </outline>
</glyph>
<glyph name="V" format="1">
  <advance width="700"/>
  <unicode hex="0056"/>
  <note>
	V
  </note>
  <outline>
    <contour>
      <point x="352" y="120" type="line"/>
      <point x="365" y="120" type="line"/>
      <point x="586" y="816" type="line"/>
      <point x="683" y="816" type="line"/>
      <point x="409" y="0" type="line"/>
      <point x="296" y="0" type="line"/>
      <point x="16" y="816" type="line"/>
      <point x="122" y="816" type="line"/>
    </contour>
  </outline>
</glyph>
<glyph name="X" format="1">
  <advance width="700"/>
  <unicode hex="0058"/>
  <note>
	X
  </note>
  <outline>
    <contour>
      <point x="293" y="415" type="line"/>
      <point x="47" y="816" type="line"/>
      <point x="163" y="816" type="line"/>
      <point x="326" y="540" type="line"/>
      <point x="356" y="485" type="line"/>
      <point x="384" y="540" type="line"/>
      <point x="557" y="816" type="line"/>
      <point x="665" y="816" type="line"/>
      <point x="409" y="423" type="line"/>
      <point x="676" y="0" type="line"/>
      <point x="563" y="0" type="line"/>
      <point x="380" y="293" type="line"/>
      <point x="349" y="351" type="line"/>
      <point x="318" y="293" type="line"/>
      <point x="132" y="0" type="line"/>
      <point x="23" y="0" type="line"/>
    </contour>
  </outline>
</glyph>
<glyph name="Z" format="1">
  <advance width="700"/>
  <unicode hex="005A"/>
  <note>
	Z
  </note>
  <outline>
    <contour>
      <point x="64" y="87" type="line"/>
      <point x="525" y="730" type="line"/>
      <point x="64" y="730" type="line"/>
      <point x="64" y="816" type="line"/>
      <point x="635" y="816" type="line"/>
      <point x="635" y="729" type="line"/>
      <point x="173" y="86" type="line"/>
      <point x="635" y="86" type="line"/>
      <point x="635" y="0" type="line"/>
      <point x="64" y="0" type="line"/>
    </contour>
  </outline>
</glyph>
<glyph name="bracketleft" format="1">
  <advance width="700"/>
  <unicode hex="005B"/>
  <note>
	bracketleft
  </note>
  <outline>
    <contour>
      <point x="174" y="816" type="line"/>
      <point x="571" y="816" type="line"/>
      <point x="571" y="735" type="line"/>
      <point x="265" y="735" type="line"/>
      <point x="265" y="-187" type="line"/>
      <point x="571" y="-187" type="line"/>
      <point x="571" y="-268" type="line"/>
      <point x="174" y="-268" type="line"/>
    </contour>
  </outline>
</glyph>
<glyph name="backslash" format="1">
  <advance width="700"/>
  <unicode hex="005C"/>
  <note>
	backslash
  </note>
  <outline>
    <contour>
      <point x="604" y="-129" type="line"/>
      <point x="527" y="-163" type="line"/>
      <point x="96" y="798" type="line"/>
      <point x="174" y="830" type="line"/>
    </contour>
  </outline>
</glyph>
<glyph name="bracketright" format="1">
  <advance width="700"/>
  <unicode hex="005D"/>
  <note>
	bracketright
  </note>
  <outline>
    <contour>
      <point x="526" y="-268" type="line"/>
      <point x="127" y="-268" type="line"/>
      <point x="127" y="-187" type="line"/>
      <point x="435" y="-187" type="line"/>
      <point x="435" y="735" type="line"/>
      <point x="127" y="735" type="line"/>
      <point x="127" y="816" type="line"/>
      <point x="526" y="816" type="line"/>
    </contour>
  </outline>
</glyph>
<glyph name="asciicircum" format="1">
  <advance width="700"/>
  <unicode hex="005E"/>
  <note>
	asciicircum
  </note>
  <outline>
    <contour>
      <point x="343" y="829" type="line"/>
      <point x="377" y="829" type="line"/>
      <point x="661" y="351" type="line"/>
      <point x="566" y="351" type="line"/>
      <point x="356" y="710" type="line"/>
      <point x="138" y="351" type="line"/>
      <point x="41" y="351" type="line"/>
    </contour>
  </outline>
</glyph>
<glyph name="underscore" format="1">
  <advance width="700"/>
  <unicode hex="005F"/>
  <note>
	underscore
  </note>
  <outline>
    <contour>
      <point x="65" y="-157" type="line"/>
      <point x="634" y="-157" type="line"/>
      <point x="634" y="-239" type="line"/>
      <point x="65" y="-239" type="line"/>
    </contour>
  </outline>
</glyph>
<glyph name="grave" format="1">
  <advance width="700"/>
  <unicode hex="0060"/>
  <note>
	grave
  </note>
  <outline>
    <contour>
      <point x="431" y="666" type="line"/>
      <point x="367" y="666" type="line"/>
      <point x="229" y="840" type="line"/>
      <point x="356" y="840" type="line"/>
    </contour>
  </outline>
</glyph>
<glyph name="b" format="1">
  <advance width="700"/>
  <unicode hex="0062"/>
  <note>
	b
  </note>
  <outline>
    <contour>
      <point x="2" y="816" type="line"/>
      <point x="189" y="816" type="line"/>
      <point x="189" y="517" type="line"/>
      <point x="195" y="517" type="line"/>
      <point x="236" y="568"/>
      <point x="302" y="597"/>
      <point x="377" y="597" type="curve" smooth="yes"/>
      <point x="548" y="597"/>
      <point x="633" y="498"/>
      <point x="633" y="301" type="curve" smooth="yes"/>
      <point x="633" y="100"/>
      <point x="519" y="-9"/>
      <point x="315" y="-9" type="curve" smooth="yes"/>
      <point x="218" y="-9"/>
      <point x="135" y="13"/>
      <point x="99" y="37" type="curve"/>
      <point x="99" y="738" type="line"/>
      <point x="2" y="738" type="line"/>
    </contour>
    <contour>
      <point x="272" y="519"/>
      <point x="216" y="464"/>
      <point x="189" y="367" type="curve"/>
      <point x="189" y="99" type="line"/>
      <point x="225" y="80"/>
      <point x="276" y="69"/>
      <point x="331" y="69" type="curve" smooth="yes"/>
      <point x="393" y="69"/>
      <point x="444" y="86"/>
      <point x="480" y="125" type="curve" smooth="yes"/>
      <point x="517" y="162"/>
      <point x="536" y="222"/>
      <point x="536" y="302" type="curve" smooth="yes"/>
      <point x="536" y="361"/>
      <point x="525" y="416"/>
      <point x="498" y="456" type="curve" smooth="yes"/>
      <point x="470" y="496"/>
      <point x="427" y="519"/>
      <point x="365" y="519" type="curve" smooth="yes"/>
    </contour>
  </outline>
</glyph>
<glyph name="c" format="1">
  <advance width="700"/>
  <unicode hex="0063"/>
  <note>
	c
  </note>
  <outline>
    <contour>
      <point x="512" y="493" type="line"/>
      <point x="476" y="506"/>
      <point x="434" y="515"/>
      <point x="393" y="515" type="curve" smooth="yes"/>
      <point x="240" y="515"/>
      <point x="167" y="447"/>
      <point x="167" y="291" type="curve" smooth="yes"/>
      <point x="167" y="223"/>
      <point x="189" y="169"/>
      <point x="230" y="132" type="curve" smooth="yes"/>
      <point x="271" y="94"/>
      <point x="328" y="73"/>
      <point x="396" y="73" type="curve" smooth="yes"/>
      <point x="470" y="73"/>
      <point x="543" y="100"/>
      <point x="590" y="141" type="curve"/>
      <point x="631" y="73" type="line"/>
      <point x="609" y="55"/>
      <point x="576" y="34"/>
      <point x="534" y="16" type="curve" smooth="yes"/>
      <point x="491" y="-2"/>
      <point x="438" y="-14"/>
      <point x="378" y="-14" type="curve" smooth="yes"/>
      <point x="276" y="-14"/>
      <point x="199" y="16"/>
      <point x="148" y="70" type="curve" smooth="yes"/>
      <point x="97" y="124"/>
      <point x="70" y="199"/>
      <point x="70" y="291" type="curve" smooth="yes"/>
      <point x="70" y="389"/>
      <point x="98" y="466"/>
      <point x="149" y="518" type="curve" smooth="yes"/>
      <point x="201" y="569"/>
      <point x="275" y="597"/>
      <point x="365" y="597" type="curve" smooth="yes"/>
      <point x="480" y="597"/>
      <point x="547" y="573"/>
      <point x="597" y="548" type="curve"/>
      <point x="596" y="545" type="line"/>
      <point x="596" y="382" type="line"/>
      <point x="512" y="382" type="line"/>
    </contour>
  </outline>
</glyph>
<glyph name="f" format="1">
  <advance width="700"/>
  <unicode hex="0066"/>
  <note>
	f
  </note>
  <outline>
    <contour>
      <point x="103" y="0" type="line"/>
      <point x="103" y="78" type="line"/>
      <point x="241" y="78" type="line"/>
      <point x="241" y="505" type="line"/>
      <point x="103" y="505" type="line"/>
      <point x="103" y="583" type="line"/>
      <point x="241" y="583" type="line"/>
      <point x="241" y="616" type="line" smooth="yes"/>
      <point x="241" y="761"/>
      <point x="321" y="823"/>
      <point x="462" y="823" type="curve" smooth="yes"/>
      <point x="513" y="823"/>
      <point x="549" y="819"/>
      <point x="596" y="800" type="curve"/>
      <point x="575" y="724" type="line"/>
      <point x="534" y="742"/>
      <point x="497" y="745"/>
      <point x="465" y="745" type="curve" smooth="yes"/>
      <point x="363" y="745"/>
      <point x="332" y="698"/>
      <point x="332" y="583" type="curve"/>
      <point x="574" y="583" type="line"/>
      <point x="574" y="505" type="line"/>
      <point x="332" y="505" type="line"/>
      <point x="332" y="78" type="line"/>
      <point x="574" y="78" type="line"/>
      <point x="574" y="0" type="line"/>
    </contour>
  </outline>
</glyph>
<glyph name="k" format="1">
  <advance width="700"/>
  <unicode hex="006B"/>
  <note>
	k
  </note>
  <outline>
    <contour>
      <point x="28" y="816" type="line"/>
      <point x="217" y="816" type="line"/>
      <point x="217" y="333" type="line"/>
      <point x="281" y="333" type="line"/>
      <point x="511" y="583" type="line"/>
      <point x="620" y="583" type="line"/>
      <point x="363" y="307" type="line"/>
      <point x="575" y="78" type="line"/>
      <point x="651" y="78" type="line"/>
      <point x="651" y="0" type="line"/>
      <point x="531" y="0" type="line"/>
      <point x="281" y="264" type="line"/>
      <point x="217" y="264" type="line"/>
      <point x="217" y="0" type="line"/>
      <point x="127" y="0" type="line"/>
      <point x="127" y="738" type="line"/>
      <point x="28" y="738" type="line"/>
    </contour>
  </outline>
</glyph>
<glyph name="n" format="1">
  <advance width="700"/>
  <unicode hex="006E"/>
  <note>
	n
  </note>
  <outline>
    <contour>
      <point x="108" y="379" type="line" smooth="yes"/>
      <point x="108" y="393"/>
      <point x="107" y="417"/>
      <point x="106" y="442" type="curve" smooth="yes"/>
      <point x="105" y="465"/>
      <point x="103" y="490"/>
      <point x="99" y="507" type="curve"/>
      <point x="21" y="507" type="line"/>
      <point x="21" y="583" type="line"/>
      <point x="177" y="583" type="line"/>
      <point x="188" y="489" type="line"/>
      <point x="194" y="489" type="line"/>
      <point x="209" y="515"/>
      <point x="236" y="542"/>
      <point x="269" y="563" type="curve" smooth="yes"/>
      <point x="303" y="584"/>
      <point x="346" y="597"/>
      <point x="393" y="597" type="curve" smooth="yes"/>
      <point x="464" y="597"/>
      <point x="520" y="584"/>
      <point x="557" y="545" type="curve" smooth="yes"/>
      <point x="593" y="505"/>
      <point x="612" y="438"/>
      <point x="612" y="335" type="curve" smooth="yes"/>
      <point x="612" y="0" type="line"/>
      <point x="521" y="0" type="line"/>
      <point x="521" y="317" type="line" smooth="yes"/>
      <point x="521" y="447"/>
      <point x="486" y="512"/>
      <point x="375" y="512" type="curve" smooth="yes"/>
      <point x="335" y="512"/>
      <point x="296" y="494"/>
      <point x="265" y="468" type="curve" smooth="yes"/>
      <point x="233" y="441"/>
      <point x="209" y="405"/>
      <point x="198" y="366" type="curve"/>
      <point x="198" y="0" type="line"/>
      <point x="108" y="0" type="line"/>
    </contour>
  </outline>
</glyph>
<glyph name="q" format="1">
  <advance width="700"/>
  <unicode hex="0071"/>
  <note>
	q
  </note>
  <outline>
    <contour>
      <point x="600" y="-233" type="line"/>
      <point x="510" y="-233" type="line"/>
      <point x="510" y="65" type="line"/>
      <point x="505" y="65" type="line"/>
      <point x="469" y="14"/>
      <point x="416" y="-14"/>
      <point x="328" y="-14" type="curve" smooth="yes"/>
      <point x="150" y="-14"/>
      <point x="70" y="82"/>
      <point x="70" y="290" type="curve" smooth="yes"/>
      <point x="70" y="490"/>
      <point x="176" y="592"/>
      <point x="385" y="592" type="curve" smooth="yes"/>
      <point x="477" y="592"/>
      <point x="563" y="574"/>
      <point x="600" y="556" type="curve"/>
    </contour>
    <contour>
      <point x="434" y="64"/>
      <point x="490" y="113"/>
      <point x="510" y="210" type="curve"/>
      <point x="510" y="491" type="line"/>
      <point x="476" y="508"/>
      <point x="428" y="514"/>
      <point x="367" y="514" type="curve" smooth="yes"/>
      <point x="243" y="514"/>
      <point x="167" y="445"/>
      <point x="167" y="291" type="curve" smooth="yes"/>
      <point x="167" y="225"/>
      <point x="177" y="169"/>
      <point x="205" y="128" type="curve" smooth="yes"/>
      <point x="233" y="87"/>
      <point x="276" y="64"/>
      <point x="342" y="64" type="curve" smooth="yes"/>
    </contour>
  </outline>
</glyph>
<glyph name="t" format="1">
  <advance width="700"/>
  <unicode hex="0074"/>
  <note>
	t
  </note>
  <outline>
    <contour>
      <point x="36" y="583" type="line"/>
      <point x="175" y="583" type="line"/>
      <point x="175" y="698" type="line"/>
      <point x="266" y="724" type="line"/>
      <point x="266" y="583" type="line"/>
      <point x="577" y="583" type="line"/>
      <point x="577" y="505" type="line"/>
      <point x="266" y="505" type="line"/>
      <point x="266" y="230" type="line" smooth="yes"/>
      <point x="266" y="117"/>
      <point x="323" y="63"/>
      <point x="426" y="63" type="curve" smooth="yes"/>
      <point x="496" y="63"/>
      <point x="546" y="94"/>
      <point x="588" y="126" type="curve"/>
      <point x="618" y="57" type="line"/>
      <point x="563" y="14"/>
      <point x="484" y="-15"/>
      <point x="405" y="-15" type="curve" smooth="yes"/>
      <point x="343" y="-15"/>
      <point x="286" y="2"/>
      <point x="244" y="40" type="curve" smooth="yes"/>
      <point x="202" y="77"/>
      <point x="175" y="135"/>
      <point x="175" y="216" type="curve" smooth="yes"/>
      <point x="175" y="505" type="line"/>
      <point x="36" y="505" type="line"/>
    </contour>
  </outline>
</glyph>
<glyph name="v" format="1">
  <advance width="700"/>
  <unicode hex="0076"/>
  <note>
	v
  </note>
  <outline>
    <contour>
      <point x="352" y="113" type="line"/>
      <point x="365" y="113" type="line"/>
      <point x="548" y="583" type="line"/>
      <point x="649" y="583" type="line"/>
      <point x="403" y="0" type="line"/>
      <point x="301" y="0" type="line"/>
      <point x="50" y="583" type="line"/>
      <point x="157" y="583" type="line"/>
    </contour>
  </outline>
</glyph>
<glyph name="z" format="1">
  <advance width="700"/>
  <unicode hex="007A"/>
  <note>
	z
  </note>
  <outline>
    <contour>
      <point x="98" y="78" type="line"/>
      <point x="493" y="505" type="line"/>
      <point x="98" y="505" type="line"/>
      <point x="98" y="583" type="line"/>
      <point x="602" y="583" type="line"/>
      <point x="602" y="505" type="line"/>
      <point x="203" y="78" type="line"/>
      <point x="602" y="78" type="line"/>
      <point x="602" y="0" type="line"/>
      <point x="98" y="0" type="line"/>
    </contour>
  </outline>
</glyph>
<glyph name="braceleft" format="1">
  <advance width="700"/>
  <unicode hex="007B"/>
  <note>
	braceleft
  </note>
  <outline>
    <contour>
      <point x="257" y="37" type="line" smooth="yes"/>
      <point x="257" y="104"/>
      <point x="231" y="153"/>
      <point x="198" y="185" type="curve" smooth="yes"/>
      <point x="164" y="218"/>
      <point x="122" y="233"/>
      <point x="93" y="233" type="curve"/>
      <point x="93" y="315" type="line"/>
      <point x="122" y="315"/>
      <point x="164" y="328"/>
      <point x="198" y="358" type="curve" smooth="yes"/>
      <point x="231" y="388"/>
      <point x="257" y="435"/>
      <point x="257" y="506" type="curve" smooth="yes"/>
      <point x="257" y="625" type="line" smooth="yes"/>
      <point x="257" y="681"/>
      <point x="275" y="729"/>
      <point x="308" y="763" type="curve" smooth="yes"/>
      <point x="339" y="796"/>
      <point x="385" y="817"/>
      <point x="437" y="817" type="curve" smooth="yes"/>
      <point x="606" y="817" type="line"/>
      <point x="606" y="736" type="line"/>
      <point x="478" y="736" type="line" smooth="yes"/>
      <point x="380" y="736"/>
      <point x="347" y="689"/>
      <point x="347" y="597" type="curve" smooth="yes"/>
      <point x="347" y="484" type="line" smooth="yes"/>
      <point x="347" y="420"/>
      <point x="321" y="370"/>
      <point x="288" y="337" type="curve" smooth="yes"/>
      <point x="255" y="303"/>
      <point x="218" y="283"/>
      <point x="196" y="280" type="curve"/>
      <point x="196" y="273" type="line"/>
      <point x="216" y="269"/>
      <point x="254" y="248"/>
      <point x="287" y="212" type="curve" smooth="yes"/>
      <point x="319" y="175"/>
      <point x="347" y="125"/>
      <point x="347" y="64" type="curve" smooth="yes"/>
      <point x="347" y="-48" type="line" smooth="yes"/>
      <point x="347" y="-142"/>
      <point x="385" y="-187"/>
      <point x="479" y="-187" type="curve" smooth="yes"/>
      <point x="606" y="-187" type="line"/>
      <point x="606" y="-268" type="line"/>
      <point x="437" y="-268" type="line" smooth="yes"/>
      <point x="329" y="-268"/>
      <point x="257" y="-203"/>
      <point x="257" y="-77" type="curve" smooth="yes"/>
    </contour>
  </outline>
</glyph>
<glyph name="bar" format="1">
  <advance width="700"/>
  <unicode hex="007C"/>
  <note>
	bar
  </note>
  <outline>
    <contour>
      <point x="310" y="816" type="line"/>
      <point x="389" y="816" type="line"/>
      <point x="389" y="-152" type="line"/>
      <point x="310" y="-152" type="line"/>
    </contour>
  </outline>
</glyph>
<glyph name="braceright" format="1">
  <advance width="700"/>
  <unicode hex="007D"/>
  <note>
	braceright
  </note>
  <outline>
    <contour>
      <point x="443" y="-77" type="line" smooth="yes"/>
      <point x="443" y="-203"/>
      <point x="371" y="-268"/>
      <point x="262" y="-268" type="curve" smooth="yes"/>
      <point x="93" y="-268" type="line"/>
      <point x="93" y="-187" type="line"/>
      <point x="220" y="-187" type="line" smooth="yes"/>
      <point x="315" y="-187"/>
      <point x="352" y="-142"/>
      <point x="352" y="-48" type="curve" smooth="yes"/>
      <point x="352" y="64" type="line" smooth="yes"/>
      <point x="352" y="125"/>
      <point x="379" y="175"/>
      <point x="412" y="212" type="curve" smooth="yes"/>
      <point x="444" y="248"/>
      <point x="482" y="269"/>
      <point x="504" y="273" type="curve"/>
      <point x="504" y="280" type="line"/>
      <point x="482" y="283"/>
      <point x="444" y="303"/>
      <point x="412" y="337" type="curve" smooth="yes"/>
      <point x="379" y="370"/>
      <point x="352" y="420"/>
      <point x="352" y="484" type="curve" smooth="yes"/>
      <point x="352" y="597" type="line" smooth="yes"/>
      <point x="352" y="689"/>
      <point x="319" y="736"/>
      <point x="222" y="736" type="curve" smooth="yes"/>
      <point x="93" y="736" type="line"/>
      <point x="93" y="817" type="line"/>
      <point x="262" y="817" type="line" smooth="yes"/>
      <point x="315" y="817"/>
      <point x="360" y="796"/>
      <point x="393" y="763" type="curve" smooth="yes"/>
      <point x="424" y="729"/>
      <point x="443" y="681"/>
      <point x="443" y="625" type="curve" smooth="yes"/>
      <point x="443" y="506" type="line" smooth="yes"/>
      <point x="443" y="435"/>
      <point x="469" y="388"/>
      <point x="503" y="358" type="curve" smooth="yes"/>
      <point x="535" y="328"/>
      <point x="577" y="315"/>
      <point x="606" y="315" type="curve"/>
      <point x="606" y="233" type="line"/>
      <point x="577" y="233"/>
      <point x="535" y="218"/>
      <point x="503" y="185" type="curve" smooth="yes"/>
      <point x="469" y="153"/>
      <point x="443" y="104"/>
      <point x="443" y="37" type="curve" smooth="yes"/>
    </contour>
  </outline>
</glyph>
<glyph name="asciitilde" format="1">
  <advance width="700"/>
  <unicode hex="007E"/>
  <note>
	asciitilde
  </note>
  <outline>
    <contour>
      <point x="91" y="421" type="line"/>
      <point x="157" y="472"/>
      <point x="211" y="490"/>
      <point x="257" y="490" type="curve" smooth="yes"/>
      <point x="300" y="490"/>
      <point x="337" y="475"/>
      <point x="371" y="458" type="curve" smooth="yes"/>
      <point x="405" y="442"/>
      <point x="436" y="426"/>
      <point x="472" y="426" type="curve" smooth="yes"/>
      <point x="501" y="426"/>
      <point x="532" y="436"/>
      <point x="568" y="468" type="curve"/>
      <point x="607" y="396" type="line"/>
      <point x="548" y="356"/>
      <point x="501" y="342"/>
      <point x="463" y="342" type="curve" smooth="yes"/>
      <point x="421" y="342"/>
      <point x="387" y="358"/>
      <point x="356" y="374" type="curve" smooth="yes"/>
      <point x="323" y="391"/>
      <point x="293" y="406"/>
      <point x="255" y="406" type="curve" smooth="yes"/>
      <point x="219" y="406"/>
      <point x="181" y="392"/>
      <point x="131" y="351" type="curve"/>
    </contour>
  </outline>
</glyph>
<glyph name="exclamdown" format="1">
  <advance width="700"/>
  <unicode hex="00A1"/>
  <note>
	exclamdown
  </note>
  <outline>
    <contour>
      <point x="398" y="-233" type="line"/>
      <point x="301" y="-233" type="line"/>
      <point x="301" y="171" type="line"/>
      <point x="321" y="377" type="line"/>
      <point x="378" y="377" type="line"/>
      <point x="398" y="171" type="line"/>
    </contour>
    <contour>
      <point x="282" y="570"/>
      <point x="308" y="596"/>
      <point x="349" y="596" type="curve" smooth="yes"/>
      <point x="391" y="596"/>
      <point x="417" y="570"/>
      <point x="417" y="528" type="curve" smooth="yes"/>
      <point x="417" y="487"/>
      <point x="391" y="461"/>
      <point x="349" y="461" type="curve" smooth="yes"/>
      <point x="308" y="461"/>
      <point x="282" y="487"/>
      <point x="282" y="528" type="curve" smooth="yes"/>
    </contour>
  </outline>
</glyph>
<glyph name="cent" format="1">
  <advance width="700"/>
  <unicode hex="00A2"/>
  <note>
	cent
  </note>
  <outline>
    <contour>
      <point x="603" y="34" type="line"/>
      <point x="584" y="20"/>
      <point x="555" y="9"/>
      <point x="524" y="1" type="curve" smooth="yes"/>
      <point x="492" y="-7"/>
      <point x="457" y="-10"/>
      <point x="428" y="-10" type="curve"/>
      <point x="428" y="-117" type="line"/>
      <point x="345" y="-117" type="line"/>
      <point x="345" y="-12" type="line"/>
      <point x="190" y="3"/>
      <point x="97" y="119"/>
      <point x="97" y="291" type="curve" smooth="yes"/>
      <point x="97" y="380"/>
      <point x="125" y="451"/>
      <point x="170" y="503" type="curve" smooth="yes"/>
      <point x="216" y="554"/>
      <point x="276" y="584"/>
      <point x="345" y="593" type="curve"/>
      <point x="345" y="700" type="line"/>
      <point x="428" y="700" type="line"/>
      <point x="428" y="596" type="line"/>
      <point x="497" y="596"/>
      <point x="559" y="574"/>
      <point x="592" y="556" type="curve"/>
      <point x="566" y="477" type="line"/>
      <point x="550" y="485"/>
      <point x="527" y="493"/>
      <point x="500" y="501" type="curve" smooth="yes"/>
      <point x="473" y="510"/>
      <point x="444" y="514"/>
      <point x="420" y="514" type="curve"/>
      <point x="420" y="68" type="line"/>
      <point x="444" y="68"/>
      <point x="476" y="72"/>
      <point x="505" y="79" type="curve" smooth="yes"/>
      <point x="534" y="86"/>
      <point x="560" y="96"/>
      <point x="573" y="105" type="curve"/>
    </contour>
    <contour>
      <point x="194" y="240"/>
      <point x="206" y="189"/>
      <point x="234" y="148" type="curve" smooth="yes"/>
      <point x="261" y="107"/>
      <point x="301" y="78"/>
      <point x="357" y="72" type="curve"/>
      <point x="357" y="512" type="line"/>
      <point x="260" y="499"/>
      <point x="194" y="423"/>
      <point x="194" y="291" type="curve" smooth="yes"/>
    </contour>
  </outline>
</glyph>
<glyph name="sterling" format="1">
  <advance width="700"/>
  <unicode hex="00A3"/>
  <note>
	sterling
  </note>
  <outline>
    <contour>
      <point x="90" y="447" type="line"/>
      <point x="167" y="447" type="line"/>
      <point x="148" y="489"/>
      <point x="134" y="533"/>
      <point x="134" y="598" type="curve" smooth="yes"/>
      <point x="134" y="751"/>
      <point x="227" y="830"/>
      <point x="378" y="830" type="curve" smooth="yes"/>
      <point x="472" y="830"/>
      <point x="542" y="815"/>
      <point x="588" y="793" type="curve"/>
      <point x="557" y="710" type="line"/>
      <point x="521" y="728"/>
      <point x="462" y="744"/>
      <point x="377" y="744" type="curve" smooth="yes"/>
      <point x="283" y="744"/>
      <point x="231" y="689"/>
      <point x="231" y="604" type="curve" smooth="yes"/>
      <point x="231" y="539"/>
      <point x="248" y="493"/>
      <point x="271" y="447" type="curve"/>
      <point x="458" y="447" type="line"/>
      <point x="458" y="365" type="line"/>
      <point x="305" y="365" type="line"/>
      <point x="318" y="329"/>
      <point x="326" y="291"/>
      <point x="326" y="245" type="curve" smooth="yes"/>
      <point x="326" y="222"/>
      <point x="324" y="197"/>
      <point x="315" y="170" type="curve" smooth="yes"/>
      <point x="305" y="142"/>
      <point x="288" y="114"/>
      <point x="257" y="86" type="curve"/>
      <point x="610" y="86" type="line"/>
      <point x="610" y="0" type="line"/>
      <point x="90" y="0" type="line"/>
      <point x="90" y="84" type="line"/>
      <point x="140" y="84"/>
      <point x="174" y="104"/>
      <point x="197" y="133" type="curve" smooth="yes"/>
      <point x="219" y="161"/>
      <point x="230" y="199"/>
      <point x="230" y="237" type="curve" smooth="yes"/>
      <point x="230" y="288"/>
      <point x="218" y="328"/>
      <point x="203" y="365" type="curve"/>
      <point x="90" y="365" type="line"/>
    </contour>
  </outline>
</glyph>
<glyph name="currency" format="1">
  <advance width="700"/>
  <unicode hex="00A4"/>
  <note>
	currency
  </note>
  <outline>
    <contour>
      <point x="113" y="695" type="line"/>
      <point x="238" y="571" type="line"/>
      <point x="268" y="592"/>
      <point x="305" y="603"/>
      <point x="349" y="603" type="curve" smooth="yes"/>
      <point x="389" y="603"/>
      <point x="427" y="592"/>
      <point x="459" y="570" type="curve"/>
      <point x="585" y="695" type="line"/>
      <point x="642" y="638" type="line"/>
      <point x="519" y="512" type="line"/>
      <point x="539" y="480"/>
      <point x="549" y="443"/>
      <point x="549" y="402" type="curve" smooth="yes"/>
      <point x="549" y="361"/>
      <point x="539" y="324"/>
      <point x="519" y="293" type="curve"/>
      <point x="642" y="167" type="line"/>
      <point x="585" y="111" type="line"/>
      <point x="462" y="233" type="line"/>
      <point x="430" y="213"/>
      <point x="392" y="203"/>
      <point x="349" y="203" type="curve" smooth="yes"/>
      <point x="304" y="203"/>
      <point x="267" y="213"/>
      <point x="236" y="234" type="curve"/>
      <point x="113" y="111" type="line"/>
      <point x="56" y="167" type="line"/>
      <point x="178" y="291" type="line"/>
      <point x="159" y="323"/>
      <point x="149" y="360"/>
      <point x="149" y="402" type="curve" smooth="yes"/>
      <point x="149" y="443"/>
      <point x="161" y="480"/>
      <point x="180" y="513" type="curve"/>
      <point x="56" y="638" type="line"/>
    </contour>
    <contour>
      <point x="230" y="332"/>
      <point x="279" y="280"/>
      <point x="349" y="280" type="curve" smooth="yes"/>
      <point x="419" y="280"/>
      <point x="469" y="332"/>
      <point x="469" y="402" type="curve" smooth="yes"/>
      <point x="469" y="472"/>
      <point x="419" y="526"/>
      <point x="349" y="526" type="curve" smooth="yes"/>
      <point x="279" y="526"/>
      <point x="230" y="472"/>
      <point x="230" y="402" type="curve" smooth="yes"/>
    </contour>
  </outline>
</glyph>
<glyph name="yen" format="1">
  <advance width="700"/>
  <unicode hex="00A5"/>
  <note>
	yen
  </note>
  <outline>
    <contour>
      <point x="160" y="382" type="line"/>
      <point x="269" y="382" type="line"/>
      <point x="33" y="816" type="line"/>
      <point x="146" y="816" type="line"/>
      <point x="354" y="420" type="line"/>
      <point x="360" y="420" type="line"/>
      <point x="562" y="816" type="line"/>
      <point x="666" y="816" type="line"/>
      <point x="429" y="382" type="line"/>
      <point x="541" y="382" type="line"/>
      <point x="541" y="312" type="line"/>
      <point x="399" y="312" type="line"/>
      <point x="399" y="230" type="line"/>
      <point x="541" y="230" type="line"/>
      <point x="541" y="160" type="line"/>
      <point x="399" y="160" type="line"/>
      <point x="399" y="0" type="line"/>
      <point x="302" y="0" type="line"/>
      <point x="302" y="160" type="line"/>
      <point x="160" y="160" type="line"/>
      <point x="160" y="230" type="line"/>
      <point x="302" y="230" type="line"/>
      <point x="302" y="312" type="line"/>
      <point x="160" y="312" type="line"/>
    </contour>
  </outline>
</glyph>
<glyph name="brokenbar" format="1">
  <advance width="700"/>
  <unicode hex="00A6"/>
  <note>
	brokenbar
  </note>
  <outline>
    <contour>
      <point x="310" y="240" type="line"/>
      <point x="389" y="240" type="line"/>
      <point x="389" y="-152" type="line"/>
      <point x="310" y="-152" type="line"/>
    </contour>
    <contour>
      <point x="389" y="424" type="line"/>
      <point x="310" y="424" type="line"/>
      <point x="310" y="816" type="line"/>
      <point x="389" y="816" type="line"/>
    </contour>
  </outline>
</glyph>
<glyph name="section" format="1">
  <advance width="700"/>
  <unicode hex="00A7"/>
  <note>
	section
  </note>
  <outline>
    <contour>
      <point x="126" y="435"/>
      <point x="133" y="464"/>
      <point x="149" y="492" type="curve" smooth="yes"/>
      <point x="166" y="520"/>
      <point x="190" y="548"/>
      <point x="231" y="568" type="curve"/>
      <point x="199" y="590"/>
      <point x="169" y="619"/>
      <point x="169" y="683" type="curve" smooth="yes"/>
      <point x="169" y="771"/>
      <point x="237" y="830"/>
      <point x="352" y="830" type="curve" smooth="yes"/>
      <point x="436" y="830"/>
      <point x="492" y="814"/>
      <point x="534" y="794" type="curve"/>
      <point x="512" y="716" type="line"/>
      <point x="475" y="733"/>
      <point x="421" y="749"/>
      <point x="365" y="749" type="curve" smooth="yes"/>
      <point x="295" y="749"/>
      <point x="262" y="722"/>
      <point x="262" y="680" type="curve" smooth="yes"/>
      <point x="262" y="639"/>
      <point x="296" y="620"/>
      <point x="343" y="603" type="curve" smooth="yes"/>
      <point x="366" y="595"/>
      <point x="391" y="585"/>
      <point x="417" y="577" type="curve" smooth="yes"/>
      <point x="470" y="560"/>
      <point x="520" y="535"/>
      <point x="550" y="491" type="curve" smooth="yes"/>
      <point x="566" y="469"/>
      <point x="573" y="440"/>
      <point x="573" y="405" type="curve" smooth="yes"/>
      <point x="573" y="357"/>
      <point x="552" y="295"/>
      <point x="468" y="248" type="curve"/>
      <point x="510" y="224"/>
      <point x="529" y="197"/>
      <point x="529" y="133" type="curve" smooth="yes"/>
      <point x="529" y="85"/>
      <point x="510" y="48"/>
      <point x="477" y="23" type="curve" smooth="yes"/>
      <point x="443" y="-1"/>
      <point x="396" y="-14"/>
      <point x="345" y="-14" type="curve" smooth="yes"/>
      <point x="258" y="-14"/>
      <point x="206" y="2"/>
      <point x="163" y="24" type="curve"/>
      <point x="187" y="100" type="line"/>
      <point x="223" y="83"/>
      <point x="274" y="68"/>
      <point x="333" y="68" type="curve" smooth="yes"/>
      <point x="399" y="68"/>
      <point x="436" y="86"/>
      <point x="436" y="136" type="curve" smooth="yes"/>
      <point x="436" y="177"/>
      <point x="402" y="197"/>
      <point x="356" y="215" type="curve" smooth="yes"/>
      <point x="332" y="223"/>
      <point x="308" y="232"/>
      <point x="281" y="240" type="curve" smooth="yes"/>
      <point x="229" y="258"/>
      <point x="180" y="283"/>
      <point x="149" y="326" type="curve" smooth="yes"/>
      <point x="134" y="349"/>
      <point x="126" y="377"/>
      <point x="126" y="412" type="curve" smooth="yes"/>
    </contour>
    <contour>
      <point x="479" y="441"/>
      <point x="457" y="464"/>
      <point x="424" y="483" type="curve"/>
      <point x="407" y="491"/>
      <point x="388" y="499"/>
      <point x="367" y="506" type="curve"/>
      <point x="346" y="512"/>
      <point x="325" y="519"/>
      <point x="304" y="527" type="curve"/>
      <point x="259" y="507"/>
      <point x="219" y="470"/>
      <point x="219" y="414" type="curve" smooth="yes"/>
      <point x="219" y="375"/>
      <point x="241" y="352"/>
      <point x="274" y="335" type="curve"/>
      <point x="289" y="325"/>
      <point x="308" y="317"/>
      <point x="329" y="311" type="curve" smooth="yes"/>
      <point x="349" y="305"/>
      <point x="370" y="298"/>
      <point x="391" y="290" type="curve"/>
      <point x="413" y="300"/>
      <point x="434" y="316"/>
      <point x="451" y="336" type="curve" smooth="yes"/>
      <point x="469" y="354"/>
      <point x="479" y="378"/>
      <point x="479" y="402" type="curve" smooth="yes"/>
    </contour>
  </outline>
</glyph>
<glyph name="copyright" format="1">
  <advance width="700"/>
  <unicode hex="00A9"/>
  <note>
	copyright
  </note>
  <outline>
    <contour>
      <point x="50" y="437"/>
      <point x="84" y="512"/>
      <point x="139" y="563" type="curve" smooth="yes"/>
      <point x="194" y="614"/>
      <point x="267" y="642"/>
      <point x="350" y="642" type="curve" smooth="yes"/>
      <point x="430" y="642"/>
      <point x="507" y="614"/>
      <point x="561" y="563" type="curve" smooth="yes"/>
      <point x="614" y="512"/>
      <point x="648" y="437"/>
      <point x="648" y="344" type="curve" smooth="yes"/>
      <point x="648" y="251"/>
      <point x="614" y="176"/>
      <point x="561" y="125" type="curve" smooth="yes"/>
      <point x="507" y="73"/>
      <point x="430" y="45"/>
      <point x="350" y="45" type="curve" smooth="yes"/>
      <point x="258" y="45"/>
      <point x="184" y="73"/>
      <point x="132" y="125" type="curve" smooth="yes"/>
      <point x="79" y="176"/>
      <point x="50" y="251"/>
      <point x="50" y="344" type="curve" smooth="yes"/>
    </contour>
    <contour>
      <point x="112" y="266"/>
      <point x="138" y="205"/>
      <point x="181" y="164" type="curve" smooth="yes"/>
      <point x="223" y="122"/>
      <point x="283" y="101"/>
      <point x="350" y="101" type="curve" smooth="yes"/>
      <point x="416" y="101"/>
      <point x="476" y="122"/>
      <point x="519" y="164" type="curve" smooth="yes"/>
      <point x="561" y="205"/>
      <point x="586" y="266"/>
      <point x="586" y="344" type="curve" smooth="yes"/>
      <point x="586" y="422"/>
      <point x="561" y="482"/>
      <point x="519" y="524" type="curve" smooth="yes"/>
      <point x="476" y="564"/>
      <point x="416" y="586"/>
      <point x="350" y="586" type="curve" smooth="yes"/>
      <point x="283" y="586"/>
      <point x="223" y="564"/>
      <point x="181" y="524" type="curve" smooth="yes"/>
      <point x="138" y="482"/>
      <point x="112" y="422"/>
      <point x="112" y="344" type="curve" smooth="yes"/>
    </contour>
    <contour>
      <point x="450" y="206" type="line"/>
      <point x="423" y="191"/>
      <point x="391" y="183"/>
      <point x="350" y="183" type="curve" smooth="yes"/>
      <point x="258" y="183"/>
      <point x="209" y="245"/>
      <point x="209" y="344" type="curve" smooth="yes"/>
      <point x="209" y="447"/>
      <point x="265" y="505"/>
      <point x="350" y="505" type="curve" smooth="yes"/>
      <point x="391" y="505"/>
      <point x="410" y="497"/>
      <point x="444" y="482" type="curve"/>
      <point x="422" y="422" type="line"/>
      <point x="396" y="434"/>
      <point x="375" y="440"/>
      <point x="358" y="440" type="curve" smooth="yes"/>
      <point x="309" y="440"/>
      <point x="285" y="408"/>
      <point x="285" y="344" type="curve" smooth="yes"/>
      <point x="285" y="279"/>
      <point x="315" y="248"/>
      <point x="365" y="248" type="curve" smooth="yes"/>
      <point x="393" y="248"/>
      <point x="414" y="254"/>
      <point x="433" y="265" type="curve"/>
    </contour>
  </outline>
</glyph>
<glyph name="ordfeminine" format="1">
  <advance width="700"/>
  <unicode hex="00AA"/>
  <note>
	ordfeminine
  </note>
  <outline>
    <contour>
      <point x="204" y="789" type="line"/>
      <point x="243" y="809"/>
      <point x="309" y="826"/>
      <point x="387" y="826" type="curve" smooth="yes"/>
      <point x="484" y="826"/>
      <point x="513" y="784"/>
      <point x="513" y="708" type="curve" smooth="yes"/>
      <point x="513" y="679"/>
      <point x="513" y="649"/>
      <point x="512" y="623" type="curve" smooth="yes"/>
      <point x="511" y="596"/>
      <point x="510" y="569"/>
      <point x="510" y="545" type="curve" smooth="yes"/>
      <point x="510" y="507"/>
      <point x="511" y="472"/>
      <point x="519" y="443" type="curve"/>
      <point x="455" y="443" type="line"/>
      <point x="440" y="497" type="line"/>
      <point x="435" y="497" type="line"/>
      <point x="415" y="470"/>
      <point x="380" y="438"/>
      <point x="314" y="438" type="curve" smooth="yes"/>
      <point x="233" y="438"/>
      <point x="181" y="480"/>
      <point x="181" y="549" type="curve" smooth="yes"/>
      <point x="181" y="597"/>
      <point x="206" y="630"/>
      <point x="246" y="649" type="curve" smooth="yes"/>
      <point x="286" y="669"/>
      <point x="340" y="679"/>
      <point x="402" y="679" type="curve" smooth="yes"/>
      <point x="408" y="679"/>
      <point x="413" y="679"/>
      <point x="419" y="679" type="curve"/>
      <point x="423" y="677"/>
      <point x="428" y="677"/>
      <point x="434" y="677" type="curve"/>
      <point x="435" y="682"/>
      <point x="435" y="687"/>
      <point x="435" y="691" type="curve" smooth="yes"/>
      <point x="435" y="695"/>
      <point x="435" y="700"/>
      <point x="435" y="703" type="curve" smooth="yes"/>
      <point x="435" y="745"/>
      <point x="420" y="760"/>
      <point x="367" y="760" type="curve" smooth="yes"/>
      <point x="305" y="760"/>
      <point x="251" y="746"/>
      <point x="222" y="731" type="curve"/>
    </contour>
    <contour>
      <point x="359" y="504"/>
      <point x="382" y="512"/>
      <point x="400" y="526" type="curve"/>
      <point x="417" y="539"/>
      <point x="428" y="554"/>
      <point x="434" y="568" type="curve"/>
      <point x="434" y="617" type="line"/>
      <point x="426" y="618"/>
      <point x="417" y="618"/>
      <point x="409" y="618" type="curve" smooth="yes"/>
      <point x="401" y="618"/>
      <point x="393" y="618"/>
      <point x="385" y="618" type="curve" smooth="yes"/>
      <point x="352" y="618"/>
      <point x="322" y="616"/>
      <point x="300" y="606" type="curve" smooth="yes"/>
      <point x="276" y="597"/>
      <point x="262" y="582"/>
      <point x="262" y="555" type="curve" smooth="yes"/>
      <point x="262" y="524"/>
      <point x="286" y="504"/>
      <point x="326" y="504" type="curve" smooth="yes"/>
    </contour>
  </outline>
</glyph>
<glyph name="guillemotleft" format="1">
  <advance width="700"/>
  <unicode hex="00AB"/>
  <note>
	guillemotleft
  </note>
  <outline>
    <contour>
      <point x="58" y="308" type="line"/>
      <point x="286" y="604" type="line"/>
      <point x="353" y="548" type="line"/>
      <point x="171" y="312" type="line"/>
      <point x="361" y="80" type="line"/>
      <point x="295" y="23" type="line"/>
    </contour>
    <contour>
      <point x="338" y="308" type="line"/>
      <point x="566" y="604" type="line"/>
      <point x="633" y="548" type="line"/>
      <point x="451" y="312" type="line"/>
      <point x="641" y="80" type="line"/>
      <point x="575" y="23" type="line"/>
    </contour>
  </outline>
</glyph>
<glyph name="logicalnot" format="1">
  <advance width="700"/>
  <unicode hex="00AC"/>
  <note>
	logicalnot
  </note>
  <outline>
    <contour>
      <point x="103" y="457" type="line"/>
      <point x="597" y="457" type="line"/>
      <point x="597" y="233" type="line"/>
      <point x="513" y="233" type="line"/>
      <point x="513" y="373" type="line"/>
      <point x="103" y="373" type="line"/>
    </contour>
  </outline>
</glyph>
<glyph name="registered" format="1">
  <advance width="700"/>
  <unicode hex="00AE"/>
  <note>
	registered
  </note>
  <outline>
    <contour>
      <point x="41" y="625"/>
      <point x="76" y="703"/>
      <point x="133" y="756" type="curve" smooth="yes"/>
      <point x="189" y="807"/>
      <point x="266" y="835"/>
      <point x="350" y="835" type="curve" smooth="yes"/>
      <point x="435" y="835"/>
      <point x="513" y="807"/>
      <point x="569" y="756" type="curve" smooth="yes"/>
      <point x="625" y="703"/>
      <point x="659" y="625"/>
      <point x="659" y="526" type="curve" smooth="yes"/>
      <point x="659" y="427"/>
      <point x="624" y="349"/>
      <point x="568" y="297" type="curve" smooth="yes"/>
      <point x="511" y="245"/>
      <point x="434" y="217"/>
      <point x="350" y="217" type="curve" smooth="yes"/>
      <point x="262" y="217"/>
      <point x="187" y="245"/>
      <point x="131" y="297" type="curve" smooth="yes"/>
      <point x="75" y="349"/>
      <point x="41" y="427"/>
      <point x="41" y="526" type="curve" smooth="yes"/>
    </contour>
    <contour>
      <point x="114" y="445"/>
      <point x="141" y="386"/>
      <point x="184" y="346" type="curve" smooth="yes"/>
      <point x="226" y="307"/>
      <point x="286" y="286"/>
      <point x="350" y="286" type="curve" smooth="yes"/>
      <point x="416" y="286"/>
      <point x="476" y="305"/>
      <point x="518" y="345" type="curve" smooth="yes"/>
      <point x="560" y="385"/>
      <point x="585" y="443"/>
      <point x="585" y="526" type="curve" smooth="yes"/>
      <point x="585" y="606"/>
      <point x="559" y="667"/>
      <point x="517" y="707" type="curve" smooth="yes"/>
      <point x="473" y="746"/>
      <point x="415" y="766"/>
      <point x="350" y="766" type="curve" smooth="yes"/>
      <point x="281" y="766"/>
      <point x="223" y="746"/>
      <point x="181" y="707" type="curve" smooth="yes"/>
      <point x="139" y="667"/>
      <point x="114" y="606"/>
      <point x="114" y="526" type="curve" smooth="yes"/>
    </contour>
    <contour>
      <point x="230" y="677" type="line"/>
      <point x="254" y="686"/>
      <point x="305" y="689"/>
      <point x="346" y="689" type="curve" smooth="yes"/>
      <point x="412" y="689"/>
      <point x="465" y="665"/>
      <point x="465" y="598" type="curve" smooth="yes"/>
      <point x="465" y="574"/>
      <point x="456" y="556"/>
      <point x="443" y="543" type="curve"/>
      <point x="430" y="529"/>
      <point x="415" y="522"/>
      <point x="401" y="519" type="curve"/>
      <point x="501" y="375" type="line"/>
      <point x="430" y="375" type="line"/>
      <point x="339" y="497" type="line"/>
      <point x="290" y="497" type="line"/>
      <point x="290" y="375" type="line"/>
      <point x="230" y="375" type="line"/>
    </contour>
    <contour>
      <point x="316" y="637"/>
      <point x="300" y="637"/>
      <point x="290" y="632" type="curve"/>
      <point x="290" y="546" type="line"/>
      <point x="330" y="546" type="line" smooth="yes"/>
      <point x="378" y="546"/>
      <point x="401" y="562"/>
      <point x="401" y="596" type="curve" smooth="yes"/>
      <point x="401" y="623"/>
      <point x="379" y="637"/>
      <point x="333" y="637" type="curve" smooth="yes"/>
    </contour>
  </outline>
</glyph>
<glyph name="macron" format="1">
  <advance width="700"/>
  <unicode hex="00AF"/>
  <note>
	macron
  </note>
  <outline>
    <contour>
      <point x="177" y="750" type="line"/>
      <point x="522" y="750" type="line"/>
      <point x="522" y="677" type="line"/>
      <point x="177" y="677" type="line"/>
    </contour>
  </outline>
</glyph>
<glyph name="degree" format="1">
  <advance width="700"/>
  <unicode hex="00B0"/>
  <note>
	degree
  </note>
  <outline>
    <contour>
      <point x="185" y="714"/>
      <point x="204" y="756"/>
      <point x="233" y="785" type="curve" smooth="yes"/>
      <point x="262" y="813"/>
      <point x="304" y="830"/>
      <point x="350" y="830" type="curve" smooth="yes"/>
      <point x="395" y="830"/>
      <point x="437" y="815"/>
      <point x="466" y="787" type="curve" smooth="yes"/>
      <point x="496" y="758"/>
      <point x="514" y="717"/>
      <point x="514" y="666" type="curve" smooth="yes"/>
      <point x="514" y="614"/>
      <point x="496" y="574"/>
      <point x="466" y="546" type="curve" smooth="yes"/>
      <point x="437" y="517"/>
      <point x="395" y="501"/>
      <point x="350" y="501" type="curve" smooth="yes"/>
      <point x="304" y="501"/>
      <point x="262" y="517"/>
      <point x="233" y="546" type="curve" smooth="yes"/>
      <point x="204" y="574"/>
      <point x="185" y="614"/>
      <point x="185" y="666" type="curve" smooth="yes"/>
    </contour>
    <contour>
      <point x="259" y="606"/>
      <point x="302" y="571"/>
      <point x="350" y="571" type="curve" smooth="yes"/>
      <point x="398" y="571"/>
      <point x="441" y="606"/>
      <point x="441" y="666" type="curve" smooth="yes"/>
      <point x="441" y="725"/>
      <point x="398" y="760"/>
      <point x="350" y="760" type="curve" smooth="yes"/>
      <point x="302" y="760"/>
      <point x="259" y="725"/>
      <point x="259" y="666" type="curve" smooth="yes"/>
    </contour>
  </outline>
</glyph>
<glyph name="plusminus" format="1">
  <advance width="700"/>
  <unicode hex="00B1"/>
  <note>
	plusminus
  </note>
  <outline>
    <contour>
      <point x="103" y="575" type="line"/>
      <point x="308" y="575" type="line"/>
      <point x="308" y="786" type="line"/>
      <point x="392" y="786" type="line"/>
      <point x="392" y="575" type="line"/>
      <point x="597" y="575" type="line"/>
      <point x="597" y="491" type="line"/>
      <point x="392" y="491" type="line"/>
      <point x="392" y="351" type="line"/>
      <point x="308" y="351" type="line"/>
      <point x="308" y="491" type="line"/>
      <point x="103" y="491" type="line"/>
    </contour>
    <contour>
      <point x="103" y="291" type="line"/>
      <point x="597" y="291" type="line"/>
      <point x="597" y="208" type="line"/>
      <point x="103" y="208" type="line"/>
    </contour>
  </outline>
</glyph>
<glyph name="uni00B2" format="1">
  <advance width="700"/>
  <unicode hex="00B2"/>
  <note>
	twosuperior
  </note>
  <outline>
    <contour>
      <point x="519" y="730"/>
      <point x="484" y="677"/>
      <point x="433" y="632" type="curve" smooth="yes"/>
      <point x="381" y="585"/>
      <point x="316" y="546"/>
      <point x="255" y="517" type="curve"/>
      <point x="542" y="517" type="line"/>
      <point x="542" y="443" type="line"/>
      <point x="133" y="443" type="line"/>
      <point x="133" y="505" type="line"/>
      <point x="157" y="525"/>
      <point x="198" y="550"/>
      <point x="244" y="578" type="curve" smooth="yes"/>
      <point x="289" y="606"/>
      <point x="337" y="639"/>
      <point x="374" y="673" type="curve" smooth="yes"/>
      <point x="412" y="705"/>
      <point x="437" y="740"/>
      <point x="437" y="777" type="curve" smooth="yes"/>
      <point x="437" y="809"/>
      <point x="422" y="831"/>
      <point x="402" y="847" type="curve"/>
      <point x="382" y="861"/>
      <point x="357" y="866"/>
      <point x="333" y="866" type="curve" smooth="yes"/>
      <point x="297" y="866"/>
      <point x="268" y="857"/>
      <point x="243" y="844" type="curve" smooth="yes"/>
      <point x="217" y="831"/>
      <point x="196" y="815"/>
      <point x="183" y="805" type="curve"/>
      <point x="146" y="862" type="line"/>
      <point x="160" y="876"/>
      <point x="185" y="895"/>
      <point x="219" y="912" type="curve" smooth="yes"/>
      <point x="253" y="928"/>
      <point x="297" y="941"/>
      <point x="347" y="941" type="curve" smooth="yes"/>
      <point x="395" y="941"/>
      <point x="440" y="928"/>
      <point x="470" y="902" type="curve" smooth="yes"/>
      <point x="500" y="877"/>
      <point x="519" y="838"/>
      <point x="519" y="787" type="curve" smooth="yes"/>
    </contour>
  </outline>
</glyph>
<glyph name="uni00B3" format="1">
  <advance width="700"/>
  <unicode hex="00B3"/>
  <note>
	threesuperior
  </note>
  <outline>
    <contour>
      <point x="380" y="505"/>
      <point x="427" y="535"/>
      <point x="427" y="592" type="curve" smooth="yes"/>
      <point x="427" y="642"/>
      <point x="392" y="676"/>
      <point x="312" y="676" type="curve" smooth="yes"/>
      <point x="237" y="676" type="line"/>
      <point x="237" y="721" type="line"/>
      <point x="388" y="863" type="line"/>
      <point x="122" y="863" type="line"/>
      <point x="122" y="933" type="line"/>
      <point x="491" y="933" type="line"/>
      <point x="491" y="871" type="line"/>
      <point x="340" y="737" type="line"/>
      <point x="340" y="735" type="line"/>
      <point x="444" y="733"/>
      <point x="508" y="676"/>
      <point x="508" y="592" type="curve" smooth="yes"/>
      <point x="508" y="498"/>
      <point x="434" y="435"/>
      <point x="295" y="435" type="curve" smooth="yes"/>
      <point x="258" y="435"/>
      <point x="213" y="444"/>
      <point x="175" y="459" type="curve" smooth="yes"/>
      <point x="136" y="475"/>
      <point x="101" y="497"/>
      <point x="83" y="524" type="curve"/>
      <point x="125" y="584" type="line"/>
      <point x="135" y="571"/>
      <point x="159" y="553"/>
      <point x="189" y="535" type="curve" smooth="yes"/>
      <point x="219" y="518"/>
      <point x="258" y="505"/>
      <point x="305" y="505" type="curve" smooth="yes"/>
    </contour>
  </outline>
</glyph>
<glyph name="acute" format="1">
  <advance width="700"/>
  <unicode hex="00B4"/>
  <note>
	acute
  </note>
  <outline>
    <contour>
      <point x="304" y="840" type="line"/>
      <point x="431" y="840" type="line"/>
      <point x="293" y="666" type="line"/>
      <point x="229" y="666" type="line"/>
    </contour>
  </outline>
</glyph>
<glyph name="paragraph" format="1">
  <advance width="700"/>
  <unicode hex="00B6"/>
  <note>
	paragraph
  </note>
  <outline>
    <contour>
      <point x="487" y="816" type="line"/>
      <point x="567" y="816" type="line"/>
      <point x="567" y="-152" type="line"/>
      <point x="487" y="-152" type="line"/>
    </contour>
    <contour>
      <point x="305" y="361" type="line"/>
      <point x="255" y="361"/>
      <point x="213" y="389"/>
      <point x="183" y="433" type="curve" smooth="yes"/>
      <point x="153" y="475"/>
      <point x="133" y="533"/>
      <point x="133" y="590" type="curve" smooth="yes"/>
      <point x="133" y="647"/>
      <point x="152" y="704"/>
      <point x="185" y="746" type="curve" smooth="yes"/>
      <point x="219" y="788"/>
      <point x="271" y="816"/>
      <point x="332" y="816" type="curve" smooth="yes"/>
      <point x="385" y="816" type="line"/>
      <point x="385" y="-152" type="line"/>
      <point x="305" y="-152" type="line"/>
    </contour>
  </outline>
</glyph>
<glyph name="periodcentered" format="1">
  <advance width="700"/>
  <unicode hex="00B7"/>
  <note>
	periodcentered
  </note>
  <outline>
    <contour>
      <point x="272" y="406"/>
      <point x="302" y="434"/>
      <point x="349" y="434" type="curve" smooth="yes"/>
      <point x="399" y="434"/>
      <point x="428" y="406"/>
      <point x="428" y="356" type="curve" smooth="yes"/>
      <point x="428" y="310"/>
      <point x="399" y="278"/>
      <point x="349" y="278" type="curve" smooth="yes"/>
      <point x="302" y="278"/>
      <point x="272" y="310"/>
      <point x="272" y="356" type="curve" smooth="yes"/>
    </contour>
  </outline>
</glyph>
<glyph name="uni00B9" format="1">
  <advance width="700"/>
  <unicode hex="00B9"/>
  <note>
	onesuperior
  </note>
  <outline>
    <contour>
      <point x="156" y="514" type="line"/>
      <point x="326" y="514" type="line"/>
      <point x="326" y="835" type="line"/>
      <point x="181" y="753" type="line"/>
      <point x="149" y="817" type="line"/>
      <point x="343" y="933" type="line"/>
      <point x="408" y="933" type="line"/>
      <point x="408" y="514" type="line"/>
      <point x="566" y="514" type="line"/>
      <point x="566" y="443" type="line"/>
      <point x="156" y="443" type="line"/>
    </contour>
  </outline>
</glyph>
<glyph name="ordmasculine" format="1">
  <advance width="700"/>
  <unicode hex="00BA"/>
  <note>
	ordmasculine
  </note>
  <outline>
    <contour>
      <point x="169" y="702"/>
      <point x="189" y="751"/>
      <point x="222" y="784" type="curve" smooth="yes"/>
      <point x="253" y="816"/>
      <point x="298" y="830"/>
      <point x="350" y="830" type="curve" smooth="yes"/>
      <point x="401" y="830"/>
      <point x="447" y="817"/>
      <point x="479" y="786" type="curve" smooth="yes"/>
      <point x="511" y="754"/>
      <point x="531" y="705"/>
      <point x="531" y="632" type="curve" smooth="yes"/>
      <point x="531" y="559"/>
      <point x="511" y="510"/>
      <point x="479" y="478" type="curve" smooth="yes"/>
      <point x="447" y="447"/>
      <point x="401" y="434"/>
      <point x="350" y="434" type="curve" smooth="yes"/>
      <point x="298" y="434"/>
      <point x="253" y="447"/>
      <point x="222" y="478" type="curve" smooth="yes"/>
      <point x="189" y="510"/>
      <point x="169" y="559"/>
      <point x="169" y="632" type="curve" smooth="yes"/>
    </contour>
    <contour>
      <point x="255" y="539"/>
      <point x="290" y="501"/>
      <point x="350" y="501" type="curve" smooth="yes"/>
      <point x="379" y="501"/>
      <point x="403" y="510"/>
      <point x="420" y="529" type="curve" smooth="yes"/>
      <point x="436" y="548"/>
      <point x="444" y="581"/>
      <point x="444" y="632" type="curve" smooth="yes"/>
      <point x="444" y="683"/>
      <point x="436" y="716"/>
      <point x="420" y="736" type="curve" smooth="yes"/>
      <point x="403" y="754"/>
      <point x="379" y="763"/>
      <point x="350" y="763" type="curve" smooth="yes"/>
      <point x="290" y="763"/>
      <point x="255" y="733"/>
      <point x="255" y="632" type="curve" smooth="yes"/>
    </contour>
  </outline>
</glyph>
<glyph name="guillemotright" format="1">
  <advance width="700"/>
  <unicode hex="00BB"/>
  <note>
	guillemotright
  </note>
  <outline>
    <contour>
      <point x="405" y="23" type="line"/>
      <point x="338" y="80" type="line"/>
      <point x="528" y="312" type="line"/>
      <point x="346" y="548" type="line"/>
      <point x="414" y="604" type="line"/>
      <point x="641" y="308" type="line"/>
    </contour>
    <contour>
      <point x="125" y="23" type="line"/>
      <point x="58" y="80" type="line"/>
      <point x="248" y="312" type="line"/>
      <point x="66" y="548" type="line"/>
      <point x="134" y="604" type="line"/>
      <point x="361" y="308" type="line"/>
    </contour>
  </outline>
</glyph>
<glyph name="onequarter" format="1">
  <advance width="700"/>
  <unicode hex="00BC"/>
  <note>
	onequarter
  </note>
  <outline>
    <contour>
      <point x="504" y="831" type="line"/>
      <point x="559" y="808" type="line"/>
      <point x="199" y="-14" type="line"/>
      <point x="143" y="12" type="line"/>
    </contour>
    <contour>
      <point x="640" y="113" type="line"/>
      <point x="581" y="113" type="line"/>
      <point x="581" y="0" type="line"/>
      <point x="513" y="0" type="line"/>
      <point x="513" y="113" type="line"/>
      <point x="356" y="113" type="line"/>
      <point x="356" y="161" type="line"/>
      <point x="524" y="497" type="line"/>
      <point x="581" y="497" type="line"/>
      <point x="581" y="175" type="line"/>
      <point x="640" y="175" type="line"/>
    </contour>
    <contour>
      <point x="513" y="358" type="line"/>
      <point x="429" y="175" type="line"/>
      <point x="513" y="175" type="line"/>
    </contour>
    <contour>
      <point x="157" y="719" type="line"/>
      <point x="78" y="651" type="line"/>
      <point x="41" y="694" type="line"/>
      <point x="178" y="816" type="line"/>
      <point x="225" y="816" type="line"/>
      <point x="225" y="326" type="line"/>
      <point x="157" y="326" type="line"/>
    </contour>
  </outline>
</glyph>
<glyph name="onehalf" format="1">
  <advance width="700"/>
  <unicode hex="00BD"/>
  <note>
	onehalf
  </note>
  <outline>
    <contour>
      <point x="490" y="831" type="line"/>
      <point x="545" y="808" type="line"/>
      <point x="185" y="-14" type="line"/>
      <point x="129" y="12" type="line"/>
    </contour>
    <contour>
      <point x="639" y="267"/>
      <point x="582" y="171"/>
      <point x="503" y="65" type="curve"/>
      <point x="653" y="65" type="line"/>
      <point x="653" y="0" type="line"/>
      <point x="422" y="0" type="line"/>
      <point x="422" y="56" type="line"/>
      <point x="451" y="90"/>
      <point x="489" y="139"/>
      <point x="518" y="192" type="curve" smooth="yes"/>
      <point x="547" y="246"/>
      <point x="570" y="304"/>
      <point x="570" y="360" type="curve" smooth="yes"/>
      <point x="570" y="406"/>
      <point x="550" y="433"/>
      <point x="522" y="433" type="curve" smooth="yes"/>
      <point x="494" y="433"/>
      <point x="466" y="423"/>
      <point x="449" y="409" type="curve"/>
      <point x="428" y="465" type="line"/>
      <point x="455" y="487"/>
      <point x="498" y="498"/>
      <point x="526" y="498" type="curve" smooth="yes"/>
      <point x="602" y="498"/>
      <point x="639" y="456"/>
      <point x="639" y="371" type="curve" smooth="yes"/>
    </contour>
    <contour>
      <point x="157" y="719" type="line"/>
      <point x="78" y="651" type="line"/>
      <point x="41" y="694" type="line"/>
      <point x="178" y="816" type="line"/>
      <point x="225" y="816" type="line"/>
      <point x="225" y="326" type="line"/>
      <point x="157" y="326" type="line"/>
    </contour>
  </outline>
</glyph>
<glyph name="threequarters" format="1">
  <advance width="700"/>
  <unicode hex="00BE"/>
  <note>
	threequarters
  </note>
  <outline>
    <contour>
      <point x="513" y="831" type="line"/>
      <point x="568" y="808" type="line"/>
      <point x="209" y="-14" type="line"/>
      <point x="153" y="12" type="line"/>
    </contour>
    <contour>
      <point x="182" y="384"/>
      <point x="204" y="419"/>
      <point x="204" y="476" type="curve" smooth="yes"/>
      <point x="204" y="526"/>
      <point x="184" y="560"/>
      <point x="133" y="560" type="curve" smooth="yes"/>
      <point x="92" y="560" type="line"/>
      <point x="92" y="598" type="line"/>
      <point x="180" y="751" type="line"/>
      <point x="55" y="751" type="line"/>
      <point x="55" y="816" type="line"/>
      <point x="259" y="816" type="line"/>
      <point x="259" y="767" type="line"/>
      <point x="169" y="614" type="line"/>
      <point x="169" y="611" type="line"/>
      <point x="239" y="612"/>
      <point x="273" y="560"/>
      <point x="273" y="476" type="curve" smooth="yes"/>
      <point x="273" y="381"/>
      <point x="217" y="318"/>
      <point x="141" y="318" type="curve" smooth="yes"/>
      <point x="105" y="318"/>
      <point x="75" y="326"/>
      <point x="51" y="339" type="curve"/>
      <point x="66" y="401" type="line"/>
      <point x="85" y="389"/>
      <point x="107" y="384"/>
      <point x="134" y="384" type="curve" smooth="yes"/>
    </contour>
    <contour>
      <point x="640" y="113" type="line"/>
      <point x="581" y="113" type="line"/>
      <point x="581" y="0" type="line"/>
      <point x="513" y="0" type="line"/>
      <point x="513" y="113" type="line"/>
      <point x="356" y="113" type="line"/>
      <point x="356" y="161" type="line"/>
      <point x="524" y="497" type="line"/>
      <point x="581" y="497" type="line"/>
      <point x="581" y="175" type="line"/>
      <point x="640" y="175" type="line"/>
    </contour>
    <contour>
      <point x="513" y="358" type="line"/>
      <point x="429" y="175" type="line"/>
      <point x="513" y="175" type="line"/>
    </contour>
  </outline>
</glyph>
<glyph name="questiondown" format="1">
  <advance width="700"/>
  <unicode hex="00BF"/>
  <note>
	questiondown
  </note>
  <outline>
    <contour>
      <point x="318" y="571"/>
      <point x="344" y="597"/>
      <point x="385" y="597" type="curve" smooth="yes"/>
      <point x="427" y="597"/>
      <point x="454" y="571"/>
      <point x="454" y="529" type="curve" smooth="yes"/>
      <point x="454" y="489"/>
      <point x="427" y="462"/>
      <point x="385" y="462" type="curve" smooth="yes"/>
      <point x="344" y="462"/>
      <point x="318" y="489"/>
      <point x="318" y="529" type="curve" smooth="yes"/>
    </contour>
    <contour>
      <point x="429" y="377" type="line"/>
      <point x="430" y="373"/>
      <point x="430" y="368"/>
      <point x="430" y="364" type="curve" smooth="yes"/>
      <point x="430" y="359"/>
      <point x="430" y="354"/>
      <point x="430" y="351" type="curve" smooth="yes"/>
      <point x="430" y="286"/>
      <point x="403" y="241"/>
      <point x="367" y="205" type="curve" smooth="yes"/>
      <point x="350" y="187"/>
      <point x="330" y="170"/>
      <point x="310" y="155" type="curve"/>
      <point x="268" y="126"/>
      <point x="231" y="93"/>
      <point x="208" y="52" type="curve"/>
      <point x="195" y="33"/>
      <point x="189" y="8"/>
      <point x="189" y="-20" type="curve" smooth="yes"/>
      <point x="189" y="-51"/>
      <point x="202" y="-86"/>
      <point x="231" y="-115" type="curve" smooth="yes"/>
      <point x="260" y="-145"/>
      <point x="305" y="-166"/>
      <point x="370" y="-166" type="curve" smooth="yes"/>
      <point x="421" y="-166"/>
      <point x="462" y="-153"/>
      <point x="496" y="-134" type="curve" smooth="yes"/>
      <point x="528" y="-115"/>
      <point x="555" y="-92"/>
      <point x="577" y="-70" type="curve"/>
      <point x="637" y="-124" type="line"/>
      <point x="571" y="-206"/>
      <point x="491" y="-247"/>
      <point x="354" y="-247" type="curve" smooth="yes"/>
      <point x="261" y="-247"/>
      <point x="196" y="-218"/>
      <point x="154" y="-176" type="curve" smooth="yes"/>
      <point x="112" y="-135"/>
      <point x="92" y="-82"/>
      <point x="92" y="-34" type="curve" smooth="yes"/>
      <point x="92" y="40"/>
      <point x="121" y="89"/>
      <point x="160" y="128" type="curve" smooth="yes"/>
      <point x="180" y="148"/>
      <point x="201" y="166"/>
      <point x="223" y="182" type="curve" smooth="yes"/>
      <point x="267" y="213"/>
      <point x="308" y="248"/>
      <point x="333" y="294" type="curve" smooth="yes"/>
      <point x="346" y="316"/>
      <point x="352" y="344"/>
      <point x="352" y="377" type="curve"/>
    </contour>
  </outline>
</glyph>
<glyph name="Aacute" format="1">
  <advance width="700"/>
  <unicode hex="00C1"/>
  <note>
	Aacute
  </note>
  <outline>
    <contour>
      <point x="503" y="226" type="line"/>
      <point x="189" y="226" type="line"/>
      <point x="114" y="0" type="line"/>
      <point x="19" y="0" type="line"/>
      <point x="291" y="816" type="line"/>
      <point x="406" y="816" type="line"/>
      <point x="681" y="0" type="line"/>
      <point x="580" y="0" type="line"/>
    </contour>
    <contour>
      <point x="219" y="310" type="line"/>
      <point x="476" y="310" type="line"/>
      <point x="356" y="694" type="line"/>
      <point x="342" y="694" type="line"/>
    </contour>
    <contour>
      <point x="394" y="1014" type="line"/>
      <point x="527" y="1014" type="line"/>
      <point x="527" y="990" type="line"/>
      <point x="337" y="877" type="line"/>
      <point x="257" y="877" type="line"/>
    </contour>
  </outline>
</glyph>
<glyph name="Acircumflex" format="1">
  <advance width="700"/>
  <unicode hex="00C2"/>
  <note>
	Acircumflex
  </note>
  <outline>
    <contour>
      <point x="503" y="226" type="line"/>
      <point x="189" y="226" type="line"/>
      <point x="114" y="0" type="line"/>
      <point x="19" y="0" type="line"/>
      <point x="291" y="816" type="line"/>
      <point x="406" y="816" type="line"/>
      <point x="681" y="0" type="line"/>
      <point x="580" y="0" type="line"/>
    </contour>
    <contour>
      <point x="219" y="310" type="line"/>
      <point x="476" y="310" type="line"/>
      <point x="356" y="694" type="line"/>
      <point x="342" y="694" type="line"/>
    </contour>
    <contour>
      <point x="318" y="1016" type="line"/>
      <point x="388" y="1016" type="line"/>
      <point x="557" y="872" type="line"/>
      <point x="442" y="872" type="line"/>
      <point x="352" y="948" type="line"/>
      <point x="255" y="872" type="line"/>
      <point x="138" y="872" type="line"/>
    </contour>
  </outline>
</glyph>
<glyph name="Atilde" format="1">
  <advance width="700"/>
  <unicode hex="00C3"/>
  <note>
	Atilde
  </note>
  <outline>
    <contour>
      <point x="503" y="226" type="line"/>
      <point x="189" y="226" type="line"/>
      <point x="114" y="0" type="line"/>
      <point x="19" y="0" type="line"/>
      <point x="291" y="816" type="line"/>
      <point x="406" y="816" type="line"/>
      <point x="681" y="0" type="line"/>
      <point x="580" y="0" type="line"/>
    </contour>
    <contour>
      <point x="219" y="310" type="line"/>
      <point x="476" y="310" type="line"/>
      <point x="356" y="694" type="line"/>
      <point x="342" y="694" type="line"/>
    </contour>
    <contour>
      <point x="152" y="920" type="line"/>
      <point x="199" y="970"/>
      <point x="254" y="979"/>
      <point x="291" y="979" type="curve" smooth="yes"/>
      <point x="321" y="979"/>
      <point x="350" y="970"/>
      <point x="375" y="961" type="curve"/>
      <point x="401" y="950"/>
      <point x="426" y="941"/>
      <point x="449" y="941" type="curve" smooth="yes"/>
      <point x="469" y="941"/>
      <point x="489" y="949"/>
      <point x="507" y="965" type="curve"/>
      <point x="541" y="908" type="line"/>
      <point x="499" y="870"/>
      <point x="457" y="864"/>
      <point x="424" y="864" type="curve" smooth="yes"/>
      <point x="395" y="864"/>
      <point x="370" y="873"/>
      <point x="344" y="884" type="curve"/>
      <point x="318" y="893"/>
      <point x="293" y="902"/>
      <point x="268" y="902" type="curve" smooth="yes"/>
      <point x="244" y="902"/>
      <point x="220" y="894"/>
      <point x="194" y="868" type="curve"/>
    </contour>
  </outline>
</glyph>
<glyph name="Adieresis" format="1">
  <advance width="700"/>
  <unicode hex="00C4"/>
  <note>
	Adieresis
  </note>
  <outline>
    <contour>
      <point x="503" y="226" type="line"/>
      <point x="189" y="226" type="line"/>
      <point x="114" y="0" type="line"/>
      <point x="19" y="0" type="line"/>
      <point x="291" y="816" type="line"/>
      <point x="406" y="816" type="line"/>
      <point x="681" y="0" type="line"/>
      <point x="580" y="0" type="line"/>
    </contour>
    <contour>
      <point x="219" y="310" type="line"/>
      <point x="476" y="310" type="line"/>
      <point x="356" y="694" type="line"/>
      <point x="342" y="694" type="line"/>
    </contour>
    <contour>
      <point x="147" y="969"/>
      <point x="177" y="993"/>
      <point x="220" y="993" type="curve" smooth="yes"/>
      <point x="261" y="993"/>
      <point x="291" y="969"/>
      <point x="291" y="933" type="curve" smooth="yes"/>
      <point x="291" y="897"/>
      <point x="261" y="873"/>
      <point x="220" y="873" type="curve" smooth="yes"/>
      <point x="177" y="873"/>
      <point x="147" y="897"/>
      <point x="147" y="933" type="curve" smooth="yes"/>
    </contour>
    <contour>
      <point x="409" y="969"/>
      <point x="438" y="993"/>
      <point x="479" y="993" type="curve" smooth="yes"/>
      <point x="525" y="993"/>
      <point x="553" y="969"/>
      <point x="553" y="933" type="curve" smooth="yes"/>
      <point x="553" y="897"/>
      <point x="525" y="873"/>
      <point x="479" y="873" type="curve" smooth="yes"/>
      <point x="438" y="873"/>
      <point x="409" y="897"/>
      <point x="409" y="933" type="curve" smooth="yes"/>
    </contour>
  </outline>
</glyph>
<glyph name="Aring" format="1">
  <advance width="700"/>
  <unicode hex="00C5"/>
  <note>
	Aring
  </note>
  <outline>
    <contour>
      <point x="227" y="953"/>
      <point x="265" y="995"/>
      <point x="350" y="995" type="curve" smooth="yes"/>
      <point x="428" y="995"/>
      <point x="473" y="961"/>
      <point x="473" y="895" type="curve" smooth="yes"/>
      <point x="473" y="845"/>
      <point x="442" y="810"/>
      <point x="381" y="801" type="curve"/>
      <point x="681" y="0" type="line"/>
      <point x="580" y="0" type="line"/>
      <point x="496" y="226" type="line"/>
      <point x="195" y="226" type="line"/>
      <point x="113" y="0" type="line"/>
      <point x="17" y="0" type="line"/>
      <point x="316" y="801" type="line"/>
      <point x="257" y="810"/>
      <point x="227" y="845"/>
      <point x="227" y="895" type="curve" smooth="yes"/>
    </contour>
    <contour>
      <point x="226" y="310" type="line"/>
      <point x="466" y="310" type="line"/>
      <point x="346" y="646" type="line"/>
      <point x="345" y="646" type="line"/>
    </contour>
    <contour>
      <point x="298" y="869"/>
      <point x="314" y="849"/>
      <point x="350" y="849" type="curve" smooth="yes"/>
      <point x="384" y="849"/>
      <point x="402" y="868"/>
      <point x="402" y="895" type="curve" smooth="yes"/>
      <point x="402" y="925"/>
      <point x="386" y="944"/>
      <point x="350" y="944" type="curve" smooth="yes"/>
      <point x="316" y="944"/>
      <point x="298" y="925"/>
      <point x="298" y="895" type="curve" smooth="yes"/>
    </contour>
  </outline>
</glyph>
<glyph name="AE" format="1">
  <advance width="700"/>
  <unicode hex="00C6"/>
  <note>
	AE
  </note>
  <outline>
    <contour>
      <point x="354" y="644" type="line"/>
      <point x="330" y="567" type="line"/>
      <point x="234" y="307" type="line"/>
      <point x="357" y="307" type="line"/>
      <point x="357" y="644" type="line"/>
    </contour>
    <contour>
      <point x="357" y="223" type="line"/>
      <point x="205" y="223" type="line"/>
      <point x="120" y="0" type="line"/>
      <point x="23" y="0" type="line"/>
      <point x="343" y="816" type="line"/>
      <point x="660" y="816" type="line"/>
      <point x="660" y="729" type="line"/>
      <point x="450" y="729" type="line"/>
      <point x="450" y="463" type="line"/>
      <point x="640" y="463" type="line"/>
      <point x="640" y="375" type="line"/>
      <point x="450" y="375" type="line"/>
      <point x="450" y="87" type="line"/>
      <point x="663" y="87" type="line"/>
      <point x="663" y="0" type="line"/>
      <point x="357" y="0" type="line"/>
    </contour>
  </outline>
</glyph>
<glyph name="Egrave" format="1">
  <advance width="700"/>
  <unicode hex="00C8"/>
  <note>
	Egrave
  </note>
  <outline>
    <contour>
      <point x="125" y="816" type="line"/>
      <point x="604" y="816" type="line"/>
      <point x="604" y="730" type="line"/>
      <point x="222" y="730" type="line"/>
      <point x="222" y="463" type="line"/>
      <point x="575" y="463" type="line"/>
      <point x="575" y="377" type="line"/>
      <point x="222" y="377" type="line"/>
      <point x="222" y="86" type="line"/>
      <point x="610" y="86" type="line"/>
      <point x="610" y="0" type="line"/>
      <point x="125" y="0" type="line"/>
    </contour>
    <contour>
      <point x="454" y="877" type="line"/>
      <point x="367" y="877" type="line"/>
      <point x="183" y="990" type="line"/>
      <point x="183" y="1014" type="line"/>
      <point x="316" y="1014" type="line"/>
    </contour>
  </outline>
</glyph>
<glyph name="Eacute" format="1">
  <advance width="700"/>
  <unicode hex="00C9"/>
  <note>
	Eacute
  </note>
  <outline>
    <contour>
      <point x="125" y="816" type="line"/>
      <point x="604" y="816" type="line"/>
      <point x="604" y="730" type="line"/>
      <point x="222" y="730" type="line"/>
      <point x="222" y="463" type="line"/>
      <point x="575" y="463" type="line"/>
      <point x="575" y="377" type="line"/>
      <point x="222" y="377" type="line"/>
      <point x="222" y="86" type="line"/>
      <point x="610" y="86" type="line"/>
      <point x="610" y="0" type="line"/>
      <point x="125" y="0" type="line"/>
    </contour>
    <contour>
      <point x="410" y="1014" type="line"/>
      <point x="543" y="1014" type="line"/>
      <point x="543" y="990" type="line"/>
      <point x="353" y="877" type="line"/>
      <point x="273" y="877" type="line"/>
    </contour>
  </outline>
</glyph>
<glyph name="Ecircumflex" format="1">
  <advance width="700"/>
  <unicode hex="00CA"/>
  <note>
	Ecircumflex
  </note>
  <outline>
    <contour>
      <point x="125" y="816" type="line"/>
      <point x="604" y="816" type="line"/>
      <point x="604" y="730" type="line"/>
      <point x="222" y="730" type="line"/>
      <point x="222" y="463" type="line"/>
      <point x="575" y="463" type="line"/>
      <point x="575" y="377" type="line"/>
      <point x="222" y="377" type="line"/>
      <point x="222" y="86" type="line"/>
      <point x="610" y="86" type="line"/>
      <point x="610" y="0" type="line"/>
      <point x="125" y="0" type="line"/>
    </contour>
    <contour>
      <point x="331" y="1016" type="line"/>
      <point x="401" y="1016" type="line"/>
      <point x="570" y="872" type="line"/>
      <point x="455" y="872" type="line"/>
      <point x="365" y="948" type="line"/>
      <point x="268" y="872" type="line"/>
      <point x="150" y="872" type="line"/>
    </contour>
  </outline>
</glyph>
<glyph name="Edieresis" format="1">
  <advance width="700"/>
  <unicode hex="00CB"/>
  <note>
	Edieresis
  </note>
  <outline>
    <contour>
      <point x="125" y="816" type="line"/>
      <point x="604" y="816" type="line"/>
      <point x="604" y="730" type="line"/>
      <point x="222" y="730" type="line"/>
      <point x="222" y="463" type="line"/>
      <point x="575" y="463" type="line"/>
      <point x="575" y="377" type="line"/>
      <point x="222" y="377" type="line"/>
      <point x="222" y="86" type="line"/>
      <point x="610" y="86" type="line"/>
      <point x="610" y="0" type="line"/>
      <point x="125" y="0" type="line"/>
    </contour>
    <contour>
      <point x="160" y="969"/>
      <point x="190" y="993"/>
      <point x="233" y="993" type="curve" smooth="yes"/>
      <point x="274" y="993"/>
      <point x="304" y="969"/>
      <point x="304" y="933" type="curve" smooth="yes"/>
      <point x="304" y="897"/>
      <point x="274" y="873"/>
      <point x="233" y="873" type="curve" smooth="yes"/>
      <point x="190" y="873"/>
      <point x="160" y="897"/>
      <point x="160" y="933" type="curve" smooth="yes"/>
    </contour>
    <contour>
      <point x="422" y="969"/>
      <point x="451" y="993"/>
      <point x="492" y="993" type="curve" smooth="yes"/>
      <point x="538" y="993"/>
      <point x="566" y="969"/>
      <point x="566" y="933" type="curve" smooth="yes"/>
      <point x="566" y="897"/>
      <point x="538" y="873"/>
      <point x="492" y="873" type="curve" smooth="yes"/>
      <point x="451" y="873"/>
      <point x="422" y="897"/>
      <point x="422" y="933" type="curve" smooth="yes"/>
    </contour>
  </outline>
</glyph>
<glyph name="Iacute" format="1">
  <advance width="700"/>
  <unicode hex="00CD"/>
  <note>
	Iacute
  </note>
  <outline>
    <contour>
      <point x="70" y="816" type="line"/>
      <point x="630" y="816" type="line"/>
      <point x="630" y="730" type="line"/>
      <point x="398" y="730" type="line"/>
      <point x="398" y="86" type="line"/>
      <point x="630" y="86" type="line"/>
      <point x="630" y="0" type="line"/>
      <point x="70" y="0" type="line"/>
      <point x="70" y="86" type="line"/>
      <point x="301" y="86" type="line"/>
      <point x="301" y="730" type="line"/>
      <point x="70" y="730" type="line"/>
    </contour>
    <contour>
      <point x="389" y="1014" type="line"/>
      <point x="522" y="1014" type="line"/>
      <point x="522" y="990" type="line"/>
      <point x="332" y="877" type="line"/>
      <point x="252" y="877" type="line"/>
    </contour>
  </outline>
</glyph>
<glyph name="Icircumflex" format="1">
  <advance width="700"/>
  <unicode hex="00CE"/>
  <note>
	Icircumflex
  </note>
  <outline>
    <contour>
      <point x="70" y="816" type="line"/>
      <point x="630" y="816" type="line"/>
      <point x="630" y="730" type="line"/>
      <point x="398" y="730" type="line"/>
      <point x="398" y="86" type="line"/>
      <point x="630" y="86" type="line"/>
      <point x="630" y="0" type="line"/>
      <point x="70" y="0" type="line"/>
      <point x="70" y="86" type="line"/>
      <point x="301" y="86" type="line"/>
      <point x="301" y="730" type="line"/>
      <point x="70" y="730" type="line"/>
    </contour>
    <contour>
      <point x="317" y="1016" type="line"/>
      <point x="387" y="1016" type="line"/>
      <point x="556" y="872" type="line"/>
      <point x="441" y="872" type="line"/>
      <point x="351" y="948" type="line"/>
      <point x="254" y="872" type="line"/>
      <point x="136" y="872" type="line"/>
    </contour>
  </outline>
</glyph>
<glyph name="Idieresis" format="1">
  <advance width="700"/>
  <unicode hex="00CF"/>
  <note>
	Idieresis
  </note>
  <outline>
    <contour>
      <point x="70" y="816" type="line"/>
      <point x="630" y="816" type="line"/>
      <point x="630" y="730" type="line"/>
      <point x="398" y="730" type="line"/>
      <point x="398" y="86" type="line"/>
      <point x="630" y="86" type="line"/>
      <point x="630" y="0" type="line"/>
      <point x="70" y="0" type="line"/>
      <point x="70" y="86" type="line"/>
      <point x="301" y="86" type="line"/>
      <point x="301" y="730" type="line"/>
      <point x="70" y="730" type="line"/>
    </contour>
    <contour>
      <point x="147" y="969"/>
      <point x="177" y="993"/>
      <point x="220" y="993" type="curve" smooth="yes"/>
      <point x="261" y="993"/>
      <point x="291" y="969"/>
      <point x="291" y="933" type="curve" smooth="yes"/>
      <point x="291" y="897"/>
      <point x="261" y="873"/>
      <point x="220" y="873" type="curve" smooth="yes"/>
      <point x="177" y="873"/>
      <point x="147" y="897"/>
      <point x="147" y="933" type="curve" smooth="yes"/>
    </contour>
    <contour>
      <point x="409" y="969"/>
      <point x="438" y="993"/>
      <point x="479" y="993" type="curve" smooth="yes"/>
      <point x="525" y="993"/>
      <point x="553" y="969"/>
      <point x="553" y="933" type="curve" smooth="yes"/>
      <point x="553" y="897"/>
      <point x="525" y="873"/>
      <point x="479" y="873" type="curve" smooth="yes"/>
      <point x="438" y="873"/>
      <point x="409" y="897"/>
      <point x="409" y="933" type="curve" smooth="yes"/>
    </contour>
  </outline>
</glyph>
<glyph name="Ntilde" format="1">
  <advance width="700"/>
  <unicode hex="00D1"/>
  <note>
	Ntilde
  </note>
  <outline>
    <contour>
      <point x="229" y="511" type="line"/>
      <point x="166" y="628" type="line"/>
      <point x="161" y="628" type="line"/>
      <point x="173" y="511" type="line"/>
      <point x="173" y="0" type="line"/>
      <point x="82" y="0" type="line"/>
      <point x="82" y="816" type="line"/>
      <point x="145" y="816" type="line"/>
      <point x="473" y="308" type="line"/>
      <point x="534" y="196" type="line"/>
      <point x="540" y="196" type="line"/>
      <point x="527" y="308" type="line"/>
      <point x="527" y="816" type="line"/>
      <point x="618" y="816" type="line"/>
      <point x="618" y="0" type="line"/>
      <point x="555" y="0" type="line"/>
    </contour>
    <contour>
      <point x="152" y="920" type="line"/>
      <point x="199" y="970"/>
      <point x="254" y="979"/>
      <point x="291" y="979" type="curve" smooth="yes"/>
      <point x="321" y="979"/>
      <point x="350" y="970"/>
      <point x="375" y="961" type="curve"/>
      <point x="401" y="950"/>
      <point x="426" y="941"/>
      <point x="449" y="941" type="curve" smooth="yes"/>
      <point x="469" y="941"/>
      <point x="489" y="949"/>
      <point x="507" y="965" type="curve"/>
      <point x="541" y="908" type="line"/>
      <point x="499" y="870"/>
      <point x="457" y="864"/>
      <point x="424" y="864" type="curve" smooth="yes"/>
      <point x="395" y="864"/>
      <point x="370" y="873"/>
      <point x="344" y="884" type="curve"/>
      <point x="318" y="893"/>
      <point x="293" y="902"/>
      <point x="268" y="902" type="curve" smooth="yes"/>
      <point x="244" y="902"/>
      <point x="220" y="894"/>
      <point x="194" y="868" type="curve"/>
    </contour>
  </outline>
</glyph>
<glyph name="Oacute" format="1">
  <advance width="700"/>
  <unicode hex="00D3"/>
  <note>
	Oacute
  </note>
  <outline>
    <contour>
      <point x="56" y="679"/>
      <point x="149" y="830"/>
      <point x="349" y="830" type="curve" smooth="yes"/>
      <point x="457" y="830"/>
      <point x="532" y="788"/>
      <point x="578" y="715" type="curve" smooth="yes"/>
      <point x="625" y="640"/>
      <point x="644" y="535"/>
      <point x="644" y="408" type="curve" smooth="yes"/>
      <point x="644" y="138"/>
      <point x="550" y="-14"/>
      <point x="349" y="-14" type="curve" smooth="yes"/>
      <point x="241" y="-14"/>
      <point x="168" y="28"/>
      <point x="121" y="103" type="curve" smooth="yes"/>
      <point x="75" y="176"/>
      <point x="56" y="281"/>
      <point x="56" y="408" type="curve" smooth="yes"/>
    </contour>
    <contour>
      <point x="159" y="318"/>
      <point x="169" y="234"/>
      <point x="198" y="174" type="curve" smooth="yes"/>
      <point x="227" y="112"/>
      <point x="274" y="72"/>
      <point x="349" y="72" type="curve" smooth="yes"/>
      <point x="483" y="72"/>
      <point x="541" y="178"/>
      <point x="541" y="408" type="curve" smooth="yes"/>
      <point x="541" y="497"/>
      <point x="531" y="582"/>
      <point x="501" y="644" type="curve" smooth="yes"/>
      <point x="472" y="704"/>
      <point x="423" y="744"/>
      <point x="349" y="744" type="curve" smooth="yes"/>
      <point x="217" y="744"/>
      <point x="159" y="637"/>
      <point x="159" y="408" type="curve" smooth="yes"/>
    </contour>
    <contour>
      <point x="435" y="1014" type="line"/>
      <point x="568" y="1014" type="line"/>
      <point x="568" y="990" type="line"/>
      <point x="378" y="877" type="line"/>
      <point x="297" y="877" type="line"/>
    </contour>
  </outline>
</glyph>
<glyph name="Otilde" format="1">
  <advance width="700"/>
  <unicode hex="00D5"/>
  <note>
	Otilde
  </note>
  <outline>
    <contour>
      <point x="56" y="679"/>
      <point x="149" y="830"/>
      <point x="349" y="830" type="curve" smooth="yes"/>
      <point x="457" y="830"/>
      <point x="532" y="788"/>
      <point x="578" y="715" type="curve" smooth="yes"/>
      <point x="625" y="640"/>
      <point x="644" y="535"/>
      <point x="644" y="408" type="curve" smooth="yes"/>
      <point x="644" y="138"/>
      <point x="550" y="-14"/>
      <point x="349" y="-14" type="curve" smooth="yes"/>
      <point x="241" y="-14"/>
      <point x="168" y="28"/>
      <point x="121" y="103" type="curve" smooth="yes"/>
      <point x="75" y="176"/>
      <point x="56" y="281"/>
      <point x="56" y="408" type="curve" smooth="yes"/>
    </contour>
    <contour>
      <point x="159" y="318"/>
      <point x="169" y="234"/>
      <point x="198" y="174" type="curve" smooth="yes"/>
      <point x="227" y="112"/>
      <point x="274" y="72"/>
      <point x="349" y="72" type="curve" smooth="yes"/>
      <point x="483" y="72"/>
      <point x="541" y="178"/>
      <point x="541" y="408" type="curve" smooth="yes"/>
      <point x="541" y="497"/>
      <point x="531" y="582"/>
      <point x="501" y="644" type="curve" smooth="yes"/>
      <point x="472" y="704"/>
      <point x="423" y="744"/>
      <point x="349" y="744" type="curve" smooth="yes"/>
      <point x="217" y="744"/>
      <point x="159" y="637"/>
      <point x="159" y="408" type="curve" smooth="yes"/>
    </contour>
    <contour>
      <point x="150" y="920" type="line"/>
      <point x="198" y="970"/>
      <point x="253" y="979"/>
      <point x="290" y="979" type="curve" smooth="yes"/>
      <point x="319" y="979"/>
      <point x="349" y="970"/>
      <point x="374" y="961" type="curve"/>
      <point x="400" y="950"/>
      <point x="424" y="941"/>
      <point x="448" y="941" type="curve" smooth="yes"/>
      <point x="468" y="941"/>
      <point x="487" y="949"/>
      <point x="506" y="965" type="curve"/>
      <point x="540" y="908" type="line"/>
      <point x="498" y="870"/>
      <point x="456" y="864"/>
      <point x="423" y="864" type="curve" smooth="yes"/>
      <point x="394" y="864"/>
      <point x="368" y="873"/>
      <point x="343" y="884" type="curve"/>
      <point x="317" y="893"/>
      <point x="291" y="902"/>
      <point x="267" y="902" type="curve" smooth="yes"/>
      <point x="243" y="902"/>
      <point x="219" y="894"/>
      <point x="192" y="868" type="curve"/>
    </contour>
  </outline>
</glyph>
<glyph name="multiply" format="1">
  <advance width="700"/>
  <unicode hex="00D7"/>
  <note>
	multiply
  </note>
  <outline>
    <contour>
      <point x="203" y="603" type="line"/>
      <point x="350" y="455" type="line"/>
      <point x="498" y="603" type="line"/>
      <point x="557" y="541" type="line"/>
      <point x="410" y="394" type="line"/>
      <point x="557" y="246" type="line"/>
      <point x="498" y="185" type="line"/>
      <point x="350" y="335" type="line"/>
      <point x="202" y="185" type="line"/>
      <point x="141" y="245" type="line"/>
      <point x="290" y="395" type="line"/>
      <point x="143" y="541" type="line"/>
    </contour>
  </outline>
</glyph>
<glyph name="Oslash" format="1">
  <advance width="700"/>
  <unicode hex="00D8"/>
  <note>
	Oslash
  </note>
  <outline>
    <contour>
      <point x="93" y="106" type="line"/>
      <point x="41" y="181"/>
      <point x="16" y="282"/>
      <point x="16" y="408" type="curve" smooth="yes"/>
      <point x="16" y="680"/>
      <point x="135" y="830"/>
      <point x="349" y="830" type="curve" smooth="yes"/>
      <point x="437" y="830"/>
      <point x="505" y="807"/>
      <point x="557" y="761" type="curve"/>
      <point x="606" y="831" type="line"/>
      <point x="667" y="791" type="line"/>
      <point x="607" y="707" type="line"/>
      <point x="659" y="632"/>
      <point x="683" y="531"/>
      <point x="683" y="408" type="curve" smooth="yes"/>
      <point x="683" y="136"/>
      <point x="563" y="-14"/>
      <point x="349" y="-14" type="curve" smooth="yes"/>
      <point x="266" y="-14"/>
      <point x="197" y="8"/>
      <point x="145" y="51" type="curve"/>
      <point x="99" y="-14" type="line"/>
      <point x="38" y="28" type="line"/>
    </contour>
    <contour>
      <point x="119" y="329"/>
      <point x="132" y="259"/>
      <point x="160" y="199" type="curve"/>
      <point x="498" y="679" type="line"/>
      <point x="462" y="719"/>
      <point x="414" y="744"/>
      <point x="349" y="744" type="curve" smooth="yes"/>
      <point x="205" y="744"/>
      <point x="119" y="637"/>
      <point x="119" y="408" type="curve" smooth="yes"/>
    </contour>
    <contour>
      <point x="581" y="483"/>
      <point x="568" y="555"/>
      <point x="541" y="612" type="curve"/>
      <point x="203" y="133" type="line"/>
      <point x="239" y="94"/>
      <point x="287" y="72"/>
      <point x="349" y="72" type="curve" smooth="yes"/>
      <point x="493" y="72"/>
      <point x="581" y="180"/>
      <point x="581" y="408" type="curve" smooth="yes"/>
    </contour>
  </outline>
</glyph>
<glyph name="Ugrave" format="1">
  <advance width="700"/>
  <unicode hex="00D9"/>
  <note>
	Ugrave
  </note>
  <outline>
    <contour>
      <point x="536" y="816" type="line"/>
      <point x="630" y="816" type="line"/>
      <point x="630" y="272" type="line" smooth="yes"/>
      <point x="630" y="174"/>
      <point x="603" y="103"/>
      <point x="556" y="57" type="curve" smooth="yes"/>
      <point x="510" y="10"/>
      <point x="441" y="-10"/>
      <point x="360" y="-10" type="curve" smooth="yes"/>
      <point x="168" y="-10"/>
      <point x="70" y="76"/>
      <point x="70" y="253" type="curve" smooth="yes"/>
      <point x="70" y="816" type="line"/>
      <point x="167" y="816" type="line"/>
      <point x="167" y="298" type="line" smooth="yes"/>
      <point x="167" y="216"/>
      <point x="183" y="161"/>
      <point x="216" y="126" type="curve" smooth="yes"/>
      <point x="247" y="91"/>
      <point x="296" y="76"/>
      <point x="361" y="76" type="curve" smooth="yes"/>
      <point x="487" y="76"/>
      <point x="536" y="140"/>
      <point x="536" y="298" type="curve" smooth="yes"/>
    </contour>
    <contour>
      <point x="445" y="877" type="line"/>
      <point x="359" y="877" type="line"/>
      <point x="175" y="990" type="line"/>
      <point x="175" y="1014" type="line"/>
      <point x="308" y="1014" type="line"/>
    </contour>
  </outline>
</glyph>
<glyph name="Ucircumflex" format="1">
  <advance width="700"/>
  <unicode hex="00DB"/>
  <note>
	Ucircumflex
  </note>
  <outline>
    <contour>
      <point x="536" y="816" type="line"/>
      <point x="630" y="816" type="line"/>
      <point x="630" y="272" type="line" smooth="yes"/>
      <point x="630" y="174"/>
      <point x="603" y="103"/>
      <point x="556" y="57" type="curve" smooth="yes"/>
      <point x="510" y="10"/>
      <point x="441" y="-10"/>
      <point x="360" y="-10" type="curve" smooth="yes"/>
      <point x="168" y="-10"/>
      <point x="70" y="76"/>
      <point x="70" y="253" type="curve" smooth="yes"/>
      <point x="70" y="816" type="line"/>
      <point x="167" y="816" type="line"/>
      <point x="167" y="298" type="line" smooth="yes"/>
      <point x="167" y="216"/>
      <point x="183" y="161"/>
      <point x="216" y="126" type="curve" smooth="yes"/>
      <point x="247" y="91"/>
      <point x="296" y="76"/>
      <point x="361" y="76" type="curve" smooth="yes"/>
      <point x="487" y="76"/>
      <point x="536" y="140"/>
      <point x="536" y="298" type="curve" smooth="yes"/>
    </contour>
    <contour>
      <point x="321" y="1016" type="line"/>
      <point x="391" y="1016" type="line"/>
      <point x="560" y="872" type="line"/>
      <point x="444" y="872" type="line"/>
      <point x="354" y="948" type="line"/>
      <point x="258" y="872" type="line"/>
      <point x="140" y="872" type="line"/>
    </contour>
  </outline>
</glyph>
<glyph name="Udieresis" format="1">
  <advance width="700"/>
  <unicode hex="00DC"/>
  <note>
	Udieresis
  </note>
  <outline>
    <contour>
      <point x="536" y="816" type="line"/>
      <point x="630" y="816" type="line"/>
      <point x="630" y="272" type="line" smooth="yes"/>
      <point x="630" y="174"/>
      <point x="603" y="103"/>
      <point x="556" y="57" type="curve" smooth="yes"/>
      <point x="510" y="10"/>
      <point x="441" y="-10"/>
      <point x="360" y="-10" type="curve" smooth="yes"/>
      <point x="168" y="-10"/>
      <point x="70" y="76"/>
      <point x="70" y="253" type="curve" smooth="yes"/>
      <point x="70" y="816" type="line"/>
      <point x="167" y="816" type="line"/>
      <point x="167" y="298" type="line" smooth="yes"/>
      <point x="167" y="216"/>
      <point x="183" y="161"/>
      <point x="216" y="126" type="curve" smooth="yes"/>
      <point x="247" y="91"/>
      <point x="296" y="76"/>
      <point x="361" y="76" type="curve" smooth="yes"/>
      <point x="487" y="76"/>
      <point x="536" y="140"/>
      <point x="536" y="298" type="curve" smooth="yes"/>
    </contour>
    <contour>
      <point x="148" y="969"/>
      <point x="178" y="993"/>
      <point x="222" y="993" type="curve" smooth="yes"/>
      <point x="262" y="993"/>
      <point x="293" y="969"/>
      <point x="293" y="933" type="curve" smooth="yes"/>
      <point x="293" y="897"/>
      <point x="262" y="873"/>
      <point x="222" y="873" type="curve" smooth="yes"/>
      <point x="178" y="873"/>
      <point x="148" y="897"/>
      <point x="148" y="933" type="curve" smooth="yes"/>
    </contour>
    <contour>
      <point x="410" y="969"/>
      <point x="440" y="993"/>
      <point x="480" y="993" type="curve" smooth="yes"/>
      <point x="526" y="993"/>
      <point x="554" y="969"/>
      <point x="554" y="933" type="curve" smooth="yes"/>
      <point x="554" y="897"/>
      <point x="526" y="873"/>
      <point x="480" y="873" type="curve" smooth="yes"/>
      <point x="440" y="873"/>
      <point x="410" y="897"/>
      <point x="410" y="933" type="curve" smooth="yes"/>
    </contour>
  </outline>
</glyph>
<glyph name="Yacute" format="1">
  <advance width="700"/>
  <unicode hex="00DD"/>
  <note>
	Yacute
  </note>
  <outline>
    <contour>
      <point x="302" y="312" type="line"/>
      <point x="10" y="816" type="line"/>
      <point x="124" y="816" type="line"/>
      <point x="357" y="413" type="line"/>
      <point x="358" y="413" type="line"/>
      <point x="585" y="816" type="line"/>
      <point x="689" y="816" type="line"/>
      <point x="399" y="314" type="line"/>
      <point x="399" y="0" type="line"/>
      <point x="302" y="0" type="line"/>
    </contour>
    <contour>
      <point x="414" y="1014" type="line"/>
      <point x="547" y="1014" type="line"/>
      <point x="547" y="990" type="line"/>
      <point x="357" y="877" type="line"/>
      <point x="276" y="877" type="line"/>
    </contour>
  </outline>
</glyph>
<glyph name="Thorn" format="1">
  <advance width="700"/>
  <unicode hex="00DE"/>
  <note>
	Thorn
  </note>
  <outline>
    <contour>
      <point x="106" y="816" type="line"/>
      <point x="203" y="816" type="line"/>
      <point x="203" y="729" type="line"/>
      <point x="218" y="730"/>
      <point x="241" y="731"/>
      <point x="265" y="732" type="curve"/>
      <point x="276" y="732"/>
      <point x="288" y="732"/>
      <point x="298" y="732" type="curve" smooth="yes"/>
      <point x="309" y="732"/>
      <point x="318" y="732"/>
      <point x="326" y="732" type="curve" smooth="yes"/>
      <point x="398" y="732"/>
      <point x="476" y="721"/>
      <point x="536" y="683" type="curve" smooth="yes"/>
      <point x="597" y="646"/>
      <point x="639" y="583"/>
      <point x="639" y="482" type="curve" smooth="yes"/>
      <point x="639" y="382"/>
      <point x="600" y="315"/>
      <point x="541" y="273" type="curve" smooth="yes"/>
      <point x="482" y="230"/>
      <point x="402" y="211"/>
      <point x="322" y="211" type="curve" smooth="yes"/>
      <point x="318" y="211"/>
      <point x="310" y="211"/>
      <point x="300" y="211" type="curve" smooth="yes"/>
      <point x="276" y="211"/>
      <point x="250" y="212"/>
      <point x="226" y="213" type="curve"/>
      <point x="215" y="215"/>
      <point x="206" y="215"/>
      <point x="203" y="216" type="curve"/>
      <point x="203" y="0" type="line"/>
      <point x="106" y="0" type="line"/>
    </contour>
    <contour>
      <point x="318" y="648"/>
      <point x="308" y="648"/>
      <point x="296" y="648" type="curve" smooth="yes"/>
      <point x="272" y="648"/>
      <point x="246" y="646"/>
      <point x="226" y="645" type="curve"/>
      <point x="216" y="644"/>
      <point x="209" y="642"/>
      <point x="203" y="641" type="curve"/>
      <point x="203" y="303" type="line"/>
      <point x="206" y="302"/>
      <point x="215" y="301"/>
      <point x="225" y="301" type="curve"/>
      <point x="236" y="300"/>
      <point x="247" y="300"/>
      <point x="260" y="298" type="curve" smooth="yes"/>
      <point x="273" y="297"/>
      <point x="285" y="297"/>
      <point x="295" y="297" type="curve" smooth="yes"/>
      <point x="305" y="297"/>
      <point x="314" y="297"/>
      <point x="317" y="297" type="curve" smooth="yes"/>
      <point x="370" y="297"/>
      <point x="424" y="305"/>
      <point x="466" y="333" type="curve" smooth="yes"/>
      <point x="508" y="360"/>
      <point x="536" y="407"/>
      <point x="536" y="482" type="curve" smooth="yes"/>
      <point x="536" y="546"/>
      <point x="511" y="588"/>
      <point x="471" y="613" type="curve" smooth="yes"/>
      <point x="431" y="639"/>
      <point x="379" y="648"/>
      <point x="329" y="648" type="curve" smooth="yes"/>
    </contour>
  </outline>
</glyph>
<glyph name="germandbls" format="1">
  <advance width="700"/>
  <unicode hex="00DF"/>
  <note>
	germandbls
  </note>
  <outline>
    <contour>
      <point x="465" y="679"/>
      <point x="449" y="702"/>
      <point x="426" y="717" type="curve" smooth="yes"/>
      <point x="402" y="732"/>
      <point x="373" y="742"/>
      <point x="346" y="742" type="curve" smooth="yes"/>
      <point x="303" y="742"/>
      <point x="273" y="731"/>
      <point x="254" y="707" type="curve" smooth="yes"/>
      <point x="236" y="682"/>
      <point x="227" y="641"/>
      <point x="227" y="581" type="curve" smooth="yes"/>
      <point x="227" y="0" type="line"/>
      <point x="134" y="0" type="line"/>
      <point x="134" y="501" type="line"/>
      <point x="43" y="501" type="line"/>
      <point x="43" y="583" type="line"/>
      <point x="134" y="583" type="line"/>
      <point x="134" y="610" type="line" smooth="yes"/>
      <point x="134" y="760"/>
      <point x="212" y="823"/>
      <point x="343" y="823" type="curve" smooth="yes"/>
      <point x="407" y="823"/>
      <point x="461" y="807"/>
      <point x="499" y="777" type="curve" smooth="yes"/>
      <point x="536" y="746"/>
      <point x="559" y="704"/>
      <point x="559" y="653" type="curve" smooth="yes"/>
      <point x="559" y="593"/>
      <point x="524" y="562"/>
      <point x="489" y="534" type="curve" smooth="yes"/>
      <point x="454" y="506"/>
      <point x="417" y="483"/>
      <point x="417" y="444" type="curve" smooth="yes"/>
      <point x="417" y="410"/>
      <point x="443" y="392"/>
      <point x="479" y="377" type="curve"/>
      <point x="497" y="368"/>
      <point x="517" y="361"/>
      <point x="536" y="353" type="curve" smooth="yes"/>
      <point x="577" y="337"/>
      <point x="614" y="311"/>
      <point x="638" y="269" type="curve" smooth="yes"/>
      <point x="649" y="247"/>
      <point x="655" y="219"/>
      <point x="655" y="185" type="curve" smooth="yes"/>
      <point x="655" y="135"/>
      <point x="637" y="86"/>
      <point x="602" y="49" type="curve" smooth="yes"/>
      <point x="567" y="12"/>
      <point x="512" y="-14"/>
      <point x="445" y="-14" type="curve" smooth="yes"/>
      <point x="409" y="-14"/>
      <point x="384" y="-12"/>
      <point x="361" y="-6" type="curve"/>
      <point x="338" y="-1"/>
      <point x="318" y="6"/>
      <point x="298" y="19" type="curve"/>
      <point x="325" y="94" type="line"/>
      <point x="335" y="90"/>
      <point x="343" y="85"/>
      <point x="350" y="82" type="curve"/>
      <point x="364" y="73"/>
      <point x="380" y="70"/>
      <point x="400" y="68" type="curve" smooth="yes"/>
      <point x="410" y="66"/>
      <point x="422" y="65"/>
      <point x="437" y="65" type="curve" smooth="yes"/>
      <point x="470" y="65"/>
      <point x="501" y="78"/>
      <point x="525" y="98" type="curve" smooth="yes"/>
      <point x="548" y="118"/>
      <point x="562" y="148"/>
      <point x="562" y="182" type="curve" smooth="yes"/>
      <point x="562" y="229"/>
      <point x="536" y="253"/>
      <point x="500" y="272" type="curve" smooth="yes"/>
      <point x="483" y="281"/>
      <point x="463" y="289"/>
      <point x="443" y="297" type="curve"/>
      <point x="402" y="311"/>
      <point x="365" y="333"/>
      <point x="342" y="368" type="curve" smooth="yes"/>
      <point x="330" y="386"/>
      <point x="324" y="409"/>
      <point x="324" y="438" type="curve" smooth="yes"/>
      <point x="324" y="499"/>
      <point x="360" y="532"/>
      <point x="395" y="561" type="curve" smooth="yes"/>
      <point x="430" y="589"/>
      <point x="465" y="611"/>
      <point x="465" y="652" type="curve" smooth="yes"/>
    </contour>
  </outline>
</glyph>
<glyph name="igrave" format="1">
  <advance width="700"/>
  <unicode hex="00EC"/>
  <note>
	igrave
  </note>
  <outline>
    <contour>
      <point x="170" y="0" type="line"/>
      <point x="170" y="78" type="line"/>
      <point x="373" y="78" type="line"/>
      <point x="373" y="505" type="line"/>
      <point x="170" y="505" type="line"/>
      <point x="170" y="583" type="line"/>
      <point x="466" y="583" type="line"/>
      <point x="466" y="78" type="line"/>
      <point x="665" y="78" type="line"/>
      <point x="665" y="0" type="line"/>
    </contour>
    <contour>
      <point x="430" y="666" type="line"/>
      <point x="366" y="666" type="line"/>
      <point x="227" y="840" type="line"/>
      <point x="354" y="840" type="line"/>
    </contour>
  </outline>
</glyph>
<glyph name="iacute" format="1">
  <advance width="700"/>
  <unicode hex="00ED"/>
  <note>
	iacute
  </note>
  <outline>
    <contour>
      <point x="122" y="0" type="line"/>
      <point x="122" y="78" type="line"/>
      <point x="325" y="78" type="line"/>
      <point x="325" y="505" type="line"/>
      <point x="122" y="505" type="line"/>
      <point x="122" y="583" type="line"/>
      <point x="419" y="583" type="line"/>
      <point x="419" y="78" type="line"/>
      <point x="617" y="78" type="line"/>
      <point x="617" y="0" type="line"/>
    </contour>
    <contour>
      <point x="345" y="840" type="line"/>
      <point x="472" y="840" type="line"/>
      <point x="333" y="666" type="line"/>
      <point x="269" y="666" type="line"/>
    </contour>
  </outline>
</glyph>
<glyph name="icircumflex" format="1">
  <advance width="700"/>
  <unicode hex="00EE"/>
  <note>
	icircumflex
  </note>
  <outline>
    <contour>
      <point x="122" y="0" type="line"/>
      <point x="122" y="78" type="line"/>
      <point x="325" y="78" type="line"/>
      <point x="325" y="505" type="line"/>
      <point x="122" y="505" type="line"/>
      <point x="122" y="583" type="line"/>
      <point x="419" y="583" type="line"/>
      <point x="419" y="78" type="line"/>
      <point x="617" y="78" type="line"/>
      <point x="617" y="0" type="line"/>
    </contour>
    <contour>
      <point x="319" y="854" type="line"/>
      <point x="363" y="854" type="line"/>
      <point x="520" y="641" type="line"/>
      <point x="429" y="641" type="line"/>
      <point x="335" y="768" type="line"/>
      <point x="234" y="641" type="line"/>
      <point x="153" y="641" type="line"/>
    </contour>
  </outline>
</glyph>
<glyph name="idieresis" format="1">
  <advance width="700"/>
  <unicode hex="00EF"/>
  <note>
	idieresis
  </note>
  <outline>
    <contour>
      <point x="125" y="0" type="line"/>
      <point x="125" y="78" type="line"/>
      <point x="328" y="78" type="line"/>
      <point x="328" y="505" type="line"/>
      <point x="125" y="505" type="line"/>
      <point x="125" y="583" type="line"/>
      <point x="421" y="583" type="line"/>
      <point x="421" y="78" type="line"/>
      <point x="619" y="78" type="line"/>
      <point x="619" y="0" type="line"/>
    </contour>
    <contour>
      <point x="153" y="793"/>
      <point x="178" y="821"/>
      <point x="219" y="821" type="curve" smooth="yes"/>
      <point x="258" y="821"/>
      <point x="286" y="793"/>
      <point x="286" y="752" type="curve" smooth="yes"/>
      <point x="286" y="715"/>
      <point x="258" y="686"/>
      <point x="219" y="686" type="curve" smooth="yes"/>
      <point x="178" y="686"/>
      <point x="153" y="715"/>
      <point x="153" y="752" type="curve" smooth="yes"/>
    </contour>
    <contour>
      <point x="413" y="793"/>
      <point x="440" y="821"/>
      <point x="478" y="821" type="curve" smooth="yes"/>
      <point x="519" y="821"/>
      <point x="547" y="793"/>
      <point x="547" y="752" type="curve" smooth="yes"/>
      <point x="547" y="715"/>
      <point x="519" y="686"/>
      <point x="478" y="686" type="curve" smooth="yes"/>
      <point x="440" y="686"/>
      <point x="413" y="715"/>
      <point x="413" y="752" type="curve" smooth="yes"/>
    </contour>
  </outline>
</glyph>
<glyph name="eth" format="1">
  <advance width="700"/>
  <unicode hex="00F0"/>
  <note>
	eth
  </note>
  <outline>
    <contour>
      <point x="279" y="695" type="line"/>
      <point x="345" y="731" type="line"/>
      <point x="316" y="749"/>
      <point x="286" y="761"/>
      <point x="257" y="768" type="curve"/>
      <point x="297" y="831" type="line"/>
      <point x="325" y="821"/>
      <point x="372" y="803"/>
      <point x="419" y="771" type="curve"/>
      <point x="498" y="814" type="line"/>
      <point x="528" y="761" type="line"/>
      <point x="470" y="730" type="line"/>
      <point x="507" y="694"/>
      <point x="552" y="648"/>
      <point x="586" y="585" type="curve" smooth="yes"/>
      <point x="621" y="522"/>
      <point x="647" y="443"/>
      <point x="647" y="344" type="curve" smooth="yes"/>
      <point x="647" y="218"/>
      <point x="612" y="129"/>
      <point x="557" y="71" type="curve" smooth="yes"/>
      <point x="501" y="13"/>
      <point x="427" y="-14"/>
      <point x="351" y="-14" type="curve" smooth="yes"/>
      <point x="250" y="-14"/>
      <point x="178" y="21"/>
      <point x="132" y="77" type="curve" smooth="yes"/>
      <point x="85" y="133"/>
      <point x="64" y="209"/>
      <point x="64" y="293" type="curve" smooth="yes"/>
      <point x="64" y="373"/>
      <point x="89" y="449"/>
      <point x="136" y="505" type="curve" smooth="yes"/>
      <point x="183" y="560"/>
      <point x="255" y="595"/>
      <point x="349" y="595" type="curve" smooth="yes"/>
      <point x="419" y="595"/>
      <point x="479" y="573"/>
      <point x="520" y="541" type="curve"/>
      <point x="493" y="596"/>
      <point x="444" y="651"/>
      <point x="399" y="691" type="curve"/>
      <point x="310" y="644" type="line"/>
    </contour>
    <contour>
      <point x="161" y="216"/>
      <point x="183" y="160"/>
      <point x="218" y="122" type="curve" smooth="yes"/>
      <point x="253" y="85"/>
      <point x="301" y="68"/>
      <point x="356" y="68" type="curve" smooth="yes"/>
      <point x="406" y="68"/>
      <point x="455" y="87"/>
      <point x="492" y="131" type="curve" smooth="yes"/>
      <point x="529" y="174"/>
      <point x="554" y="241"/>
      <point x="554" y="338" type="curve" smooth="yes"/>
      <point x="554" y="346"/>
      <point x="554" y="354"/>
      <point x="554" y="365" type="curve"/>
      <point x="553" y="374"/>
      <point x="553" y="384"/>
      <point x="553" y="394" type="curve"/>
      <point x="552" y="413"/>
      <point x="549" y="431"/>
      <point x="546" y="444" type="curve"/>
      <point x="524" y="468"/>
      <point x="491" y="485"/>
      <point x="458" y="497" type="curve" smooth="yes"/>
      <point x="424" y="508"/>
      <point x="387" y="513"/>
      <point x="358" y="513" type="curve" smooth="yes"/>
      <point x="289" y="513"/>
      <point x="241" y="489"/>
      <point x="209" y="449" type="curve" smooth="yes"/>
      <point x="176" y="409"/>
      <point x="161" y="353"/>
      <point x="161" y="291" type="curve" smooth="yes"/>
    </contour>
  </outline>
</glyph>
<glyph name="ntilde" format="1">
  <advance width="700"/>
  <unicode hex="00F1"/>
  <note>
	ntilde
  </note>
  <outline>
    <contour>
      <point x="108" y="379" type="line" smooth="yes"/>
      <point x="108" y="393"/>
      <point x="107" y="417"/>
      <point x="106" y="442" type="curve" smooth="yes"/>
      <point x="105" y="465"/>
      <point x="103" y="490"/>
      <point x="99" y="507" type="curve"/>
      <point x="21" y="507" type="line"/>
      <point x="21" y="583" type="line"/>
      <point x="177" y="583" type="line"/>
      <point x="188" y="489" type="line"/>
      <point x="194" y="489" type="line"/>
      <point x="209" y="515"/>
      <point x="236" y="542"/>
      <point x="269" y="563" type="curve" smooth="yes"/>
      <point x="303" y="584"/>
      <point x="346" y="597"/>
      <point x="393" y="597" type="curve" smooth="yes"/>
      <point x="464" y="597"/>
      <point x="520" y="584"/>
      <point x="557" y="545" type="curve" smooth="yes"/>
      <point x="593" y="505"/>
      <point x="612" y="438"/>
      <point x="612" y="335" type="curve" smooth="yes"/>
      <point x="612" y="0" type="line"/>
      <point x="521" y="0" type="line"/>
      <point x="521" y="317" type="line" smooth="yes"/>
      <point x="521" y="447"/>
      <point x="486" y="512"/>
      <point x="375" y="512" type="curve" smooth="yes"/>
      <point x="335" y="512"/>
      <point x="296" y="494"/>
      <point x="265" y="468" type="curve" smooth="yes"/>
      <point x="233" y="441"/>
      <point x="209" y="405"/>
      <point x="198" y="366" type="curve"/>
      <point x="198" y="0" type="line"/>
      <point x="108" y="0" type="line"/>
    </contour>
    <contour>
      <point x="170" y="763" type="line"/>
      <point x="216" y="814"/>
      <point x="268" y="833"/>
      <point x="300" y="833" type="curve" smooth="yes"/>
      <point x="326" y="833"/>
      <point x="349" y="821"/>
      <point x="370" y="809" type="curve" smooth="yes"/>
      <point x="391" y="798"/>
      <point x="408" y="786"/>
      <point x="430" y="786" type="curve" smooth="yes"/>
      <point x="448" y="786"/>
      <point x="465" y="795"/>
      <point x="484" y="814" type="curve"/>
      <point x="525" y="763" type="line"/>
      <point x="484" y="717"/>
      <point x="452" y="704"/>
      <point x="410" y="705" type="curve" smooth="yes"/>
      <point x="386" y="705"/>
      <point x="365" y="718"/>
      <point x="344" y="730" type="curve" smooth="yes"/>
      <point x="323" y="742"/>
      <point x="302" y="752"/>
      <point x="280" y="752" type="curve" smooth="yes"/>
      <point x="260" y="752"/>
      <point x="240" y="743"/>
      <point x="213" y="716" type="curve"/>
    </contour>
  </outline>
</glyph>
<glyph name="otilde" format="1">
  <advance width="700"/>
  <unicode hex="00F5"/>
  <note>
	otilde
  </note>
  <outline>
    <contour>
      <point x="66" y="479"/>
      <point x="168" y="597"/>
      <point x="350" y="597" type="curve" smooth="yes"/>
      <point x="448" y="597"/>
      <point x="518" y="563"/>
      <point x="564" y="508" type="curve" smooth="yes"/>
      <point x="611" y="454"/>
      <point x="633" y="377"/>
      <point x="633" y="291" type="curve" smooth="yes"/>
      <point x="633" y="198"/>
      <point x="607" y="121"/>
      <point x="560" y="69" type="curve" smooth="yes"/>
      <point x="512" y="16"/>
      <point x="440" y="-14"/>
      <point x="350" y="-14" type="curve" smooth="yes"/>
      <point x="253" y="-14"/>
      <point x="182" y="20"/>
      <point x="135" y="75" type="curve" smooth="yes"/>
      <point x="89" y="129"/>
      <point x="66" y="206"/>
      <point x="66" y="291" type="curve" smooth="yes"/>
    </contour>
    <contour>
      <point x="163" y="237"/>
      <point x="176" y="180"/>
      <point x="205" y="136" type="curve" smooth="yes"/>
      <point x="234" y="93"/>
      <point x="281" y="64"/>
      <point x="350" y="64" type="curve" smooth="yes"/>
      <point x="475" y="64"/>
      <point x="538" y="142"/>
      <point x="538" y="291" type="curve" smooth="yes"/>
      <point x="538" y="347"/>
      <point x="526" y="403"/>
      <point x="496" y="447" type="curve" smooth="yes"/>
      <point x="465" y="490"/>
      <point x="419" y="519"/>
      <point x="350" y="519" type="curve" smooth="yes"/>
      <point x="225" y="519"/>
      <point x="163" y="442"/>
      <point x="163" y="291" type="curve" smooth="yes"/>
    </contour>
    <contour>
      <point x="171" y="763" type="line"/>
      <point x="217" y="814"/>
      <point x="269" y="833"/>
      <point x="301" y="833" type="curve" smooth="yes"/>
      <point x="328" y="833"/>
      <point x="350" y="821"/>
      <point x="371" y="809" type="curve" smooth="yes"/>
      <point x="392" y="798"/>
      <point x="409" y="786"/>
      <point x="431" y="786" type="curve" smooth="yes"/>
      <point x="449" y="786"/>
      <point x="466" y="795"/>
      <point x="485" y="814" type="curve"/>
      <point x="526" y="763" type="line"/>
      <point x="485" y="717"/>
      <point x="454" y="704"/>
      <point x="412" y="705" type="curve" smooth="yes"/>
      <point x="387" y="705"/>
      <point x="366" y="718"/>
      <point x="345" y="730" type="curve" smooth="yes"/>
      <point x="324" y="742"/>
      <point x="303" y="752"/>
      <point x="281" y="752" type="curve" smooth="yes"/>
      <point x="261" y="752"/>
      <point x="241" y="743"/>
      <point x="215" y="716" type="curve"/>
    </contour>
  </outline>
</glyph>
<glyph name="divide" format="1">
  <advance width="700"/>
  <unicode hex="00F7"/>
  <note>
	divide
  </note>
  <outline>
    <contour>
      <point x="79" y="436" type="line"/>
      <point x="620" y="436" type="line"/>
      <point x="620" y="352" type="line"/>
      <point x="79" y="352" type="line"/>
    </contour>
    <contour>
      <point x="273" y="673"/>
      <point x="303" y="701"/>
      <point x="350" y="701" type="curve" smooth="yes"/>
      <point x="400" y="701"/>
      <point x="429" y="673"/>
      <point x="429" y="623" type="curve" smooth="yes"/>
      <point x="429" y="577"/>
      <point x="400" y="545"/>
      <point x="350" y="545" type="curve" smooth="yes"/>
      <point x="303" y="545"/>
      <point x="273" y="577"/>
      <point x="273" y="623" type="curve" smooth="yes"/>
    </contour>
    <contour>
      <point x="273" y="236"/>
      <point x="303" y="264"/>
      <point x="350" y="264" type="curve" smooth="yes"/>
      <point x="400" y="264"/>
      <point x="429" y="236"/>
      <point x="429" y="185" type="curve" smooth="yes"/>
      <point x="429" y="140"/>
      <point x="400" y="107"/>
      <point x="350" y="107" type="curve" smooth="yes"/>
      <point x="303" y="107"/>
      <point x="273" y="140"/>
      <point x="273" y="185" type="curve" smooth="yes"/>
    </contour>
  </outline>
</glyph>
<glyph name="oslash" format="1">
  <advance width="700"/>
  <unicode hex="00F8"/>
  <note>
	oslash
  </note>
  <outline>
    <contour>
      <point x="66" y="479"/>
      <point x="168" y="597"/>
      <point x="350" y="597" type="curve" smooth="yes"/>
      <point x="399" y="597"/>
      <point x="441" y="589"/>
      <point x="476" y="573" type="curve"/>
      <point x="482" y="570"/>
      <point x="487" y="568"/>
      <point x="493" y="564" type="curve"/>
      <point x="520" y="600" type="line"/>
      <point x="583" y="557" type="line"/>
      <point x="555" y="519" type="line"/>
      <point x="564" y="508" type="line" smooth="yes"/>
      <point x="611" y="454"/>
      <point x="633" y="377"/>
      <point x="633" y="291" type="curve" smooth="yes"/>
      <point x="633" y="198"/>
      <point x="607" y="121"/>
      <point x="560" y="69" type="curve" smooth="yes"/>
      <point x="512" y="16"/>
      <point x="440" y="-14"/>
      <point x="350" y="-14" type="curve" smooth="yes"/>
      <point x="302" y="-14"/>
      <point x="260" y="-6"/>
      <point x="224" y="9" type="curve" smooth="yes"/>
      <point x="216" y="13"/>
      <point x="206" y="17"/>
      <point x="198" y="22" type="curve"/>
      <point x="170" y="-17" type="line"/>
      <point x="110" y="26" type="line"/>
      <point x="140" y="69" type="line"/>
      <point x="139" y="70"/>
      <point x="136" y="72"/>
      <point x="135" y="75" type="curve"/>
      <point x="89" y="129"/>
      <point x="66" y="206"/>
      <point x="66" y="291" type="curve" smooth="yes"/>
    </contour>
    <contour>
      <point x="262" y="84" type="line"/>
      <point x="287" y="71"/>
      <point x="316" y="64"/>
      <point x="350" y="64" type="curve" smooth="yes"/>
      <point x="475" y="64"/>
      <point x="538" y="142"/>
      <point x="538" y="291" type="curve" smooth="yes"/>
      <point x="538" y="347"/>
      <point x="526" y="400"/>
      <point x="499" y="441" type="curve"/>
      <point x="248" y="92" type="line"/>
    </contour>
    <contour>
      <point x="163" y="237"/>
      <point x="175" y="185"/>
      <point x="197" y="148" type="curve"/>
      <point x="444" y="494" type="line"/>
      <point x="442" y="496"/>
      <point x="440" y="498"/>
      <point x="436" y="499" type="curve"/>
      <point x="413" y="512"/>
      <point x="384" y="519"/>
      <point x="350" y="519" type="curve" smooth="yes"/>
      <point x="225" y="519"/>
      <point x="163" y="442"/>
      <point x="163" y="291" type="curve" smooth="yes"/>
    </contour>
  </outline>
</glyph>
<glyph name="thorn" format="1">
  <advance width="700"/>
  <unicode hex="00FE"/>
  <note>
	thorn
  </note>
  <outline>
    <contour>
      <point x="112" y="740" type="line"/>
      <point x="24" y="740" type="line"/>
      <point x="24" y="816" type="line"/>
      <point x="202" y="816" type="line"/>
      <point x="202" y="501" type="line"/>
      <point x="238" y="552"/>
      <point x="302" y="597"/>
      <point x="395" y="597" type="curve" smooth="yes"/>
      <point x="562" y="597"/>
      <point x="646" y="512"/>
      <point x="646" y="303" type="curve" smooth="yes"/>
      <point x="646" y="205"/>
      <point x="616" y="126"/>
      <point x="563" y="71" type="curve" smooth="yes"/>
      <point x="511" y="16"/>
      <point x="434" y="-14"/>
      <point x="344" y="-14" type="curve" smooth="yes"/>
      <point x="311" y="-14"/>
      <point x="287" y="-12"/>
      <point x="266" y="-7" type="curve"/>
      <point x="245" y="-3"/>
      <point x="225" y="2"/>
      <point x="202" y="12" type="curve"/>
      <point x="202" y="-233" type="line"/>
      <point x="112" y="-233" type="line"/>
    </contour>
    <contour>
      <point x="333" y="512"/>
      <point x="291" y="493"/>
      <point x="260" y="465" type="curve" smooth="yes"/>
      <point x="227" y="437"/>
      <point x="206" y="401"/>
      <point x="202" y="367" type="curve"/>
      <point x="202" y="101" type="line"/>
      <point x="236" y="78"/>
      <point x="274" y="64"/>
      <point x="344" y="64" type="curve" smooth="yes"/>
      <point x="469" y="64"/>
      <point x="549" y="147"/>
      <point x="549" y="304" type="curve" smooth="yes"/>
      <point x="549" y="436"/>
      <point x="501" y="512"/>
      <point x="380" y="512" type="curve" smooth="yes"/>
    </contour>
  </outline>
</glyph>
<glyph name="ydieresis" format="1">
  <advance width="700"/>
  <unicode hex="00FF"/>
  <note>
	ydieresis
  </note>
  <outline>
    <contour>
      <point x="363" y="90" type="line"/>
      <point x="407" y="90" type="line"/>
      <point x="552" y="583" type="line"/>
      <point x="646" y="583" type="line"/>
      <point x="484" y="59" type="line" smooth="yes"/>
      <point x="476" y="33"/>
      <point x="466" y="1"/>
      <point x="458" y="-33" type="curve" smooth="yes"/>
      <point x="440" y="-103"/>
      <point x="409" y="-166"/>
      <point x="353" y="-208" type="curve" smooth="yes"/>
      <point x="325" y="-229"/>
      <point x="289" y="-239"/>
      <point x="244" y="-239" type="curve" smooth="yes"/>
      <point x="224" y="-239"/>
      <point x="201" y="-233"/>
      <point x="178" y="-226" type="curve" smooth="yes"/>
      <point x="156" y="-219"/>
      <point x="136" y="-210"/>
      <point x="127" y="-201" type="curve"/>
      <point x="160" y="-117" type="line"/>
      <point x="169" y="-125"/>
      <point x="187" y="-133"/>
      <point x="206" y="-138" type="curve"/>
      <point x="225" y="-143"/>
      <point x="245" y="-148"/>
      <point x="258" y="-148" type="curve" smooth="yes"/>
      <point x="316" y="-148"/>
      <point x="356" y="-99"/>
      <point x="377" y="0" type="curve"/>
      <point x="298" y="0" type="line"/>
      <point x="54" y="583" type="line"/>
      <point x="159" y="583" type="line"/>
    </contour>
    <contour>
      <point x="163" y="793"/>
      <point x="189" y="821"/>
      <point x="230" y="821" type="curve" smooth="yes"/>
      <point x="268" y="821"/>
      <point x="296" y="793"/>
      <point x="296" y="752" type="curve" smooth="yes"/>
      <point x="296" y="715"/>
      <point x="268" y="686"/>
      <point x="230" y="686" type="curve" smooth="yes"/>
      <point x="189" y="686"/>
      <point x="163" y="715"/>
      <point x="163" y="752" type="curve" smooth="yes"/>
    </contour>
    <contour>
      <point x="423" y="793"/>
      <point x="450" y="821"/>
      <point x="489" y="821" type="curve" smooth="yes"/>
      <point x="529" y="821"/>
      <point x="557" y="793"/>
      <point x="557" y="752" type="curve" smooth="yes"/>
      <point x="557" y="715"/>
      <point x="529" y="686"/>
      <point x="489" y="686" type="curve" smooth="yes"/>
      <point x="450" y="686"/>
      <point x="423" y="715"/>
      <point x="423" y="752" type="curve" smooth="yes"/>
    </contour>
  </outline>
</glyph>
<glyph name="Abreve" format="1">
  <advance width="700"/>
  <unicode hex="0102"/>
  <note>
	Abreve
  </note>
  <outline>
    <contour>
      <point x="503" y="226" type="line"/>
      <point x="189" y="226" type="line"/>
      <point x="114" y="0" type="line"/>
      <point x="19" y="0" type="line"/>
      <point x="291" y="816" type="line"/>
      <point x="406" y="816" type="line"/>
      <point x="681" y="0" type="line"/>
      <point x="580" y="0" type="line"/>
    </contour>
    <contour>
      <point x="219" y="310" type="line"/>
      <point x="476" y="310" type="line"/>
      <point x="356" y="694" type="line"/>
      <point x="342" y="694" type="line"/>
    </contour>
    <contour>
      <point x="199" y="1016" type="line"/>
      <point x="226" y="963"/>
      <point x="282" y="933"/>
      <point x="356" y="933" type="curve" smooth="yes"/>
      <point x="430" y="933"/>
      <point x="483" y="970"/>
      <point x="505" y="1016" type="curve"/>
      <point x="560" y="985" type="line"/>
      <point x="526" y="897"/>
      <point x="443" y="851"/>
      <point x="354" y="851" type="curve" smooth="yes"/>
      <point x="312" y="851"/>
      <point x="269" y="861"/>
      <point x="231" y="880" type="curve" smooth="yes"/>
      <point x="192" y="900"/>
      <point x="160" y="933"/>
      <point x="140" y="979" type="curve"/>
    </contour>
  </outline>
</glyph>
<glyph name="abreve" format="1">
  <advance width="700"/>
  <unicode hex="0103"/>
  <note>
	abreve
  </note>
  <outline>
    <contour>
      <point x="126" y="538" type="line"/>
      <point x="192" y="576"/>
      <point x="282" y="592"/>
      <point x="363" y="592" type="curve" smooth="yes"/>
      <point x="442" y="592"/>
      <point x="491" y="566"/>
      <point x="520" y="526" type="curve" smooth="yes"/>
      <point x="548" y="486"/>
      <point x="556" y="433"/>
      <point x="556" y="381" type="curve" smooth="yes"/>
      <point x="556" y="352"/>
      <point x="555" y="321"/>
      <point x="554" y="287" type="curve" smooth="yes"/>
      <point x="550" y="220"/>
      <point x="548" y="146"/>
      <point x="557" y="76" type="curve"/>
      <point x="635" y="76" type="line"/>
      <point x="635" y="0" type="line"/>
      <point x="480" y="0" type="line"/>
      <point x="470" y="87" type="line"/>
      <point x="464" y="87" type="line"/>
      <point x="455" y="73"/>
      <point x="437" y="50"/>
      <point x="407" y="29" type="curve" smooth="yes"/>
      <point x="377" y="8"/>
      <point x="333" y="-10"/>
      <point x="274" y="-10" type="curve" smooth="yes"/>
      <point x="159" y="-10"/>
      <point x="87" y="52"/>
      <point x="87" y="155" type="curve" smooth="yes"/>
      <point x="87" y="234"/>
      <point x="124" y="287"/>
      <point x="189" y="315" type="curve" smooth="yes"/>
      <point x="254" y="343"/>
      <point x="347" y="347"/>
      <point x="463" y="330" type="curve"/>
      <point x="471" y="401"/>
      <point x="465" y="448"/>
      <point x="447" y="476" type="curve" smooth="yes"/>
      <point x="427" y="504"/>
      <point x="392" y="514"/>
      <point x="340" y="514" type="curve" smooth="yes"/>
      <point x="271" y="514"/>
      <point x="205" y="490"/>
      <point x="155" y="470" type="curve"/>
    </contour>
    <contour>
      <point x="340" y="68"/>
      <point x="379" y="83"/>
      <point x="407" y="105" type="curve" smooth="yes"/>
      <point x="435" y="127"/>
      <point x="454" y="154"/>
      <point x="463" y="177" type="curve"/>
      <point x="463" y="259" type="line"/>
      <point x="422" y="266"/>
      <point x="385" y="269"/>
      <point x="351" y="269" type="curve" smooth="yes"/>
      <point x="282" y="269"/>
      <point x="232" y="255"/>
      <point x="204" y="224" type="curve" smooth="yes"/>
      <point x="190" y="209"/>
      <point x="183" y="188"/>
      <point x="183" y="163" type="curve" smooth="yes"/>
      <point x="183" y="112"/>
      <point x="215" y="68"/>
      <point x="297" y="68" type="curve" smooth="yes"/>
    </contour>
    <contour>
      <point x="240" y="840" type="line"/>
      <point x="268" y="784"/>
      <point x="318" y="750"/>
      <point x="371" y="750" type="curve" smooth="yes"/>
      <point x="423" y="750"/>
      <point x="468" y="782"/>
      <point x="494" y="840" type="curve"/>
      <point x="543" y="819" type="line"/>
      <point x="539" y="781"/>
      <point x="519" y="743"/>
      <point x="489" y="715" type="curve" smooth="yes"/>
      <point x="458" y="687"/>
      <point x="416" y="668"/>
      <point x="370" y="668" type="curve" smooth="yes"/>
      <point x="326" y="668"/>
      <point x="287" y="682"/>
      <point x="255" y="708" type="curve" smooth="yes"/>
      <point x="223" y="733"/>
      <point x="198" y="767"/>
      <point x="188" y="813" type="curve"/>
    </contour>
  </outline>
</glyph>
<glyph name="Aogonek" format="1">
  <advance width="700"/>
  <unicode hex="0104"/>
  <note>
	Aogonek
  </note>
  <outline>
    <contour>
      <point x="503" y="226" type="line"/>
      <point x="189" y="226" type="line"/>
      <point x="114" y="0" type="line"/>
      <point x="19" y="0" type="line"/>
      <point x="291" y="816" type="line"/>
      <point x="406" y="816" type="line"/>
      <point x="681" y="0" type="line"/>
      <point x="647" y="0" type="line"/>
      <point x="614" y="-20"/>
      <point x="583" y="-51"/>
      <point x="583" y="-101" type="curve" smooth="yes"/>
      <point x="583" y="-133"/>
      <point x="604" y="-161"/>
      <point x="642" y="-161" type="curve" smooth="yes"/>
      <point x="658" y="-161"/>
      <point x="673" y="-157"/>
      <point x="689" y="-149" type="curve"/>
      <point x="702" y="-199" type="line"/>
      <point x="679" y="-218"/>
      <point x="634" y="-227"/>
      <point x="602" y="-227" type="curve" smooth="yes"/>
      <point x="532" y="-227"/>
      <point x="486" y="-188"/>
      <point x="486" y="-124" type="curve" smooth="yes"/>
      <point x="486" y="-59"/>
      <point x="531" y="-22"/>
      <point x="578" y="1" type="curve"/>
    </contour>
    <contour>
      <point x="219" y="310" type="line"/>
      <point x="476" y="310" type="line"/>
      <point x="356" y="694" type="line"/>
      <point x="342" y="694" type="line"/>
    </contour>
  </outline>
</glyph>
<glyph name="Ccaron" format="1">
  <advance width="700"/>
  <unicode hex="010C"/>
  <note>
	Ccaron
  </note>
  <outline>
    <contour>
      <point x="534" y="728" type="line"/>
      <point x="507" y="738"/>
      <point x="478" y="744"/>
      <point x="433" y="744" type="curve" smooth="yes"/>
      <point x="368" y="744"/>
      <point x="304" y="722"/>
      <point x="258" y="669" type="curve" smooth="yes"/>
      <point x="210" y="617"/>
      <point x="178" y="533"/>
      <point x="178" y="408" type="curve" smooth="yes"/>
      <point x="178" y="296"/>
      <point x="205" y="212"/>
      <point x="252" y="156" type="curve" smooth="yes"/>
      <point x="297" y="100"/>
      <point x="363" y="72"/>
      <point x="442" y="72" type="curve" smooth="yes"/>
      <point x="483" y="72"/>
      <point x="518" y="79"/>
      <point x="547" y="92" type="curve"/>
      <point x="547" y="209" type="line"/>
      <point x="633" y="209" type="line"/>
      <point x="633" y="51" type="line"/>
      <point x="634" y="49" type="line"/>
      <point x="588" y="13"/>
      <point x="518" y="-14"/>
      <point x="415" y="-14" type="curve" smooth="yes"/>
      <point x="317" y="-14"/>
      <point x="232" y="19"/>
      <point x="171" y="87" type="curve" smooth="yes"/>
      <point x="111" y="156"/>
      <point x="76" y="262"/>
      <point x="76" y="408" type="curve" smooth="yes"/>
      <point x="76" y="561"/>
      <point x="115" y="666"/>
      <point x="180" y="733" type="curve" smooth="yes"/>
      <point x="244" y="801"/>
      <point x="330" y="830"/>
      <point x="427" y="830" type="curve" smooth="yes"/>
      <point x="479" y="830"/>
      <point x="518" y="827"/>
      <point x="547" y="820" type="curve" smooth="yes"/>
      <point x="576" y="813"/>
      <point x="597" y="801"/>
      <point x="619" y="787" type="curve"/>
      <point x="620" y="787" type="line"/>
      <point x="620" y="603" type="line"/>
      <point x="534" y="603" type="line"/>
    </contour>
    <contour>
      <point x="438" y="870" type="line"/>
      <point x="371" y="870" type="line"/>
      <point x="197" y="1014" type="line"/>
      <point x="318" y="1014" type="line"/>
      <point x="408" y="936" type="line"/>
      <point x="503" y="1014" type="line"/>
      <point x="611" y="1014" type="line"/>
    </contour>
  </outline>
</glyph>
<glyph name="Dcaron" format="1">
  <advance width="700"/>
  <unicode hex="010E"/>
  <note>
	Dcaron
  </note>
  <outline>
    <contour>
      <point x="93" y="816" type="line"/>
      <point x="153" y="824"/>
      <point x="223" y="826"/>
      <point x="268" y="826" type="curve" smooth="yes"/>
      <point x="409" y="826"/>
      <point x="504" y="784"/>
      <point x="562" y="711" type="curve" smooth="yes"/>
      <point x="620" y="639"/>
      <point x="644" y="535"/>
      <point x="644" y="414" type="curve" smooth="yes"/>
      <point x="644" y="303"/>
      <point x="623" y="198"/>
      <point x="566" y="120" type="curve" smooth="yes"/>
      <point x="508" y="41"/>
      <point x="413" y="-10"/>
      <point x="267" y="-10" type="curve" smooth="yes"/>
      <point x="247" y="-10"/>
      <point x="211" y="-9"/>
      <point x="177" y="-7" type="curve" smooth="yes"/>
      <point x="160" y="-6"/>
      <point x="143" y="-6"/>
      <point x="128" y="-5" type="curve" smooth="yes"/>
      <point x="113" y="-3"/>
      <point x="101" y="-2"/>
      <point x="93" y="-1" type="curve"/>
    </contour>
    <contour>
      <point x="251" y="739"/>
      <point x="212" y="738"/>
      <point x="190" y="733" type="curve"/>
      <point x="190" y="80" type="line"/>
      <point x="198" y="79"/>
      <point x="215" y="78"/>
      <point x="230" y="78" type="curve"/>
      <point x="238" y="77"/>
      <point x="245" y="77"/>
      <point x="253" y="77" type="curve"/>
      <point x="260" y="76"/>
      <point x="266" y="76"/>
      <point x="271" y="76" type="curve" smooth="yes"/>
      <point x="384" y="76"/>
      <point x="452" y="117"/>
      <point x="491" y="180" type="curve" smooth="yes"/>
      <point x="529" y="243"/>
      <point x="541" y="326"/>
      <point x="541" y="414" type="curve" smooth="yes"/>
      <point x="541" y="490"/>
      <point x="532" y="571"/>
      <point x="494" y="633" type="curve" smooth="yes"/>
      <point x="456" y="695"/>
      <point x="388" y="739"/>
      <point x="273" y="739" type="curve" smooth="yes"/>
    </contour>
    <contour>
      <point x="352" y="870" type="line"/>
      <point x="285" y="870" type="line"/>
      <point x="111" y="1014" type="line"/>
      <point x="232" y="1014" type="line"/>
      <point x="322" y="936" type="line"/>
      <point x="416" y="1014" type="line"/>
      <point x="525" y="1014" type="line"/>
    </contour>
  </outline>
</glyph>
<glyph name="Dcroat" format="1">
  <advance width="700"/>
  <unicode hex="0110"/>
  <note>
	Dcroat
  </note>
  <outline>
    <contour>
      <point x="10" y="457" type="line"/>
      <point x="115" y="457" type="line"/>
      <point x="115" y="816" type="line"/>
      <point x="175" y="824"/>
      <point x="257" y="826"/>
      <point x="322" y="826" type="curve" smooth="yes"/>
      <point x="452" y="826"/>
      <point x="542" y="784"/>
      <point x="599" y="711" type="curve" smooth="yes"/>
      <point x="655" y="639"/>
      <point x="679" y="535"/>
      <point x="679" y="414" type="curve" smooth="yes"/>
      <point x="679" y="303"/>
      <point x="658" y="198"/>
      <point x="602" y="120" type="curve" smooth="yes"/>
      <point x="545" y="41"/>
      <point x="451" y="-10"/>
      <point x="310" y="-10" type="curve" smooth="yes"/>
      <point x="286" y="-10"/>
      <point x="245" y="-9"/>
      <point x="206" y="-7" type="curve" smooth="yes"/>
      <point x="187" y="-6"/>
      <point x="169" y="-6"/>
      <point x="153" y="-5" type="curve" smooth="yes"/>
      <point x="135" y="-3"/>
      <point x="124" y="-2"/>
      <point x="115" y="-1" type="curve"/>
      <point x="115" y="387" type="line"/>
      <point x="10" y="387" type="line"/>
    </contour>
    <contour>
      <point x="283" y="739"/>
      <point x="234" y="738"/>
      <point x="212" y="733" type="curve"/>
      <point x="212" y="457" type="line"/>
      <point x="372" y="457" type="line"/>
      <point x="372" y="387" type="line"/>
      <point x="212" y="387" type="line"/>
      <point x="212" y="80" type="line"/>
      <point x="220" y="79"/>
      <point x="241" y="78"/>
      <point x="262" y="78" type="curve"/>
      <point x="273" y="77"/>
      <point x="282" y="77"/>
      <point x="293" y="77" type="curve"/>
      <point x="302" y="76"/>
      <point x="309" y="76"/>
      <point x="312" y="76" type="curve" smooth="yes"/>
      <point x="421" y="76"/>
      <point x="489" y="117"/>
      <point x="527" y="180" type="curve" smooth="yes"/>
      <point x="564" y="243"/>
      <point x="576" y="326"/>
      <point x="576" y="414" type="curve" smooth="yes"/>
      <point x="576" y="490"/>
      <point x="567" y="571"/>
      <point x="531" y="633" type="curve" smooth="yes"/>
      <point x="493" y="695"/>
      <point x="431" y="739"/>
      <point x="324" y="739" type="curve" smooth="yes"/>
    </contour>
  </outline>
</glyph>
